{
.appVersion = "3105";
classes = (
{
automatic = 1;

glyphs = (
{
glyphname = A;
layers = (
{
anchors = (
{
name = aboveUC;
position = "{290, 672}";
},
{
name = belowLC;
position = "{290, -22}";
},
{
name = ogonekUC;
position = "{494, 0}";
}
);
layerId = "42B3044F-4D5A-45CA-9EB7-C1889731596B";
paths = (
{
closed = 1;
nodes = (
"166 0 LINE",
"240 316 LINE SMOOTH",
"256 378 OFFCURVE",
"272 456 OFFCURVE",
"286 522 CURVE",
"290 522 LINE",
"306 457 OFFCURVE",
"322 378 OFFCURVE",
"338 316 CURVE SMOOTH",
"412 0 LINE",
"594 0 LINE",
"396 650 LINE",
"188 650 LINE",
"-10 0 LINE"
);
},
{
closed = 1;
nodes = (
"450 138 LINE",
"450 271 LINE",
"132 271 LINE",
"132 138 LINE"
);
}
);
width = 584;
},
{
anchors = (
{
name = aboveUC;
position = "{260, 682}";
},
{
name = belowLC;
position = "{260, -22}";
},
{
name = ogonekUC;
position = "{476, 0}";
}
);
layerId = "0CAB57D4-4FC4-49C3-B456-FB7666EAA712";
paths = (
{
closed = 1;
nodes = (
"42 0 LINE",
"182 396 LINE SMOOTH",
"210 476 OFFCURVE",
"234 544 OFFCURVE",
"258 626 CURVE",
"262 626 LINE",
"286 544 OFFCURVE",
"310 476 OFFCURVE",
"338 396 CURVE SMOOTH",
"476 0 LINE",
"510 0 LINE",
"274 660 LINE",
"246 660 LINE",
"10 0 LINE"
);
},
{
closed = 1;
nodes = (
"405 236 LINE",
"405 264 LINE",
"112 264 LINE",
"112 236 LINE"
);
}
);
width = 520;
},
{
anchors = (
{
name = aboveUC;
position = "{271, 678}";
},
{
name = belowLC;
position = "{271, -22}";
},
{
name = ogonekUC;
position = "{483, 0}";
}
);
layerId = master01;
paths = (
{
closed = 1;
nodes = (
"88 0 LINE",
"203 367 LINE SMOOTH",
"227 440 OFFCURVE",
"248 512 OFFCURVE",
"268 588 CURVE",
"272 588 LINE",
"293 512 OFFCURVE",
"314 440 OFFCURVE",
"338 367 CURVE SMOOTH",
"452 0 LINE",
"541 0 LINE",
"319 656 LINE",
"225 656 LINE",
"3 0 LINE"
);
},
{
closed = 1;
nodes = (
"422 200 LINE",
"422 267 LINE",
"119 267 LINE",
"119 200 LINE"
);
}
);
width = 543.552;
}
);
leftKerningGroup = A;
rightKerningGroup = A;
unicode = 0041;
},
{
glyphname = AinEgypt;
layers = (
{
layerId = "42B3044F-4D5A-45CA-9EB7-C1889731596B";
paths = (
{
closed = 1;
nodes = (
"284 402 LINE",
"214 411 OFFCURVE",
"170 443 OFFCURVE",
"170 478 CURVE SMOOTH",
"170 488 OFFCURVE",
"170 494 OFFCURVE",
"170 502 CURVE",
"130 502 LINE",
"148 488 OFFCURVE",
"178 474 OFFCURVE",
"204 474 CURVE SMOOTH",
"262 474 OFFCURVE",
"304 508 OFFCURVE",
"304 564 CURVE SMOOTH",
"304 624 OFFCURVE",
"262 662 OFFCURVE",
"178 662 CURVE SMOOTH",
"92 662 OFFCURVE",
"36 608 OFFCURVE",
"36 510 CURVE SMOOTH",
"36 394 OFFCURVE",
"114 318 OFFCURVE",
"262 314 CURVE"
);
}
);
width = 360;
},
{
layerId = "0CAB57D4-4FC4-49C3-B456-FB7666EAA712";
paths = (
{
closed = 1;
nodes = (
"186 452 LINE",
"126 462 OFFCURVE",
"84 500 OFFCURVE",
"84 560 CURVE SMOOTH",
"84 594 OFFCURVE",
"104 616 OFFCURVE",
"128 618 CURVE",
"122 618 LINE",
"122 593 OFFCURVE",
"138 578 OFFCURVE",
"160 578 CURVE SMOOTH",
"182 578 OFFCURVE",
"200 596 OFFCURVE",
"200 620 CURVE SMOOTH",
"200 650 OFFCURVE",
"178 670 OFFCURVE",
"144 670 CURVE SMOOTH",
"96 670 OFFCURVE",
"52 628 OFFCURVE",
"52 558 CURVE SMOOTH",
"52 488 OFFCURVE",
"102 438 OFFCURVE",
"182 428 CURVE"
);
}
);
width = 248;
},
{
layerId = master01;
paths = (
{
closed = 1;
nodes = (
"222 434 LINE",
"158 443 OFFCURVE",
"116 479 OFFCURVE",
"116 530 CURVE SMOOTH",
"116 555 OFFCURVE",
"128 571 OFFCURVE",
"143 575 CURVE",
"125 575 LINE",
"132 554 OFFCURVE",
"153 540 OFFCURVE",
"176 540 CURVE SMOOTH",
"211 540 OFFCURVE",
"238 564 OFFCURVE",
"238 599 CURVE SMOOTH",
"238 640 OFFCURVE",
"209 667 OFFCURVE",
"157 667 CURVE SMOOTH",
"95 667 OFFCURVE",
"46 621 OFFCURVE",
"46 540 CURVE SMOOTH",
"46 453 OFFCURVE",
"106 394 OFFCURVE",
"211 386 CURVE"
);
}
);
width = 289.216;
}
);
unicode = A724;
},
{
glyphname = AlefEgypt;
layers = (
{
layerId = "42B3044F-4D5A-45CA-9EB7-C1889731596B";
paths = (
{
closed = 1;
nodes = (
"246 -8 OFFCURVE",
"324 60 OFFCURVE",
"324 172 CURVE SMOOTH",
"324 262 OFFCURVE",
"268 316 OFFCURVE",
"174 316 CURVE SMOOTH",
"98 316 OFFCURVE",
"56 278 OFFCURVE",
"56 218 CURVE SMOOTH",
"56 162 OFFCURVE",
"98 128 OFFCURVE",
"156 128 CURVE SMOOTH",
"182 128 OFFCURVE",
"212 142 OFFCURVE",
"230 156 CURVE",
"190 156 LINE",
"190 148 OFFCURVE",
"190 142 OFFCURVE",
"190 132 CURVE SMOOTH",
"190 106 OFFCURVE",
"146 85 OFFCURVE",
"76 76 CURVE",
"98 -12 LINE"
);
},
{
closed = 1;
nodes = (
"246 338 OFFCURVE",
"324 406 OFFCURVE",
"324 518 CURVE SMOOTH",
"324 608 OFFCURVE",
"268 662 OFFCURVE",
"174 662 CURVE SMOOTH",
"98 662 OFFCURVE",
"56 624 OFFCURVE",
"56 564 CURVE SMOOTH",
"56 508 OFFCURVE",
"98 474 OFFCURVE",
"156 474 CURVE SMOOTH",
"182 474 OFFCURVE",
"212 488 OFFCURVE",
"230 502 CURVE",
"190 502 LINE",
"190 494 OFFCURVE",
"190 488 OFFCURVE",
"190 478 CURVE SMOOTH",
"190 452 OFFCURVE",
"146 431 OFFCURVE",
"76 422 CURVE",
"98 334 LINE"
);
}
);
width = 360;
},
{
layerId = "0CAB57D4-4FC4-49C3-B456-FB7666EAA712";
paths = (
{
closed = 1;
nodes = (
"146 -2 OFFCURVE",
"196 46 OFFCURVE",
"196 122 CURVE SMOOTH",
"196 188 OFFCURVE",
"152 230 OFFCURVE",
"104 230 CURVE SMOOTH",
"70 230 OFFCURVE",
"48 210 OFFCURVE",
"48 180 CURVE SMOOTH",
"48 156 OFFCURVE",
"66 138 OFFCURVE",
"88 138 CURVE SMOOTH",
"110 138 OFFCURVE",
"126 153 OFFCURVE",
"126 178 CURVE",
"120 178 LINE",
"144 176 OFFCURVE",
"164 154 OFFCURVE",
"164 116 CURVE SMOOTH",
"164 58 OFFCURVE",
"122 22 OFFCURVE",
"62 12 CURVE",
"66 -12 LINE"
);
},
{
closed = 1;
nodes = (
"146 438 OFFCURVE",
"196 486 OFFCURVE",
"196 562 CURVE SMOOTH",
"196 628 OFFCURVE",
"152 670 OFFCURVE",
"104 670 CURVE SMOOTH",
"70 670 OFFCURVE",
"48 650 OFFCURVE",
"48 620 CURVE SMOOTH",
"48 596 OFFCURVE",
"66 578 OFFCURVE",
"88 578 CURVE SMOOTH",
"110 578 OFFCURVE",
"126 593 OFFCURVE",
"126 618 CURVE",
"120 618 LINE",
"144 616 OFFCURVE",
"164 594 OFFCURVE",
"164 556 CURVE SMOOTH",
"164 498 OFFCURVE",
"122 462 OFFCURVE",
"62 452 CURVE",
"66 428 LINE"
);
}
);
width = 248;
},
{
layerId = master01;
paths = (
{
closed = 1;
nodes = (
"183 -4 OFFCURVE",
"243 51 OFFCURVE",
"243 140 CURVE SMOOTH",
"243 215 OFFCURVE",
"195 262 OFFCURVE",
"130 262 CURVE SMOOTH",
"80 262 OFFCURVE",
"51 235 OFFCURVE",
"51 194 CURVE SMOOTH",
"51 158 OFFCURVE",
"78 134 OFFCURVE",
"113 134 CURVE SMOOTH",
"136 134 OFFCURVE",
"158 149 OFFCURVE",
"164 170 CURVE",
"146 170 LINE",
"161 166 OFFCURVE",
"174 150 OFFCURVE",
"174 122 CURVE SMOOTH",
"174 76 OFFCURVE",
"131 45 OFFCURVE",
"67 36 CURVE",
"78 -12 LINE"
);
},
{
closed = 1;
nodes = (
"183 401 OFFCURVE",
"243 457 OFFCURVE",
"243 546 CURVE SMOOTH",
"243 621 OFFCURVE",
"195 667 OFFCURVE",
"130 667 CURVE SMOOTH",
"80 667 OFFCURVE",
"51 640 OFFCURVE",
"51 599 CURVE SMOOTH",
"51 564 OFFCURVE",
"78 540 OFFCURVE",
"113 540 CURVE SMOOTH",
"136 540 OFFCURVE",
"158 554 OFFCURVE",
"164 575 CURVE",
"146 575 LINE",
"161 571 OFFCURVE",
"174 555 OFFCURVE",
"174 527 CURVE SMOOTH",
"174 481 OFFCURVE",
"131 451 OFFCURVE",
"67 441 CURVE",
"78 393 LINE"
);
}
);
width = 289.216;
}
);
unicode = A722;
},
{
glyphname = Aogonek;
layers = (
{
anchors = (
{
name = aboveUC;
position = "{290, 672}";
}
);
layerId = "42B3044F-4D5A-45CA-9EB7-C1889731596B";
paths = (
{
closed = 1;
nodes = (
"544 -228 OFFCURVE",
"594 -212 OFFCURVE",
"624 -190 CURVE",
"586 -94 LINE",
"576 -100 OFFCURVE",
"560 -108 OFFCURVE",
"544 -108 CURVE SMOOTH",
"518 -108 OFFCURVE",
"502 -98 OFFCURVE",
"502 -74 CURVE SMOOTH",
"502 -39 OFFCURVE",
"538 0 OFFCURVE",
"594 0 CURVE",
"396 650 LINE",
"188 650 LINE",
"-10 0 LINE",
"166 0 LINE",
"240 316 LINE SMOOTH",
"256 378 OFFCURVE",
"272 456 OFFCURVE",
"286 522 CURVE",
"290 522 LINE",
"306 457 OFFCURVE",
"322 378 OFFCURVE",
"338 316 CURVE SMOOTH",
"412 0 LINE",
"450 0 LINE",
"418 -16 OFFCURVE",
"368 -62 OFFCURVE",
"368 -126 CURVE SMOOTH",
"368 -191 OFFCURVE",
"428 -228 OFFCURVE",
"504 -228 CURVE SMOOTH"
);
},
{
closed = 1;
nodes = (
"450 138 LINE",
"450 271 LINE",
"132 271 LINE",
"132 138 LINE"
);
}
);
width = 584;
},
{
anchors = (
{
name = aboveUC;
position = "{260, 682}";
}
);
layerId = "0CAB57D4-4FC4-49C3-B456-FB7666EAA712";
paths = (
{
closed = 1;
nodes = (
"518 -214 OFFCURVE",
"544 -200 OFFCURVE",
"560 -186 CURVE",
"546 -166 LINE",
"528 -180 OFFCURVE",
"512 -186 OFFCURVE",
"490 -186 CURVE SMOOTH",
"460 -186 OFFCURVE",
"430 -168 OFFCURVE",
"430 -126 CURVE SMOOTH",
"430 -82 OFFCURVE",
"467 -33 OFFCURVE",
"510 0 CURVE",
"274 660 LINE",
"246 660 LINE",
"10 0 LINE",
"42 0 LINE",
"182 396 LINE SMOOTH",
"210 476 OFFCURVE",
"234 544 OFFCURVE",
"258 626 CURVE",
"262 626 LINE",
"286 544 OFFCURVE",
"310 476 OFFCURVE",
"338 396 CURVE SMOOTH",
"476 0 LINE",
"478 0 LINE",
"439 -28 OFFCURVE",
"400 -77 OFFCURVE",
"400 -128 CURVE SMOOTH",
"400 -188 OFFCURVE",
"440 -214 OFFCURVE",
"488 -214 CURVE SMOOTH"
);
},
{
closed = 1;
nodes = (
"406 236 LINE",
"406 264 LINE",
"112 264 LINE",
"112 236 LINE"
);
}
);
width = 520;
},
{
anchors = (
{
name = aboveUC;
position = "{271, 678}";
}
);
layerId = master01;
paths = (
{
closed = 1;
nodes = (
"528 -219 OFFCURVE",
"562 -204 OFFCURVE",
"584 -187 CURVE",
"561 -140 LINE",
"546 -151 OFFCURVE",
"530 -157 OFFCURVE",
"510 -157 CURVE SMOOTH",
"481 -157 OFFCURVE",
"456 -142 OFFCURVE",
"456 -107 CURVE SMOOTH",
"456 -66 OFFCURVE",
"493 -21 OFFCURVE",
"541 0 CURVE",
"319 656 LINE",
"225 656 LINE",
"3 0 LINE",
"88 0 LINE",
"203 367 LINE SMOOTH",
"227 440 OFFCURVE",
"248 512 OFFCURVE",
"268 588 CURVE",
"272 588 LINE",
"293 512 OFFCURVE",
"314 440 OFFCURVE",
"338 367 CURVE SMOOTH",
"452 0 LINE",
"468 0 LINE",
"431 -24 OFFCURVE",
"388 -71 OFFCURVE",
"388 -127 CURVE SMOOTH",
"388 -189 OFFCURVE",
"436 -219 OFFCURVE",
"494 -219 CURVE SMOOTH"
);
},
{
closed = 1;
nodes = (
"422 200 LINE",
"422 267 LINE",
"119 267 LINE",
"119 200 LINE"
);
}
);
width = 543.552;
}
);
leftKerningGroup = A;
rightKerningGroup = A;
unicode = 0104;
},
{
glyphname = AE;
layers = (
{
anchors = (
{
name = aboveUC;
position = "{530, 672}";
}
);
layerId = "42B3044F-4D5A-45CA-9EB7-C1889731596B";
paths = (
{
closed = 1;
nodes = (
"158 0 LINE",
"308 348 LINE",
"330 400 OFFCURVE",
"352 460 OFFCURVE",
"376 522 CURVE",
"380 522 LINE",
"380 0 LINE",
"800 0 LINE",
"800 144 LINE",
"552 144 LINE",
"552 260 LINE",
"754 260 LINE",
"754 404 LINE",
"552 404 LINE",
"552 506 LINE",
"790 506 LINE",
"790 650 LINE",
"274 650 LINE",
"-22 0 LINE"
);
},
{
closed = 1;
nodes = (
"468 132 LINE",
"468 265 LINE",
"130 265 LINE",
"130 132 LINE"
);
}
);
width = 854;
},
{
anchors = (
{
name = aboveUC;
position = "{580, 682}";
}
);
layerId = "0CAB57D4-4FC4-49C3-B456-FB7666EAA712";
paths = (
{
closed = 1;
nodes = (
"60 0 LINE",
"280 392 LINE",
"324 474 OFFCURVE",
"368 554 OFFCURVE",
"410 630 CURVE",
"414 630 LINE",
"414 0 LINE",
"758 0 LINE",
"758 28 LINE",
"446 28 LINE",
"446 338 LINE",
"696 338 LINE",
"696 366 LINE",
"446 366 LINE",
"446 632 LINE",
"748 632 LINE",
"748 660 LINE",
"398 660 LINE",
"26 0 LINE"
);
},
{
closed = 1;
nodes = (
"442 226 LINE",
"442 254 LINE",
"174 254 LINE",
"174 226 LINE"
);
}
);
width = 804;
},
{
anchors = (
{
name = aboveUC;
position = "{562, 678}";
}
);
layerId = master01;
paths = (
{
closed = 1;
nodes = (
"96 0 LINE",
"290 376 LINE",
"326 447 OFFCURVE",
"362 519 OFFCURVE",
"397 590 CURVE",
"401 590 LINE",
"401 0 LINE",
"773 0 LINE",
"773 71 LINE",
"485 71 LINE",
"485 309 LINE",
"717 309 LINE",
"717 380 LINE",
"485 380 LINE",
"485 586 LINE",
"763 586 LINE",
"763 656 LINE",
"352 656 LINE",
"8 0 LINE"
);
},
{
closed = 1;
nodes = (
"452 191 LINE",
"452 258 LINE",
"158 258 LINE",
"158 191 LINE"
);
}
);
width = 822.4;
}
);
leftKerningGroup = AE;
rightKerningGroup = E;
unicode = 00C6;
},
{
color = (255,255,0,255);
glyphname = B;
layers = (
{
anchors = (
{
name = aboveUC;
position = "{310, 672}";
},
{
name = belowLC;
position = "{320, -22}";
}
);
layerId = "42B3044F-4D5A-45CA-9EB7-C1889731596B";
paths = (
{
closed = 1;
nodes = (
"326 0 LINE SMOOTH",
"466 0 OFFCURVE",
"582 60 OFFCURVE",
"582 200 CURVE SMOOTH",
"582 282 OFFCURVE",
"540 326 OFFCURVE",
"470 344 CURVE",
"470 348 LINE",
"522 368 OFFCURVE",
"552 424 OFFCURVE",
"552 488 CURVE SMOOTH",
"552 616 OFFCURVE",
"442 650 OFFCURVE",
"306 650 CURVE SMOOTH",
"72 650 LINE",
"72 0 LINE"
);
},
{
closed = 1;
nodes = (
"244 518 LINE",
"302 518 LINE SMOOTH",
"358 518 OFFCURVE",
"384 502 OFFCURVE",
"384 462 CURVE SMOOTH",
"384 422 OFFCURVE",
"358 396 OFFCURVE",
"302 396 CURVE SMOOTH",
"244 396 LINE"
);
},
{
closed = 1;
nodes = (
"244 270 LINE",
"314 270 LINE SMOOTH",
"382 270 OFFCURVE",
"414 252 OFFCURVE",
"414 204 CURVE SMOOTH",
"414 156 OFFCURVE",
"382 132 OFFCURVE",
"314 132 CURVE SMOOTH",
"244 132 LINE"
);
}
);
width = 612;
},
{
anchors = (
{
name = aboveUC;
position = "{280, 682}";
},
{
name = belowLC;
position = "{290, -22}";
}
);
layerId = "0CAB57D4-4FC4-49C3-B456-FB7666EAA712";
paths = (
{
closed = 1;
nodes = (
"284 0 LINE SMOOTH",
"434 0 OFFCURVE",
"528 66 OFFCURVE",
"528 192 CURVE SMOOTH",
"528 284 OFFCURVE",
"470 338 OFFCURVE",
"382 352 CURVE",
"382 356 LINE",
"450 376 OFFCURVE",
"486 430 OFFCURVE",
"486 500 CURVE SMOOTH",
"486 608 OFFCURVE",
"404 660 OFFCURVE",
"272 660 CURVE SMOOTH",
"100 660 LINE",
"100 0 LINE"
);
},
{
closed = 1;
nodes = (
"132 632 LINE",
"258 632 LINE SMOOTH",
"386 632 OFFCURVE",
"454 596 OFFCURVE",
"454 498 CURVE SMOOTH",
"454 416 OFFCURVE",
"396 366 OFFCURVE",
"252 366 CURVE SMOOTH",
"132 366 LINE"
);
},
{
closed = 1;
nodes = (
"132 338 LINE",
"272 338 LINE SMOOTH",
"414 338 OFFCURVE",
"496 290 OFFCURVE",
"496 190 CURVE SMOOTH",
"496 78 OFFCURVE",
"410 28 OFFCURVE",
"272 28 CURVE SMOOTH",
"132 28 LINE"
);
}
);
width = 574;
},
{
anchors = (
{
name = aboveUC;
position = "{291, 678}";
},
{
name = belowLC;
position = "{301, -22}";
}
);
layerId = master01;
paths = (
{
closed = 1;
nodes = (
"299 0 LINE SMOOTH",
"446 0 OFFCURVE",
"548 64 OFFCURVE",
"548 195 CURVE SMOOTH",
"548 283 OFFCURVE",
"496 334 OFFCURVE",
"414 349 CURVE",
"414 353 LINE",
"476 373 OFFCURVE",
"510 428 OFFCURVE",
"510 496 CURVE SMOOTH",
"510 611 OFFCURVE",
"418 656 OFFCURVE",
"285 656 CURVE SMOOTH",
"90 656 LINE",
"90 0 LINE"
);
},
{
closed = 1;
nodes = (
"173 590 LINE",
"274 590 LINE SMOOTH",
"376 590 OFFCURVE",
"428 561 OFFCURVE",
"428 485 CURVE SMOOTH",
"428 418 OFFCURVE",
"382 377 OFFCURVE",
"270 377 CURVE SMOOTH",
"173 377 LINE"
);
},
{
closed = 1;
nodes = (
"173 313 LINE",
"287 313 LINE SMOOTH",
"402 313 OFFCURVE",
"466 276 OFFCURVE",
"466 195 CURVE SMOOTH",
"466 107 OFFCURVE",
"400 66 OFFCURVE",
"287 66 CURVE SMOOTH",
"173 66 LINE"
);
}
);
width = 587.984;
}
);
leftKerningGroup = H;
rightKerningGroup = B;
unicode = 0042;
},
{
glyphname = C;
layers = (
{
anchors = (
{
name = aboveUC;
position = "{350, 672}";
},
{
name = aboverightUC;
position = "{500, 672}";
},
{
name = baseLC;
position = "{350, 0}";
},
{
name = belowLC;
position = "{350, -22}";
}
);
layerId = "42B3044F-4D5A-45CA-9EB7-C1889731596B";
paths = (
{
closed = 1;
nodes = (
"438 -12 OFFCURVE",
"508 18 OFFCURVE",
"566 82 CURVE",
"480 184 LINE",
"454 158 OFFCURVE",
"416 136 OFFCURVE",
"370 136 CURVE SMOOTH",
"281 136 OFFCURVE",
"220 204 OFFCURVE",
"220 326 CURVE SMOOTH",
"220 442 OFFCURVE",
"288 514 OFFCURVE",
"362 514 CURVE SMOOTH",
"406 514 OFFCURVE",
"438 500 OFFCURVE",
"470 472 CURVE",
"560 576 LINE",
"514 624 OFFCURVE",
"444 662 OFFCURVE",
"358 662 CURVE SMOOTH",
"194 662 OFFCURVE",
"44 538 OFFCURVE",
"44 320 CURVE SMOOTH",
"44 98 OFFCURVE",
"190 -12 OFFCURVE",
"358 -12 CURVE SMOOTH"
);
}
);
width = 586;
},
{
anchors = (
{
name = aboveUC;
position = "{320, 682}";
},
{
name = aboverightUC;
position = "{460, 682}";
},
{
name = baseLC;
position = "{340, 0}";
},
{
name = belowLC;
position = "{340, -22}";
}
);
layerId = "0CAB57D4-4FC4-49C3-B456-FB7666EAA712";
paths = (
{
closed = 1;
nodes = (
"416 -12 OFFCURVE",
"472 24 OFFCURVE",
"522 82 CURVE",
"503 99 LINE",
"453 43 OFFCURVE",
"400 18 OFFCURVE",
"330 18 CURVE SMOOTH",
"182 18 OFFCURVE",
"90 142 OFFCURVE",
"90 332 CURVE SMOOTH",
"90 522 OFFCURVE",
"182 642 OFFCURVE",
"334 642 CURVE SMOOTH",
"394 642 OFFCURVE",
"446 616 OFFCURVE",
"482 574 CURVE",
"502 594 LINE",
"468 636 OFFCURVE",
"408 672 OFFCURVE",
"334 672 CURVE SMOOTH",
"166 672 OFFCURVE",
"56 540 OFFCURVE",
"56 332 CURVE SMOOTH",
"56 124 OFFCURVE",
"166 -12 OFFCURVE",
"328 -12 CURVE SMOOTH"
);
}
);
width = 562;
},
{
anchors = (
{
name = aboveUC;
position = "{331, 678}";
},
{
name = aboverightUC;
position = "{475, 678}";
},
{
name = baseLC;
position = "{344, 0}";
},
{
name = belowLC;
position = "{344, -22}";
}
);
layerId = master01;
paths = (
{
closed = 1;
nodes = (
"424 -12 OFFCURVE",
"485 22 OFFCURVE",
"538 82 CURVE",
"495 130 LINE",
"453 85 OFFCURVE",
"406 61 OFFCURVE",
"345 61 CURVE SMOOTH",
"218 61 OFFCURVE",
"138 165 OFFCURVE",
"138 330 CURVE SMOOTH",
"138 493 OFFCURVE",
"221 595 OFFCURVE",
"344 595 CURVE SMOOTH",
"398 595 OFFCURVE",
"443 573 OFFCURVE",
"478 536 CURVE",
"523 587 LINE",
"485 632 OFFCURVE",
"421 668 OFFCURVE",
"343 668 CURVE SMOOTH",
"176 668 OFFCURVE",
"52 539 OFFCURVE",
"52 328 CURVE SMOOTH",
"52 114 OFFCURVE",
"175 -12 OFFCURVE",
"339 -12 CURVE SMOOTH"
);
}
);
width = 570.832;
}
);
leftKerningGroup = O;
rightKerningGroup = C;
unicode = 0043;
},
{
glyphname = D;
layers = (
{
anchors = (
{
name = aboveUC;
position = "{330, 672}";
},
{
name = belowLC;
position = "{320, -22}";
}
);
layerId = "42B3044F-4D5A-45CA-9EB7-C1889731596B";
paths = (
{
closed = 1;
nodes = (
"274 0 LINE SMOOTH",
"462 0 OFFCURVE",
"598 98 OFFCURVE",
"598 328 CURVE SMOOTH",
"598 558 OFFCURVE",
"462 650 OFFCURVE",
"264 650 CURVE SMOOTH",
"72 650 LINE",
"72 0 LINE"
);
},
{
closed = 1;
nodes = (
"244 512 LINE",
"254 512 LINE SMOOTH",
"348 512 OFFCURVE",
"422 480 OFFCURVE",
"422 328 CURVE SMOOTH",
"422 176 OFFCURVE",
"348 138 OFFCURVE",
"254 138 CURVE SMOOTH",
"244 138 LINE"
);
}
);
width = 642;
},
{
anchors = (
{
name = aboveUC;
position = "{300, 682}";
},
{
name = belowLC;
position = "{290, -22}";
}
);
layerId = "0CAB57D4-4FC4-49C3-B456-FB7666EAA712";
paths = (
{
closed = 1;
nodes = (
"248 0 LINE SMOOTH",
"452 0 OFFCURVE",
"544 136 OFFCURVE",
"544 332 CURVE SMOOTH",
"544 528 OFFCURVE",
"452 660 OFFCURVE",
"248 660 CURVE SMOOTH",
"100 660 LINE",
"100 0 LINE"
);
},
{
closed = 1;
nodes = (
"132 632 LINE",
"244 632 LINE SMOOTH",
"432 632 OFFCURVE",
"510 506 OFFCURVE",
"510 332 CURVE SMOOTH",
"510 158 OFFCURVE",
"432 28 OFFCURVE",
"244 28 CURVE SMOOTH",
"132 28 LINE"
);
}
);
width = 600;
},
{
anchors = (
{
name = aboveUC;
position = "{311, 678}";
},
{
name = belowLC;
position = "{301, -22}";
}
);
layerId = master01;
paths = (
{
closed = 1;
nodes = (
"258 0 LINE SMOOTH",
"456 0 OFFCURVE",
"564 122 OFFCURVE",
"564 331 CURVE SMOOTH",
"564 539 OFFCURVE",
"456 656 OFFCURVE",
"254 656 CURVE SMOOTH",
"90 656 LINE",
"90 0 LINE"
);
},
{
closed = 1;
nodes = (
"173 588 LINE",
"248 588 LINE SMOOTH",
"401 588 OFFCURVE",
"478 496 OFFCURVE",
"478 331 CURVE SMOOTH",
"478 165 OFFCURVE",
"401 68 OFFCURVE",
"248 68 CURVE SMOOTH",
"173 68 LINE"
);
}
);
width = 615.456;
}
);
leftKerningGroup = H;
rightKerningGroup = O;
unicode = 0044;
},
{
glyphname = Eth;
layers = (
{
anchors = (
{
name = aboveUC;
position = "{350, 672}";
},
{
name = belowLC;
position = "{340, -22}";
}
);
components = (
{
name = D;
transform = "{1, 0, 0, 1, 20, 0}";
}
);
layerId = "42B3044F-4D5A-45CA-9EB7-C1889731596B";
paths = (
{
closed = 1;
nodes = (
"380 278 LINE",
"380 390 LINE",
"94 390 LINE",
"22 384 LINE",
"22 278 LINE"
);
}
);
width = 662;
},
{
anchors = (
{
name = aboveUC;
position = "{320, 682}";
},
{
name = belowLC;
position = "{310, -22}";
}
);
components = (
{
name = D;
transform = "{1, 0, 0, 1, 20, 0}";
}
);
layerId = "0CAB57D4-4FC4-49C3-B456-FB7666EAA712";
paths = (
{
closed = 1;
nodes = (
"320 338 LINE",
"320 366 LINE",
"122 366 LINE",
"22 362 LINE",
"22 338 LINE"
);
}
);
width = 620;
},
{
anchors = (
{
name = aboveUC;
position = "{331, 678}";
},
{
name = belowLC;
position = "{321, -22}";
}
);
components = (
{
alignment = -1;
name = D;
transform = "{1, 0, 0, 1, 20, 0}";
}
);
layerId = master01;
paths = (
{
closed = 1;
nodes = (
"342 316 LINE",
"342 375 LINE",
"112 375 LINE",
"22 370 LINE",
"22 316 LINE"
);
}
);
width = 635.456;
}
);
leftKerningGroup = DCROAT;
rightKerningGroup = O;
unicode = 00D0;
},
{
glyphname = E;
layers = (
{
anchors = (
{
name = aboveUC;
position = "{290, 672}";
},
{
name = baseLC;
position = "{300, 0}";
},
{
name = belowLC;
position = "{300, -22}";
},
{
name = ogonekUC;
position = "{406, 0}";
}
);
layerId = "42B3044F-4D5A-45CA-9EB7-C1889731596B";
paths = (
{
closed = 1;
nodes = (
"502 0 LINE",
"502 144 LINE",
"244 144 LINE",
"244 260 LINE",
"456 260 LINE",
"456 404 LINE",
"244 404 LINE",
"244 506 LINE",
"492 506 LINE",
"492 650 LINE",
"72 650 LINE",
"72 0 LINE"
);
}
);
width = 556;
},
{
anchors = (
{
name = aboveUC;
position = "{290, 682}";
},
{
name = baseLC;
position = "{300, 0}";
},
{
name = belowLC;
position = "{300, -22}";
},
{
name = ogonekUC;
position = "{404, 0}";
}
);
layerId = "0CAB57D4-4FC4-49C3-B456-FB7666EAA712";
paths = (
{
closed = 1;
nodes = (
"464 0 LINE",
"464 28 LINE",
"132 28 LINE",
"132 338 LINE",
"402 338 LINE",
"402 366 LINE",
"132 366 LINE",
"132 632 LINE",
"454 632 LINE",
"454 660 LINE",
"100 660 LINE",
"100 0 LINE"
);
}
);
width = 510;
},
{
anchors = (
{
name = aboveUC;
position = "{290, 678}";
},
{
name = baseLC;
position = "{300, 0}";
},
{
name = belowLC;
position = "{300, -22}";
},
{
name = ogonekUC;
position = "{405, 0}";
}
);
layerId = master01;
paths = (
{
closed = 1;
nodes = (
"478 0 LINE",
"478 71 LINE",
"173 71 LINE",
"173 309 LINE",
"422 309 LINE",
"422 380 LINE",
"173 380 LINE",
"173 586 LINE",
"468 586 LINE",
"468 656 LINE",
"90 656 LINE",
"90 0 LINE"
);
}
);
width = 526.928;
}
);
leftKerningGroup = H;
rightKerningGroup = E;
unicode = 0045;
},
{
glyphname = Eogonek;
layers = (
{
anchors = (
{
name = aboveUC;
position = "{290, 672}";
},
{
name = belowLC;
position = "{300, -222}";
}
);
guideLines = (
{
position = "{502, 0}";
}
);
layerId = "42B3044F-4D5A-45CA-9EB7-C1889731596B";
paths = (
{
closed = 1;
nodes = (
"446 -228 OFFCURVE",
"496 -212 OFFCURVE",
"526 -190 CURVE",
"488 -94 LINE",
"478 -100 OFFCURVE",
"462 -108 OFFCURVE",
"446 -108 CURVE SMOOTH",
"420 -108 OFFCURVE",
"404 -98 OFFCURVE",
"404 -74 CURVE SMOOTH",
"404 -41 OFFCURVE",
"442 0 OFFCURVE",
"488 0 CURVE SMOOTH",
"502 0 LINE",
"502 144 LINE",
"244 144 LINE",
"244 260 LINE",
"456 260 LINE",
"456 404 LINE",
"244 404 LINE",
"244 506 LINE",
"492 506 LINE",
"492 650 LINE",
"72 650 LINE",
"72 0 LINE",
"350 0 LINE",
"314 -20 OFFCURVE",
"270 -66 OFFCURVE",
"270 -126 CURVE SMOOTH",
"270 -190 OFFCURVE",
"330 -228 OFFCURVE",
"406 -228 CURVE SMOOTH"
);
}
);
userData = {
com.typemytype.robofont.guideline.magnetic.yIkjezyuWv = 5;
};
width = 556;
},
{
anchors = (
{
name = aboveUC;
position = "{290, 682}";
},
{
name = belowLC;
position = "{300, -222}";
}
);
layerId = "0CAB57D4-4FC4-49C3-B456-FB7666EAA712";
paths = (
{
closed = 1;
nodes = (
"446 -214 OFFCURVE",
"472 -200 OFFCURVE",
"488 -186 CURVE",
"474 -166 LINE",
"456 -180 OFFCURVE",
"440 -186 OFFCURVE",
"418 -186 CURVE SMOOTH",
"388 -186 OFFCURVE",
"358 -168 OFFCURVE",
"358 -126 CURVE SMOOTH",
"358 -64 OFFCURVE",
"426 0 OFFCURVE",
"462 0 CURVE SMOOTH",
"464 0 LINE",
"464 28 LINE",
"132 28 LINE",
"132 338 LINE",
"402 338 LINE",
"402 366 LINE",
"132 366 LINE",
"132 632 LINE",
"454 632 LINE",
"454 660 LINE",
"100 660 LINE",
"100 0 LINE",
"408 0 LINE",
"364 -28 OFFCURVE",
"328 -74 OFFCURVE",
"328 -128 CURVE SMOOTH",
"328 -188 OFFCURVE",
"368 -214 OFFCURVE",
"416 -214 CURVE SMOOTH"
);
}
);
width = 510;
},
{
anchors = (
{
name = aboveUC;
position = "{290, 678}";
},
{
name = belowLC;
position = "{300, -222}";
}
);
layerId = master01;
paths = (
{
closed = 1;
nodes = (
"446 -219 OFFCURVE",
"481 -204 OFFCURVE",
"502 -187 CURVE",
"479 -140 LINE",
"464 -151 OFFCURVE",
"448 -157 OFFCURVE",
"428 -157 CURVE SMOOTH",
"400 -157 OFFCURVE",
"375 -142 OFFCURVE",
"375 -107 CURVE SMOOTH",
"375 -56 OFFCURVE",
"432 0 OFFCURVE",
"472 0 CURVE SMOOTH",
"478 0 LINE",
"478 71 LINE",
"173 71 LINE",
"173 309 LINE",
"422 309 LINE",
"422 380 LINE",
"173 380 LINE",
"173 586 LINE",
"468 586 LINE",
"468 656 LINE",
"90 656 LINE",
"90 0 LINE",
"387 0 LINE",
"346 -25 OFFCURVE",
"307 -71 OFFCURVE",
"307 -127 CURVE SMOOTH",
"307 -189 OFFCURVE",
"354 -219 OFFCURVE",
"412 -219 CURVE SMOOTH"
);
}
);
width = 526.928;
}
);
leftKerningGroup = H;
rightKerningGroup = E;
unicode = 0118;
},
{
glyphname = F;
layers = (
{
anchors = (
{
name = aboveUC;
position = "{290, 672}";
},
{
name = belowLC;
position = "{168, -22}";
}
);
layerId = "42B3044F-4D5A-45CA-9EB7-C1889731596B";
paths = (
{
closed = 1;
nodes = (
"244 0 LINE",
"244 238 LINE",
"460 238 LINE",
"460 382 LINE",
"244 382 LINE",
"244 506 LINE",
"496 506 LINE",
"496 650 LINE",
"72 650 LINE",
"72 0 LINE"
);
}
);
width = 536;
},
{
anchors = (
{
name = aboveUC;
position = "{284, 682}";
},
{
name = belowLC;
position = "{116, -22}";
}
);
layerId = "0CAB57D4-4FC4-49C3-B456-FB7666EAA712";
paths = (
{
closed = 1;
nodes = (
"132 0 LINE",
"132 326 LINE",
"402 326 LINE",
"402 354 LINE",
"132 354 LINE",
"132 632 LINE",
"452 632 LINE",
"452 660 LINE",
"100 660 LINE",
"100 0 LINE"
);
}
);
width = 470;
},
{
anchors = (
{
name = aboveUC;
position = "{286, 678}";
},
{
name = belowLC;
position = "{135, -22}";
}
);
layerId = master01;
paths = (
{
closed = 1;
nodes = (
"173 0 LINE",
"173 294 LINE",
"423 294 LINE",
"423 364 LINE",
"173 364 LINE",
"173 586 LINE",
"468 586 LINE",
"468 656 LINE",
"90 656 LINE",
"90 0 LINE"
);
}
);
width = 494.288;
}
);
leftKerningGroup = H;
rightKerningGroup = F;
unicode = 0046;
},
{
glyphname = G;
layers = (
{
anchors = (
{
name = aboveUC;
position = "{370, 672}";
},
{
name = belowLC;
position = "{370, -22}";
}
);
layerId = "42B3044F-4D5A-45CA-9EB7-C1889731596B";
paths = (
{
closed = 1;
nodes = (
"464 -12 OFFCURVE",
"546 24 OFFCURVE",
"592 68 CURVE",
"592 378 LINE",
"344 378 LINE",
"344 238 LINE",
"440 238 LINE",
"440 148 LINE",
"428 140 OFFCURVE",
"408 136 OFFCURVE",
"390 136 CURVE SMOOTH",
"274 136 OFFCURVE",
"220 204 OFFCURVE",
"220 326 CURVE SMOOTH",
"220 444 OFFCURVE",
"286 514 OFFCURVE",
"374 514 CURVE SMOOTH",
"426 514 OFFCURVE",
"458 500 OFFCURVE",
"490 472 CURVE",
"580 576 LINE",
"534 624 OFFCURVE",
"464 662 OFFCURVE",
"368 662 CURVE SMOOTH",
"194 662 OFFCURVE",
"44 538 OFFCURVE",
"44 320 CURVE SMOOTH",
"44 98 OFFCURVE",
"190 -12 OFFCURVE",
"372 -12 CURVE SMOOTH"
);
}
);
width = 646;
},
{
anchors = (
{
name = aboveUC;
position = "{340, 682}";
},
{
name = belowLC;
position = "{340, -22}";
}
);
layerId = "0CAB57D4-4FC4-49C3-B456-FB7666EAA712";
paths = (
{
closed = 1;
nodes = (
"420 -12 OFFCURVE",
"486 18 OFFCURVE",
"526 62 CURVE",
"526 318 LINE",
"330 318 LINE",
"330 290 LINE",
"494 290 LINE",
"494 72 LINE",
"460 38 OFFCURVE",
"400 18 OFFCURVE",
"336 18 CURVE SMOOTH",
"182 18 OFFCURVE",
"90 142 OFFCURVE",
"90 332 CURVE SMOOTH",
"90 522 OFFCURVE",
"186 642 OFFCURVE",
"344 642 CURVE SMOOTH",
"418 642 OFFCURVE",
"466 610 OFFCURVE",
"500 572 CURVE",
"520 594 LINE",
"486 630 OFFCURVE",
"432 672 OFFCURVE",
"344 672 CURVE SMOOTH",
"170 672 OFFCURVE",
"56 540 OFFCURVE",
"56 332 CURVE SMOOTH",
"56 124 OFFCURVE",
"166 -12 OFFCURVE",
"334 -12 CURVE SMOOTH"
);
}
);
width = 600;
},
{
anchors = (
{
name = aboveUC;
position = "{351, 678}";
},
{
name = belowLC;
position = "{351, -22}";
}
);
layerId = master01;
paths = (
{
closed = 1;
nodes = (
"436 -12 OFFCURVE",
"508 20 OFFCURVE",
"550 64 CURVE",
"550 340 LINE",
"335 340 LINE",
"335 271 LINE",
"474 271 LINE",
"474 100 LINE",
"448 76 OFFCURVE",
"403 61 OFFCURVE",
"356 61 CURVE SMOOTH",
"216 61 OFFCURVE",
"138 165 OFFCURVE",
"138 330 CURVE SMOOTH",
"138 493 OFFCURVE",
"223 595 OFFCURVE",
"355 595 CURVE SMOOTH",
"421 595 OFFCURVE",
"463 570 OFFCURVE",
"496 535 CURVE",
"542 587 LINE",
"504 628 OFFCURVE",
"444 668 OFFCURVE",
"353 668 CURVE SMOOTH",
"179 668 OFFCURVE",
"52 539 OFFCURVE",
"52 328 CURVE SMOOTH",
"52 114 OFFCURVE",
"175 -12 OFFCURVE",
"348 -12 CURVE SMOOTH"
);
}
);
width = 616.928;
}
);
leftKerningGroup = O;
rightKerningGroup = G;
unicode = 0047;
},
{
glyphname = Glottalstop;
layers = (
{
anchors = (
{
name = aboveUC;
position = "{270, 672}";
},
{
name = belowLC;
position = "{240, -22}";
}
);
layerId = "42B3044F-4D5A-45CA-9EB7-C1889731596B";
paths = (
{
closed = 1;
nodes = (
"334 0 LINE",
"334 192 LINE",
"428 242 OFFCURVE",
"508 328 OFFCURVE",
"508 446 CURVE SMOOTH",
"508 590 OFFCURVE",
"383 662 OFFCURVE",
"244 662 CURVE SMOOTH",
"148 662 OFFCURVE",
"62 620 OFFCURVE",
"0 560 CURVE",
"86 450 LINE",
"130 488 OFFCURVE",
"187 514 OFFCURVE",
"228 514 CURVE SMOOTH",
"288 514 OFFCURVE",
"332 486 OFFCURVE",
"332 430 CURVE SMOOTH",
"332 368 OFFCURVE",
"286 316 OFFCURVE",
"162 266 CURVE",
"162 0 LINE"
);
}
);
width = 550;
},
{
anchors = (
{
name = aboveUC;
position = "{220, 682}";
},
{
name = belowLC;
position = "{200, -22}";
}
);
layerId = "0CAB57D4-4FC4-49C3-B456-FB7666EAA712";
paths = (
{
closed = 1;
nodes = (
"216 0 LINE",
"216 258 LINE",
"345 308 OFFCURVE",
"418 382 OFFCURVE",
"418 492 CURVE SMOOTH",
"418 608 OFFCURVE",
"328 672 OFFCURVE",
"210 672 CURVE SMOOTH",
"112 672 OFFCURVE",
"42 628 OFFCURVE",
"0 586 CURVE",
"22 564 LINE",
"62 604 OFFCURVE",
"128 642 OFFCURVE",
"212 642 CURVE SMOOTH",
"322 642 OFFCURVE",
"384 582 OFFCURVE",
"384 494 CURVE SMOOTH",
"384 400 OFFCURVE",
"330 330 OFFCURVE",
"184 278 CURVE",
"184 0 LINE"
);
}
);
width = 442;
},
{
anchors = (
{
name = aboveUC;
position = "{238, 678}";
},
{
name = belowLC;
position = "{215, -22}";
}
);
layerId = master01;
paths = (
{
closed = 1;
nodes = (
"259 0 LINE",
"259 234 LINE",
"376 284 OFFCURVE",
"451 362 OFFCURVE",
"451 475 CURVE SMOOTH",
"451 601 OFFCURVE",
"348 668 OFFCURVE",
"223 668 CURVE SMOOTH",
"125 668 OFFCURVE",
"49 625 OFFCURVE",
"0 576 CURVE",
"46 522 LINE",
"87 561 OFFCURVE",
"150 595 OFFCURVE",
"218 595 CURVE SMOOTH",
"309 595 OFFCURVE",
"365 547 OFFCURVE",
"365 470 CURVE SMOOTH",
"365 388 OFFCURVE",
"314 325 OFFCURVE",
"176 274 CURVE",
"176 0 LINE"
);
}
);
width = 481.744;
}
);
rightKerningGroup = P;
unicode = 0241;
},
{
glyphname = H;
layers = (
{
anchors = (
{
name = aboveUC;
position = "{340, 672}";
},
{
name = belowLC;
position = "{340, -22}";
}
);
layerId = "42B3044F-4D5A-45CA-9EB7-C1889731596B";
paths = (
{
closed = 1;
nodes = (
"244 0 LINE",
"244 258 LINE",
"438 258 LINE",
"438 0 LINE",
"610 0 LINE",
"610 650 LINE",
"438 650 LINE",
"438 408 LINE",
"244 408 LINE",
"244 650 LINE",
"72 650 LINE",
"72 0 LINE"
);
}
);
width = 682;
},
{
anchors = (
{
name = aboveUC;
position = "{316, 682}";
},
{
name = belowLC;
position = "{316, -22}";
}
);
layerId = "0CAB57D4-4FC4-49C3-B456-FB7666EAA712";
paths = (
{
closed = 1;
nodes = (
"132 0 LINE",
"132 338 LINE",
"502 338 LINE",
"502 0 LINE",
"534 0 LINE",
"534 660 LINE",
"502 660 LINE",
"502 366 LINE",
"132 366 LINE",
"132 660 LINE",
"100 660 LINE",
"100 0 LINE"
);
}
);
width = 634;
},
{
anchors = (
{
name = aboveUC;
position = "{325, 678}";
},
{
name = belowLC;
position = "{325, -22}";
}
);
layerId = master01;
paths = (
{
closed = 1;
nodes = (
"173 0 LINE",
"173 309 LINE",
"478 309 LINE",
"478 0 LINE",
"562 0 LINE",
"562 656 LINE",
"478 656 LINE",
"478 381 LINE",
"173 381 LINE",
"173 656 LINE",
"90 656 LINE",
"90 0 LINE"
);
}
);
width = 651.664;
}
);
leftKerningGroup = H;
rightKerningGroup = H;
unicode = 0048;
},
{
glyphname = Hbar;
layers = (
{
components = (
{
name = H;
transform = "{1, 0, 0, 1, 20, 0}";
}
);
layerId = "42B3044F-4D5A-45CA-9EB7-C1889731596B";
paths = (
{
closed = 1;
nodes = (
"700 470 LINE",
"700 582 LINE",
"98 582 LINE",
"22 576 LINE",
"22 470 LINE"
);
}
);
width = 722;
},
{
components = (
{
name = H;
transform = "{1, 0, 0, 1, 20, 0}";
}
);
layerId = "0CAB57D4-4FC4-49C3-B456-FB7666EAA712";
paths = (
{
closed = 1;
nodes = (
"648 496 LINE",
"648 524 LINE",
"122 524 LINE",
"22 520 LINE",
"22 496 LINE"
);
}
);
width = 674;
},
{
components = (
{
alignment = -1;
name = H;
transform = "{1, 0, 0, 1, 20, 0}";
}
);
layerId = master01;
paths = (
{
closed = 1;
nodes = (
"667 486 LINE",
"667 545 LINE",
"113 545 LINE",
"22 541 LINE",
"22 486 LINE"
);
}
);
width = 691.664;
}
);
leftKerningGroup = HBAR;
rightKerningGroup = HBAR;
unicode = 0126;
},
{
glyphname = I;
layers = (
{
anchors = (
{
name = aboveUC;
position = "{160, 672}";
},
{
name = belowLC;
position = "{160, -22}";
},
{
name = ogonekUC;
position = "{160, 0}";
}
);
layerId = "42B3044F-4D5A-45CA-9EB7-C1889731596B";
paths = (
{
closed = 1;
nodes = (
"244 0 LINE",
"244 650 LINE",
"72 650 LINE",
"72 0 LINE"
);
}
);
width = 316;
},
{
anchors = (
{
name = aboveUC;
position = "{116, 682}";
},
{
name = belowLC;
position = "{116, -22}";
},
{
name = ogonekUC;
position = "{110, 0}";
}
);
layerId = "0CAB57D4-4FC4-49C3-B456-FB7666EAA712";
paths = (
{
closed = 1;
nodes = (
"132 0 LINE",
"132 660 LINE",
"100 660 LINE",
"100 0 LINE"
);
}
);
width = 232;
},
{
anchors = (
{
name = aboveUC;
position = "{132, 678}";
},
{
name = belowLC;
position = "{132, -22}";
},
{
name = ogonekUC;
position = "{128, 0}";
}
);
layerId = master01;
paths = (
{
closed = 1;
nodes = (
"173 0 LINE",
"173 656 LINE",
"90 656 LINE",
"90 0 LINE"
);
}
);
width = 262.912;
}
);
leftKerningGroup = I;
rightKerningGroup = I;
unicode = 0049;
},
{
glyphname = IJ;
layers = (
{
layerId = "42B3044F-4D5A-45CA-9EB7-C1889731596B";
paths = (
{
closed = 1;
nodes = (
"244 0 LINE",
"244 650 LINE",
"72 650 LINE",
"72 0 LINE"
);
},
{
closed = 1;
nodes = (
"516 -188 OFFCURVE",
"560 -86 OFFCURVE",
"560 26 CURVE SMOOTH",
"560 650 LINE",
"388 650 LINE",
"388 20 LINE SMOOTH",
"388 -34 OFFCURVE",
"374 -54 OFFCURVE",
"338 -54 CURVE SMOOTH",
"326 -54 OFFCURVE",
"316 -52 OFFCURVE",
"302 -48 CURVE",
"272 -174 LINE",
"294 -182 OFFCURVE",
"320 -188 OFFCURVE",
"366 -188 CURVE SMOOTH"
);
}
);
width = 632;
},
{
layerId = "0CAB57D4-4FC4-49C3-B456-FB7666EAA712";
paths = (
{
closed = 1;
nodes = (
"132 0 LINE",
"132 660 LINE",
"100 660 LINE",
"100 0 LINE"
);
},
{
closed = 1;
nodes = (
"330 -152 OFFCURVE",
"364 -112 OFFCURVE",
"364 -20 CURVE SMOOTH",
"364 660 LINE",
"332 660 LINE",
"332 -12 LINE SMOOTH",
"332 -74 OFFCURVE",
"322 -120 OFFCURVE",
"266 -120 CURVE SMOOTH",
"246 -120 OFFCURVE",
"226 -114 OFFCURVE",
"214 -110 CURVE",
"206 -140 LINE",
"220 -146 OFFCURVE",
"244 -152 OFFCURVE",
"264 -152 CURVE SMOOTH"
);
}
);
width = 464;
},
{
layerId = master01;
paths = (
{
closed = 1;
nodes = (
"173 0 LINE",
"173 656 LINE",
"90 656 LINE",
"90 0 LINE"
);
},
{
closed = 1;
nodes = (
"398 -165 OFFCURVE",
"436 -102 OFFCURVE",
"436 -3 CURVE SMOOTH",
"436 656 LINE",
"353 656 LINE",
"353 0 LINE SMOOTH",
"353 -59 OFFCURVE",
"341 -96 OFFCURVE",
"292 -96 CURVE SMOOTH",
"275 -96 OFFCURVE",
"259 -91 OFFCURVE",
"246 -87 CURVE",
"230 -153 LINE",
"247 -159 OFFCURVE",
"272 -165 OFFCURVE",
"302 -165 CURVE SMOOTH"
);
}
);
width = 525.824;
}
);
leftKerningGroup = I;
rightKerningGroup = I;
unicode = 0132;
},
{
glyphname = Iogonek;
layers = (
{
anchors = (
{
name = aboveUC;
position = "{160, 672}";
}
);
layerId = "42B3044F-4D5A-45CA-9EB7-C1889731596B";
paths = (
{
closed = 1;
nodes = (
"208 -228 OFFCURVE",
"258 -212 OFFCURVE",
"288 -190 CURVE",
"250 -94 LINE",
"240 -100 OFFCURVE",
"224 -108 OFFCURVE",
"208 -108 CURVE SMOOTH",
"182 -108 OFFCURVE",
"166 -98 OFFCURVE",
"166 -74 CURVE SMOOTH",
"166 -46 OFFCURVE",
"187 -18 OFFCURVE",
"244 0 CURVE",
"244 650 LINE",
"72 650 LINE",
"72 0 LINE",
"112 0 LINE",
"76 -20 OFFCURVE",
"32 -66 OFFCURVE",
"32 -126 CURVE SMOOTH",
"32 -190 OFFCURVE",
"92 -228 OFFCURVE",
"168 -228 CURVE SMOOTH"
);
}
);
width = 316;
},
{
anchors = (
{
name = aboveUC;
position = "{116, 682}";
}
);
layerId = "0CAB57D4-4FC4-49C3-B456-FB7666EAA712";
paths = (
{
closed = 1;
nodes = (
"152 -214 OFFCURVE",
"178 -200 OFFCURVE",
"194 -186 CURVE",
"180 -166 LINE",
"162 -180 OFFCURVE",
"146 -186 OFFCURVE",
"124 -186 CURVE SMOOTH",
"94 -186 OFFCURVE",
"64 -168 OFFCURVE",
"64 -126 CURVE SMOOTH",
"64 -82 OFFCURVE",
"98 -38 OFFCURVE",
"132 0 CURVE",
"132 660 LINE",
"100 660 LINE",
"100 0 LINE",
"104 0 LINE",
"68 -36 OFFCURVE",
"34 -78 OFFCURVE",
"34 -128 CURVE SMOOTH",
"34 -188 OFFCURVE",
"74 -214 OFFCURVE",
"122 -214 CURVE SMOOTH"
);
}
);
width = 232;
},
{
anchors = (
{
name = aboveUC;
position = "{132, 678}";
}
);
layerId = master01;
paths = (
{
closed = 1;
nodes = (
"173 -219 OFFCURVE",
"207 -204 OFFCURVE",
"229 -187 CURVE",
"206 -140 LINE",
"191 -151 OFFCURVE",
"175 -157 OFFCURVE",
"155 -157 CURVE SMOOTH",
"126 -157 OFFCURVE",
"102 -142 OFFCURVE",
"102 -107 CURVE SMOOTH",
"102 -69 OFFCURVE",
"131 -31 OFFCURVE",
"173 0 CURVE",
"173 656 LINE",
"90 656 LINE",
"90 0 LINE",
"107 0 LINE",
"71 -30 OFFCURVE",
"33 -74 OFFCURVE",
"33 -127 CURVE SMOOTH",
"33 -189 OFFCURVE",
"81 -219 OFFCURVE",
"139 -219 CURVE SMOOTH"
);
}
);
width = 262.912;
}
);
leftKerningGroup = I;
rightKerningGroup = I;
unicode = 012E;
},
{
glyphname = Istroke;
layers = (
{
anchors = (
{
name = aboveUC;
position = "{180, 672}";
},
{
name = belowLC;
position = "{180, -22}";
}
);
components = (
{
name = I;
transform = "{1, 0, 0, 1, 20, 0}";
}
);
layerId = "42B3044F-4D5A-45CA-9EB7-C1889731596B";
paths = (
{
closed = 1;
nodes = (
"334 278 LINE",
"334 390 LINE",
"98 390 LINE",
"22 384 LINE",
"22 278 LINE"
);
}
);
width = 356;
},
{
anchors = (
{
name = aboveUC;
position = "{136, 682}";
},
{
name = belowLC;
position = "{136, -22}";
}
);
components = (
{
name = I;
transform = "{1, 0, 0, 1, 20, 0}";
}
);
layerId = "0CAB57D4-4FC4-49C3-B456-FB7666EAA712";
paths = (
{
closed = 1;
nodes = (
"246 338 LINE",
"246 366 LINE",
"122 366 LINE",
"22 362 LINE",
"22 338 LINE"
);
}
);
width = 272;
},
{
anchors = (
{
name = aboveUC;
position = "{152, 678}";
},
{
name = belowLC;
position = "{152, -22}";
}
);
components = (
{
alignment = -1;
name = I;
transform = "{1, 0, 0, 1, 20, 0}";
}
);
layerId = master01;
paths = (
{
closed = 1;
nodes = (
"278 316 LINE",
"278 375 LINE",
"113 375 LINE",
"22 370 LINE",
"22 316 LINE"
);
}
);
width = 302.912;
}
);
leftKerningGroup = HBAR;
rightKerningGroup = HBAR;
unicode = 0197;
},
{
glyphname = J;
layers = (
{
anchors = (
{
name = aboveUC;
position = "{360, 672}";
},
{
name = belowLC;
position = "{270, -22}";
}
);
layerId = "42B3044F-4D5A-45CA-9EB7-C1889731596B";
paths = (
{
closed = 1;
nodes = (
"378 -12 OFFCURVE",
"452 98 OFFCURVE",
"452 232 CURVE SMOOTH",
"452 650 LINE",
"280 650 LINE",
"280 246 LINE SMOOTH",
"280 160 OFFCURVE",
"254 136 OFFCURVE",
"202 136 CURVE SMOOTH",
"170 136 OFFCURVE",
"138 156 OFFCURVE",
"122 188 CURVE",
"14 114 LINE",
"58 26 OFFCURVE",
"124 -12 OFFCURVE",
"220 -12 CURVE SMOOTH"
);
}
);
width = 520;
},
{
anchors = (
{
name = aboveUC;
position = "{338, 682}";
},
{
name = belowLC;
position = "{240, -22}";
}
);
layerId = "0CAB57D4-4FC4-49C3-B456-FB7666EAA712";
paths = (
{
closed = 1;
nodes = (
"316 -12 OFFCURVE",
"358 70 OFFCURVE",
"358 174 CURVE SMOOTH",
"358 660 LINE",
"326 660 LINE",
"326 178 LINE SMOOTH",
"326 68 OFFCURVE",
"286 18 OFFCURVE",
"202 18 CURVE SMOOTH",
"144 18 OFFCURVE",
"104 40 OFFCURVE",
"70 98 CURVE",
"44 82 LINE",
"76 22 OFFCURVE",
"130 -12 OFFCURVE",
"200 -12 CURVE SMOOTH"
);
}
);
width = 456;
},
{
anchors = (
{
name = aboveUC;
position = "{346, 678}";
},
{
name = belowLC;
position = "{251, -22}";
}
);
layerId = master01;
paths = (
{
closed = 1;
nodes = (
"339 -12 OFFCURVE",
"393 80 OFFCURVE",
"393 195 CURVE SMOOTH",
"393 656 LINE",
"309 656 LINE",
"309 203 LINE SMOOTH",
"309 102 OFFCURVE",
"274 61 OFFCURVE",
"202 61 CURVE SMOOTH",
"154 61 OFFCURVE",
"117 83 OFFCURVE",
"89 131 CURVE",
"33 94 LINE",
"69 23 OFFCURVE",
"128 -12 OFFCURVE",
"207 -12 CURVE SMOOTH"
);
}
);
width = 479.552;
}
);
leftKerningGroup = J;
rightKerningGroup = J;
unicode = 004A;
},
{
glyphname = Jstroke;
layers = (
{
anchors = (
{
name = aboveUC;
position = "{360, 672}";
},
{
name = belowLC;
position = "{270, -22}";
}
);
components = (
{
name = J;
}
);
layerId = "42B3044F-4D5A-45CA-9EB7-C1889731596B";
paths = (
{
closed = 1;
nodes = (
"522 318 LINE",
"522 430 LINE",
"282 430 LINE",
"166 424 LINE",
"166 318 LINE"
);
}
);
width = 540;
},
{
anchors = (
{
name = aboveUC;
position = "{338, 682}";
},
{
name = belowLC;
position = "{240, -22}";
}
);
components = (
{
name = J;
}
);
layerId = "0CAB57D4-4FC4-49C3-B456-FB7666EAA712";
paths = (
{
closed = 1;
nodes = (
"450 338 LINE",
"450 366 LINE",
"258 366 LINE",
"174 362 LINE",
"174 338 LINE"
);
}
);
width = 476;
},
{
anchors = (
{
name = aboveUC;
position = "{346, 678}";
},
{
name = belowLC;
position = "{251, -22}";
}
);
components = (
{
alignment = -1;
name = J;
}
);
layerId = master01;
paths = (
{
closed = 1;
nodes = (
"476 331 LINE",
"476 390 LINE",
"267 390 LINE",
"171 385 LINE",
"171 331 LINE"
);
}
);
width = 499.552;
}
);
leftKerningGroup = J;
rightKerningGroup = HBAR;
unicode = 0248;
},
{
glyphname = K;
layers = (
{
anchors = (
{
name = aboveUC;
position = "{322, 672}";
},
{
name = aboverightUC;
position = "{530, 672}";
},
{
name = belowLC;
position = "{334, -22}";
}
);
layerId = "42B3044F-4D5A-45CA-9EB7-C1889731596B";
paths = (
{
closed = 1;
nodes = (
"244 0 LINE",
"244 162 LINE",
"306 250 LINE",
"450 0 LINE",
"638 0 LINE",
"406 386 LINE",
"600 650 LINE",
"412 650 LINE",
"248 408 LINE",
"244 408 LINE",
"244 650 LINE",
"72 650 LINE",
"72 0 LINE"
);
}
);
width = 628;
},
{
anchors = (
{
name = aboveUC;
position = "{304, 682}";
},
{
name = aboverightUC;
position = "{500, 682}";
},
{
name = belowLC;
position = "{324, -22}";
}
);
layerId = "0CAB57D4-4FC4-49C3-B456-FB7666EAA712";
paths = (
{
closed = 1;
nodes = (
"132 0 LINE",
"132 234 LINE",
"274 394 LINE",
"500 0 LINE",
"538 0 LINE",
"298 418 LINE",
"510 660 LINE",
"470 660 LINE",
"134 280 LINE",
"132 280 LINE",
"132 660 LINE",
"100 660 LINE",
"100 0 LINE"
);
}
);
width = 550;
},
{
anchors = (
{
name = aboveUC;
position = "{311, 678}";
},
{
name = aboverightUC;
position = "{511, 678}";
},
{
name = belowLC;
position = "{328, -22}";
}
);
layerId = master01;
paths = (
{
closed = 1;
nodes = (
"173 0 LINE",
"173 208 LINE",
"286 341 LINE",
"482 0 LINE",
"575 0 LINE",
"338 406 LINE",
"543 656 LINE",
"449 656 LINE",
"176 327 LINE",
"173 327 LINE",
"173 656 LINE",
"90 656 LINE",
"90 0 LINE"
);
}
);
width = 578.704;
}
);
leftKerningGroup = H;
rightKerningGroup = K;
unicode = 004B;
},
{
glyphname = L;
layers = (
{
anchors = (
{
name = aboveUC;
position = "{160, 672}";
},
{
name = belowLC;
position = "{290, -22}";
},
{
name = center;
position = "{160, 350}";
}
);
layerId = "42B3044F-4D5A-45CA-9EB7-C1889731596B";
paths = (
{
closed = 1;
nodes = (
"490 0 LINE",
"490 144 LINE",
"244 144 LINE",
"244 650 LINE",
"72 650 LINE",
"72 0 LINE"
);
}
);
width = 530;
},
{
anchors = (
{
name = aboveUC;
position = "{120, 682}";
},
{
name = belowLC;
position = "{280, -22}";
},
{
name = center;
position = "{120, 360}";
}
);
layerId = "0CAB57D4-4FC4-49C3-B456-FB7666EAA712";
paths = (
{
closed = 1;
nodes = (
"442 0 LINE",
"442 28 LINE",
"132 28 LINE",
"132 660 LINE",
"100 660 LINE",
"100 0 LINE"
);
}
);
width = 460;
},
{
anchors = (
{
name = aboveUC;
position = "{135, 678}";
},
{
name = belowLC;
position = "{284, -22}";
},
{
name = center;
position = "{135, 356}";
}
);
layerId = master01;
paths = (
{
closed = 1;
nodes = (
"460 0 LINE",
"460 71 LINE",
"173 71 LINE",
"173 656 LINE",
"90 656 LINE",
"90 0 LINE"
);
}
);
width = 485.76;
}
);
leftKerningGroup = H;
rightKerningGroup = L;
unicode = 004C;
},
{
color = (102,255,204,255);
glyphname = Lslash;
layers = (
{
anchors = (
{
name = aboveUC;
position = "{190, 672}";
},
{
name = belowLC;
position = "{320, -22}";
}
);
components = (
{
name = L;
transform = "{1, 0, 0, 1, 30, 0}";
}
);
layerId = "42B3044F-4D5A-45CA-9EB7-C1889731596B";
paths = (
{
closed = 1;
nodes = (
"122 218 LINE",
"256 278 LINE",
"482 382 LINE",
"434 494 LINE",
"256 412 LINE",
"122 352 LINE",
"-18 288 LINE",
"30 176 LINE"
);
}
);
width = 560;
},
{
anchors = (
{
name = aboveUC;
position = "{130, 682}";
},
{
name = belowLC;
position = "{290, -22}";
}
);
components = (
{
name = L;
transform = "{1, 0, 0, 1, 10, 0}";
}
);
layerId = "0CAB57D4-4FC4-49C3-B456-FB7666EAA712";
paths = (
{
closed = 1;
nodes = (
"116 276 LINE",
"128 278 LINE",
"356 376 LINE",
"344 402 LINE",
"128 310 LINE",
"116 308 LINE",
"4 260 LINE",
"16 234 LINE"
);
}
);
width = 466;
},
{
anchors = (
{
name = aboveUC;
position = "{152, 678}";
},
{
name = belowLC;
position = "{301, -22}";
}
);
components = (
{
alignment = -1;
name = L;
transform = "{1, 0, 0, 1, 17, 0}";
}
);
layerId = master01;
paths = (
{
closed = 1;
nodes = (
"118 255 LINE",
"175 278 LINE",
"402 378 LINE",
"377 436 LINE",
"175 348 LINE",
"118 324 LINE",
"-4 270 LINE",
"21 213 LINE"
);
}
);
width = 500.592;
}
);
leftKerningGroup = LSLASH;
rightKerningGroup = L;
unicode = 0141;
},
{
glyphname = M;
layers = (
{
anchors = (
{
name = aboveUC;
position = "{390, 672}";
},
{
name = belowLC;
position = "{390, -22}";
}
);
layerId = "42B3044F-4D5A-45CA-9EB7-C1889731596B";
paths = (
{
closed = 1;
nodes = (
"226 0 LINE",
"226 192 LINE SMOOTH",
"226 258 OFFCURVE",
"212 378 OFFCURVE",
"204 444 CURVE",
"208 444 LINE",
"260 268 LINE",
"340 53 LINE",
"432 53 LINE",
"512 268 LINE",
"566 444 LINE",
"570 444 LINE",
"562 378 OFFCURVE",
"548 258 OFFCURVE",
"548 192 CURVE SMOOTH",
"548 0 LINE",
"704 0 LINE",
"704 650 LINE",
"520 650 LINE",
"426 384 LINE",
"414 348 OFFCURVE",
"404 308 OFFCURVE",
"392 270 CURVE",
"388 270 LINE",
"376 308 OFFCURVE",
"366 348 OFFCURVE",
"354 384 CURVE",
"256 650 LINE",
"72 650 LINE",
"72 0 LINE"
);
}
);
width = 776;
},
{
anchors = (
{
name = aboveUC;
position = "{350, 682}";
},
{
name = belowLC;
position = "{350, -22}";
}
);
layerId = "0CAB57D4-4FC4-49C3-B456-FB7666EAA712";
paths = (
{
closed = 1;
nodes = (
"130 0 LINE",
"130 460 LINE SMOOTH",
"130 512 OFFCURVE",
"128 578 OFFCURVE",
"126 632 CURVE",
"130 632 LINE",
"182 486 LINE",
"332 74 LINE",
"366 74 LINE",
"515 486 LINE",
"566 632 LINE",
"570 632 LINE",
"568 578 OFFCURVE",
"566 512 OFFCURVE",
"566 460 CURVE SMOOTH",
"566 0 LINE",
"598 0 LINE",
"598 660 LINE",
"546 660 LINE",
"404 260 LINE",
"386 210 OFFCURVE",
"370 160 OFFCURVE",
"352 110 CURVE",
"348 110 LINE",
"330 160 OFFCURVE",
"312 210 OFFCURVE",
"294 260 CURVE",
"152 660 LINE",
"100 660 LINE",
"100 0 LINE"
);
}
);
width = 698;
},
{
anchors = (
{
name = aboveUC;
position = "{365, 678}";
},
{
name = belowLC;
position = "{365, -22}";
}
);
layerId = master01;
paths = (
{
closed = 1;
nodes = (
"165 0 LINE",
"165 361 LINE SMOOTH",
"165 419 OFFCURVE",
"159 504 OFFCURVE",
"155 563 CURVE",
"159 563 LINE",
"211 406 LINE",
"335 66 LINE",
"390 66 LINE",
"514 406 LINE",
"566 563 LINE",
"570 563 LINE",
"566 504 OFFCURVE",
"559 419 OFFCURVE",
"559 361 CURVE SMOOTH",
"559 0 LINE",
"637.008 0 LINE",
"637 656 LINE",
"536 656 LINE",
"412 306 LINE",
"396 261 OFFCURVE",
"383 214 OFFCURVE",
"367 169 CURVE",
"363 169 LINE",
"347 214 OFFCURVE",
"332 261 OFFCURVE",
"316 306 CURVE",
"190 656 LINE",
"90 656 LINE",
"90 0 LINE"
);
}
);
width = 726.704;
}
);
leftKerningGroup = H;
rightKerningGroup = H;
unicode = 004D;
},
{
glyphname = N;
layers = (
{
anchors = (
{
name = aboveUC;
position = "{340, 672}";
},
{
name = belowLC;
position = "{350, -22}";
}
);
layerId = "42B3044F-4D5A-45CA-9EB7-C1889731596B";
paths = (
{
closed = 1;
nodes = (
"236 0 LINE",
"236 188 LINE SMOOTH",
"236 268 OFFCURVE",
"222 362 OFFCURVE",
"214 436 CURVE",
"218 436 LINE",
"238 386 OFFCURVE",
"258 334 OFFCURVE",
"280 290 CURVE SMOOTH",
"424 0 LINE",
"600 0 LINE",
"600 650 LINE",
"436 650 LINE",
"436 462 LINE SMOOTH",
"436 382 OFFCURVE",
"450 284 OFFCURVE",
"458 214 CURVE",
"454 214 LINE",
"434 264 OFFCURVE",
"414 316 OFFCURVE",
"392 360 CURVE SMOOTH",
"248 650 LINE",
"72 650 LINE",
"72 0 LINE"
);
}
);
width = 672;
},
{
anchors = (
{
name = aboveUC;
position = "{330, 682}";
},
{
name = belowLC;
position = "{320, -22}";
}
);
layerId = "0CAB57D4-4FC4-49C3-B456-FB7666EAA712";
paths = (
{
closed = 1;
nodes = (
"130 0 LINE",
"130 434 LINE SMOOTH",
"130 496 OFFCURVE",
"128 552 OFFCURVE",
"126 614 CURVE",
"130 614 LINE",
"154 572 OFFCURVE",
"180 528 OFFCURVE",
"206 484 CURVE SMOOTH",
"498 0 LINE",
"532 0 LINE",
"532 660 LINE",
"502 660 LINE",
"502 232 LINE SMOOTH",
"502 170 OFFCURVE",
"504 110 OFFCURVE",
"506 46 CURVE",
"502 46 LINE",
"478 88 OFFCURVE",
"452 132 OFFCURVE",
"426 176 CURVE SMOOTH",
"134 660 LINE",
"100 660 LINE",
"100 0 LINE"
);
}
);
width = 632;
},
{
anchors = (
{
name = aboveUC;
position = "{334, 678}";
},
{
name = belowLC;
position = "{331, -22}";
}
);
layerId = master01;
paths = (
{
closed = 1;
nodes = (
"169.008 0 LINE",
"169 343 LINE SMOOTH",
"169 412 OFFCURVE",
"163 482 OFFCURVE",
"158 548 CURVE",
"162 548 LINE",
"185 504 OFFCURVE",
"209 457 OFFCURVE",
"233 413 CURVE SMOOTH",
"471 0 LINE",
"557 0 LINE",
"557 656 LINE",
"478 656 LINE",
"478 317 LINE SMOOTH",
"478 248 OFFCURVE",
"484 174 OFFCURVE",
"488 108 CURVE",
"484 108 LINE",
"462 153 OFFCURVE",
"438 200 OFFCURVE",
"413 244 CURVE SMOOTH",
"176 656 LINE",
"90 656 LINE",
"90 0 LINE"
);
}
);
width = 646.72;
}
);
leftKerningGroup = H;
rightKerningGroup = H;
unicode = 004E;
},
{
glyphname = Eng;
layers = (
{
anchors = (
{
name = aboveUC;
position = "{370, 672}";
},
{
name = belowLC;
position = "{330, -22}";
}
);
layerId = "42B3044F-4D5A-45CA-9EB7-C1889731596B";
paths = (
{
closed = 1;
nodes = (
"569 -12 OFFCURVE",
"634 105 OFFCURVE",
"634 330 CURVE SMOOTH",
"634 572 OFFCURVE",
"538 662 OFFCURVE",
"411 662 CURVE SMOOTH",
"346 662 OFFCURVE",
"288 638 OFFCURVE",
"238 584 CURVE",
"238 650 LINE",
"72 650 LINE",
"72 0 LINE",
"244 0 LINE",
"244 438 LINE",
"274 491 OFFCURVE",
"322 514 OFFCURVE",
"358 514 CURVE SMOOTH",
"422 514 OFFCURVE",
"458 461 OFFCURVE",
"458 330 CURVE SMOOTH",
"458 176 OFFCURVE",
"429 148 OFFCURVE",
"394 148 CURVE SMOOTH",
"378 148 OFFCURVE",
"366 150 OFFCURVE",
"356 154 CURVE",
"320 8 LINE",
"340 -4 OFFCURVE",
"384 -12 OFFCURVE",
"414 -12 CURVE SMOOTH"
);
}
);
width = 678;
},
{
anchors = (
{
name = aboveUC;
position = "{330, 682}";
},
{
name = belowLC;
position = "{310, -22}";
}
);
layerId = "0CAB57D4-4FC4-49C3-B456-FB7666EAA712";
paths = (
{
closed = 1;
nodes = (
"481 -12 OFFCURVE",
"554 70 OFFCURVE",
"554 338 CURVE SMOOTH",
"554 584 OFFCURVE",
"456 672 OFFCURVE",
"324 672 CURVE SMOOTH",
"252 672 OFFCURVE",
"178 622 OFFCURVE",
"132 570 CURVE",
"132 660 LINE",
"100 660 LINE",
"100 0 LINE",
"132 0 LINE",
"132 532 LINE",
"177 590 OFFCURVE",
"260 642 OFFCURVE",
"322 642 CURVE SMOOTH",
"438 642 OFFCURVE",
"520 574 OFFCURVE",
"520 338 CURVE SMOOTH",
"520 98 OFFCURVE",
"465 20 OFFCURVE",
"400 20 CURVE SMOOTH",
"376 20 OFFCURVE",
"360 24 OFFCURVE",
"344 32 CURVE",
"332 0 LINE",
"350 -8 OFFCURVE",
"379 -12 OFFCURVE",
"402 -12 CURVE SMOOTH"
);
}
);
width = 610;
},
{
anchors = (
{
name = aboveUC;
position = "{345, 678}";
},
{
name = belowLC;
position = "{317, -22}";
}
);
layerId = master01;
paths = (
{
closed = 1;
nodes = (
"513 -12 OFFCURVE",
"583 83 OFFCURVE",
"583 335 CURVE SMOOTH",
"583 580 OFFCURVE",
"486 668 OFFCURVE",
"356 668 CURVE SMOOTH",
"287 668 OFFCURVE",
"218 628 OFFCURVE",
"171 575 CURVE",
"171 656 LINE",
"90 656 LINE",
"90 0 LINE",
"173 0 LINE",
"173 497 LINE",
"213 554 OFFCURVE",
"283 595 OFFCURVE",
"335 595 CURVE SMOOTH",
"432 595 OFFCURVE",
"497 532 OFFCURVE",
"497 335 CURVE SMOOTH",
"497 127 OFFCURVE",
"452 67 OFFCURVE",
"398 67 CURVE SMOOTH",
"377 67 OFFCURVE",
"362 70 OFFCURVE",
"348 77 CURVE",
"328 3 LINE",
"346 -7 OFFCURVE",
"381 -12 OFFCURVE",
"406 -12 CURVE SMOOTH"
);
}
);
width = 635.024;
}
);
leftKerningGroup = H;
rightKerningGroup = O;
unicode = 014A;
},
{
glyphname = O;
layers = (
{
anchors = (
{
name = aboveUC;
position = "{346, 672}";
},
{
name = aboverightUC;
position = "{610, 672}";
},
{
name = belowLC;
position = "{346, -22}";
},
{
name = hornLC;
position = "{490, 640}";
},
{
name = ogonekUC;
position = "{346, 0}";
}
);
layerId = "42B3044F-4D5A-45CA-9EB7-C1889731596B";
paths = (
{
closed = 1;
nodes = (
"526 -12 OFFCURVE",
"648 114 OFFCURVE",
"648 328 CURVE SMOOTH",
"648 541 OFFCURVE",
"526 662 OFFCURVE",
"346 662 CURVE SMOOTH",
"166 662 OFFCURVE",
"44 542 OFFCURVE",
"44 328 CURVE SMOOTH",
"44 114 OFFCURVE",
"166 -12 OFFCURVE",
"346 -12 CURVE SMOOTH"
);
},
{
closed = 1;
nodes = (
"268 136 OFFCURVE",
"220 210 OFFCURVE",
"220 328 CURVE SMOOTH",
"220 446 OFFCURVE",
"268 514 OFFCURVE",
"346 514 CURVE SMOOTH",
"424 514 OFFCURVE",
"472 446 OFFCURVE",
"472 328 CURVE SMOOTH",
"472 210 OFFCURVE",
"424 136 OFFCURVE",
"346 136 CURVE SMOOTH"
);
}
);
width = 692;
},
{
anchors = (
{
name = aboveUC;
position = "{324, 682}";
},
{
name = aboverightUC;
position = "{510, 682}";
},
{
name = belowLC;
position = "{324, -22}";
},
{
name = hornLC;
position = "{456, 652}";
},
{
name = ogonekUC;
position = "{324, 0}";
}
);
layerId = "0CAB57D4-4FC4-49C3-B456-FB7666EAA712";
paths = (
{
closed = 1;
nodes = (
"480 -12 OFFCURVE",
"592 124 OFFCURVE",
"592 332 CURVE SMOOTH",
"592 540 OFFCURVE",
"480 672 OFFCURVE",
"324 672 CURVE SMOOTH",
"168 672 OFFCURVE",
"56 540 OFFCURVE",
"56 332 CURVE SMOOTH",
"56 124 OFFCURVE",
"168 -12 OFFCURVE",
"324 -12 CURVE SMOOTH"
);
},
{
closed = 1;
nodes = (
"184 18 OFFCURVE",
"90 142 OFFCURVE",
"90 332 CURVE SMOOTH",
"90 522 OFFCURVE",
"184 642 OFFCURVE",
"324 642 CURVE SMOOTH",
"464 642 OFFCURVE",
"558 522 OFFCURVE",
"558 332 CURVE SMOOTH",
"558 142 OFFCURVE",
"464 18 OFFCURVE",
"324 18 CURVE SMOOTH"
);
}
);
width = 648;
},
{
anchors = (
{
name = aboveUC;
position = "{332, 678}";
},
{
name = aboverightUC;
position = "{547, 678}";
},
{
name = belowLC;
position = "{332, -22}";
},
{
name = hornLC;
position = "{469, 648}";
},
{
name = ogonekUC;
position = "{332, 0}";
}
);
layerId = master01;
paths = (
{
closed = 1;
nodes = (
"497 -12 OFFCURVE",
"613 120 OFFCURVE",
"613 331 CURVE SMOOTH",
"613 540 OFFCURVE",
"497 668 OFFCURVE",
"332 668 CURVE SMOOTH",
"167 668 OFFCURVE",
"52 541 OFFCURVE",
"52 331 CURVE SMOOTH",
"52 120 OFFCURVE",
"167 -12 OFFCURVE",
"332 -12 CURVE SMOOTH"
);
},
{
closed = 1;
nodes = (
"215 61 OFFCURVE",
"138 167 OFFCURVE",
"138 331 CURVE SMOOTH",
"138 494 OFFCURVE",
"215 595 OFFCURVE",
"332 595 CURVE SMOOTH",
"449 595 OFFCURVE",
"526 494 OFFCURVE",
"526 331 CURVE SMOOTH",
"526 167 OFFCURVE",
"449 61 OFFCURVE",
"332 61 CURVE SMOOTH"
);
}
);
width = 664.192;
}
);
leftKerningGroup = O;
rightKerningGroup = O;
unicode = 004F;
},
{
glyphname = Oogonek;
layers = (
{
anchors = (
{
name = aboveUC;
position = "{346, 672}";
},
{
name = belowLC;
position = "{350, -222}";
}
);
layerId = "42B3044F-4D5A-45CA-9EB7-C1889731596B";
paths = (
{
closed = 1;
nodes = (
"404 -228 OFFCURVE",
"454 -212 OFFCURVE",
"484 -190 CURVE",
"446 -94 LINE",
"436 -100 OFFCURVE",
"420 -108 OFFCURVE",
"404 -108 CURVE SMOOTH",
"378 -108 OFFCURVE",
"362 -98 OFFCURVE",
"362 -74 CURVE SMOOTH",
"362 -48 OFFCURVE",
"386 -16 OFFCURVE",
"432 -2 CURVE SMOOTH",
"565 38 OFFCURVE",
"648 146 OFFCURVE",
"648 328 CURVE SMOOTH",
"648 541 OFFCURVE",
"526 662 OFFCURVE",
"346 662 CURVE SMOOTH",
"166 662 OFFCURVE",
"44 542 OFFCURVE",
"44 328 CURVE SMOOTH",
"44 114 OFFCURVE",
"166 -12 OFFCURVE",
"346 -12 CURVE",
"304 2 LINE",
"266 -24 OFFCURVE",
"228 -74 OFFCURVE",
"228 -126 CURVE SMOOTH",
"228 -190 OFFCURVE",
"288 -228 OFFCURVE",
"364 -228 CURVE SMOOTH"
);
},
{
closed = 1;
nodes = (
"268 132 OFFCURVE",
"220 208 OFFCURVE",
"220 328 CURVE SMOOTH",
"220 446 OFFCURVE",
"268 514 OFFCURVE",
"346 514 CURVE SMOOTH",
"424 514 OFFCURVE",
"472 446 OFFCURVE",
"472 328 CURVE SMOOTH",
"472 208 OFFCURVE",
"424 132 OFFCURVE",
"346 132 CURVE SMOOTH"
);
}
);
width = 692;
},
{
anchors = (
{
name = aboveUC;
position = "{320, 682}";
},
{
name = belowLC;
position = "{320, -222}";
}
);
layerId = "0CAB57D4-4FC4-49C3-B456-FB7666EAA712";
paths = (
{
closed = 1;
nodes = (
"366 -214 OFFCURVE",
"392 -200 OFFCURVE",
"408 -186 CURVE",
"394 -166 LINE",
"376 -180 OFFCURVE",
"360 -186 OFFCURVE",
"338 -186 CURVE SMOOTH",
"308 -186 OFFCURVE",
"278 -168 OFFCURVE",
"278 -126 CURVE SMOOTH",
"278 -92 OFFCURVE",
"304 -32 OFFCURVE",
"400 0 CURVE SMOOTH",
"500 33 OFFCURVE",
"592 138 OFFCURVE",
"592 332 CURVE SMOOTH",
"592 540 OFFCURVE",
"480 672 OFFCURVE",
"324 672 CURVE SMOOTH",
"168 672 OFFCURVE",
"56 540 OFFCURVE",
"56 332 CURVE SMOOTH",
"56 124 OFFCURVE",
"168 -12 OFFCURVE",
"324 -12 CURVE",
"346 4 LINE",
"274 -30 OFFCURVE",
"248 -90 OFFCURVE",
"248 -128 CURVE SMOOTH",
"248 -188 OFFCURVE",
"288 -214 OFFCURVE",
"336 -214 CURVE SMOOTH"
);
},
{
closed = 1;
nodes = (
"184 18 OFFCURVE",
"90 142 OFFCURVE",
"90 332 CURVE SMOOTH",
"90 522 OFFCURVE",
"184 642 OFFCURVE",
"324 642 CURVE SMOOTH",
"464 642 OFFCURVE",
"558 522 OFFCURVE",
"558 332 CURVE SMOOTH",
"558 142 OFFCURVE",
"464 18 OFFCURVE",
"324 18 CURVE SMOOTH"
);
}
);
width = 648;
},
{
anchors = (
{
name = aboveUC;
position = "{330, 678}";
},
{
name = belowLC;
position = "{331, -222}";
}
);
layerId = master01;
paths = (
{
closed = 1;
nodes = (
"380 -219 OFFCURVE",
"415 -204 OFFCURVE",
"436 -187 CURVE",
"413 -140 LINE",
"398 -151 OFFCURVE",
"382 -157 OFFCURVE",
"362 -157 CURVE SMOOTH",
"334 -157 OFFCURVE",
"309 -142 OFFCURVE",
"309 -107 CURVE SMOOTH",
"309 -76 OFFCURVE",
"334 -26 OFFCURVE",
"412 -1 CURVE SMOOTH",
"524 35 OFFCURVE",
"613 141 OFFCURVE",
"613 331 CURVE SMOOTH",
"613 540 OFFCURVE",
"497 668 OFFCURVE",
"332 668 CURVE SMOOTH",
"167 668 OFFCURVE",
"52 541 OFFCURVE",
"52 331 CURVE SMOOTH",
"52 120 OFFCURVE",
"167 -12 OFFCURVE",
"332 -12 CURVE",
"331 3 LINE",
"271 -28 OFFCURVE",
"241 -84 OFFCURVE",
"241 -127 CURVE SMOOTH",
"241 -189 OFFCURVE",
"288 -219 OFFCURVE",
"346 -219 CURVE SMOOTH"
);
},
{
closed = 1;
nodes = (
"215 60 OFFCURVE",
"138 166 OFFCURVE",
"138 331 CURVE SMOOTH",
"138 494 OFFCURVE",
"215 595 OFFCURVE",
"332 595 CURVE SMOOTH",
"449 595 OFFCURVE",
"526 494 OFFCURVE",
"526 331 CURVE SMOOTH",
"526 166 OFFCURVE",
"449 60 OFFCURVE",
"332 60 CURVE SMOOTH"
);
}
);
width = 664.192;
}
);
leftKerningGroup = O;
rightKerningGroup = O;
unicode = 01EA;
},
{
glyphname = Oslash;
layers = (
{
anchors = (
{
name = aboveUC;
position = "{346, 672}";
},
{
name = belowLC;
position = "{346, -22}";
}
);
components = (
{
name = O;
}
);
guideLines = (
{
angle = 90;
position = "{346, 604}";
}
);
layerId = "42B3044F-4D5A-45CA-9EB7-C1889731596B";
paths = (
{
closed = 1;
nodes = (
"676 628 LINE",
"588 696 LINE",
"36 22 LINE",
"124 -46 LINE"
);
}
);
width = 692;
},
{
anchors = (
{
name = aboveUC;
position = "{320, 682}";
},
{
name = belowLC;
position = "{320, -22}";
}
);
components = (
{
name = O;
transform = "{1, 0, 0, 1, 4, 0}";
}
);
layerId = "0CAB57D4-4FC4-49C3-B456-FB7666EAA712";
paths = (
{
closed = 1;
nodes = (
"586 664 LINE",
"564 680 LINE",
"58 -4 LINE",
"80 -20 LINE"
);
}
);
width = 648;
},
{
anchors = (
{
name = aboveUC;
position = "{330, 678}";
},
{
name = belowLC;
position = "{330, -22}";
}
);
components = (
{
alignment = -1;
name = O;
transform = "{1, 0, 0, 1, 3, 0}";
}
);
layerId = master01;
paths = (
{
closed = 1;
nodes = (
"619 651 LINE",
"573 686 LINE",
"50 6 LINE",
"96 -30 LINE"
);
}
);
width = 664.192;
}
);
leftKerningGroup = O;
rightKerningGroup = O;
unicode = 00D8;
},
{
glyphname = OE;
layers = (
{
anchors = (
{
name = aboveUC;
position = "{528, 672}";
}
);
layerId = "42B3044F-4D5A-45CA-9EB7-C1889731596B";
paths = (
{
closed = 1;
nodes = (
"826 0 LINE",
"826 144 LINE",
"580 144 LINE",
"580 260 LINE",
"780 260 LINE",
"780 404 LINE",
"580 404 LINE",
"580 506 LINE",
"816 506 LINE",
"816 650 LINE",
"384 650 LINE SMOOTH",
"194 650 OFFCURVE",
"44 558 OFFCURVE",
"44 328 CURVE SMOOTH",
"44 98 OFFCURVE",
"194 0 OFFCURVE",
"374 0 CURVE SMOOTH"
);
},
{
closed = 1;
nodes = (
"297 138 OFFCURVE",
"220 174 OFFCURVE",
"220 328 CURVE SMOOTH",
"220 482 OFFCURVE",
"297 512 OFFCURVE",
"394 512 CURVE SMOOTH",
"408 512 LINE",
"408 138 LINE",
"394 138 LINE SMOOTH"
);
}
);
width = 880;
},
{
anchors = (
{
name = aboveUC;
position = "{534, 682}";
}
);
layerId = "0CAB57D4-4FC4-49C3-B456-FB7666EAA712";
paths = (
{
closed = 1;
nodes = (
"782 0 LINE",
"782 28 LINE",
"470 28 LINE",
"470 338 LINE",
"720 338 LINE",
"720 366 LINE",
"470 366 LINE",
"470 632 LINE",
"772 632 LINE",
"772 660 LINE",
"366 660 LINE SMOOTH",
"156 660 OFFCURVE",
"56 528 OFFCURVE",
"56 332 CURVE SMOOTH",
"56 136 OFFCURVE",
"156 0 OFFCURVE",
"366 0 CURVE SMOOTH"
);
},
{
closed = 1;
nodes = (
"176 28 OFFCURVE",
"90 158 OFFCURVE",
"90 332 CURVE SMOOTH",
"90 506 OFFCURVE",
"176 632 OFFCURVE",
"370 632 CURVE SMOOTH",
"438 632 LINE",
"438 28 LINE",
"370 28 LINE SMOOTH"
);
}
);
width = 828;
},
{
anchors = (
{
name = aboveUC;
position = "{532, 678}";
}
);
layerId = master01;
paths = (
{
closed = 1;
nodes = (
"798 0 LINE",
"798 71 LINE",
"510 71 LINE",
"510 309 LINE",
"742 309 LINE",
"742 380 LINE",
"510 380 LINE",
"510 586 LINE",
"788 586 LINE",
"788 656 LINE",
"373 656 LINE SMOOTH",
"170 656 OFFCURVE",
"52 539 OFFCURVE",
"52 331 CURVE SMOOTH",
"52 122 OFFCURVE",
"170 0 OFFCURVE",
"369 0 CURVE SMOOTH"
);
},
{
closed = 1;
nodes = (
"221 68 OFFCURVE",
"138 164 OFFCURVE",
"138 331 CURVE SMOOTH",
"138 497 OFFCURVE",
"221 588 OFFCURVE",
"379 588 CURVE SMOOTH",
"427 588 LINE",
"427 68 LINE",
"379 68 LINE SMOOTH"
);
}
);
width = 847.136;
}
);
leftKerningGroup = O;
rightKerningGroup = E;
unicode = 0152;
},
{
glyphname = P;
layers = (
{
anchors = (
{
name = aboveUC;
position = "{320, 672}";
},
{
name = aboverightUC;
position = "{500, 672}";
},
{
name = belowLC;
position = "{170, -22}";
}
);
layerId = "42B3044F-4D5A-45CA-9EB7-C1889731596B";
paths = (
{
closed = 1;
nodes = (
"244 0 LINE",
"244 206 LINE",
"314 206 LINE SMOOTH",
"450 206 OFFCURVE",
"574 275 OFFCURVE",
"574 434 CURVE SMOOTH",
"574 598 OFFCURVE",
"452 650 OFFCURVE",
"310 650 CURVE SMOOTH",
"72 650 LINE",
"72 0 LINE"
);
},
{
closed = 1;
nodes = (
"244 514 LINE",
"302 514 LINE SMOOTH",
"368 514 OFFCURVE",
"406 492 OFFCURVE",
"406 434 CURVE SMOOTH",
"406 376 OFFCURVE",
"374 342 OFFCURVE",
"306 342 CURVE SMOOTH",
"244 342 LINE"
);
}
);
width = 608;
},
{
anchors = (
{
name = aboveUC;
position = "{290, 682}";
},
{
name = aboverightUC;
position = "{460, 682}";
},
{
name = belowLC;
position = "{118, -22}";
}
);
layerId = "0CAB57D4-4FC4-49C3-B456-FB7666EAA712";
paths = (
{
closed = 1;
nodes = (
"132 0 LINE",
"132 292 LINE",
"262 292 LINE SMOOTH",
"410 292 OFFCURVE",
"494 354 OFFCURVE",
"494 480 CURVE SMOOTH",
"494 612 OFFCURVE",
"408 660 OFFCURVE",
"258 660 CURVE SMOOTH",
"100 660 LINE",
"100 0 LINE"
);
},
{
closed = 1;
nodes = (
"132 632 LINE",
"246 632 LINE SMOOTH",
"390 632 OFFCURVE",
"460 596 OFFCURVE",
"460 480 CURVE SMOOTH",
"460 366 OFFCURVE",
"392 320 OFFCURVE",
"250 320 CURVE SMOOTH",
"132 320 LINE"
);
}
);
width = 542;
},
{
anchors = (
{
name = aboveUC;
position = "{301, 678}";
},
{
name = aboverightUC;
position = "{475, 678}";
},
{
name = belowLC;
position = "{137, -22}";
}
);
layerId = master01;
paths = (
{
closed = 1;
nodes = (
"173 0 LINE",
"173 260 LINE",
"281 260 LINE SMOOTH",
"425 260 OFFCURVE",
"523 325 OFFCURVE",
"523 463 CURVE SMOOTH",
"523 607 OFFCURVE",
"424 656 OFFCURVE",
"277 656 CURVE SMOOTH",
"90 656 LINE",
"90 0 LINE"
);
},
{
closed = 1;
nodes = (
"173 589 LINE",
"267 589 LINE SMOOTH",
"382 589 OFFCURVE",
"440 558 OFFCURVE",
"440 463 CURVE SMOOTH",
"440 370 OFFCURVE",
"385 328 OFFCURVE",
"271 328 CURVE SMOOTH",
"173 328 LINE"
);
}
);
width = 566.288;
}
);
leftKerningGroup = H;
rightKerningGroup = P;
unicode = 0050;
},
{
glyphname = Thorn;
layers = (
{
layerId = "42B3044F-4D5A-45CA-9EB7-C1889731596B";
paths = (
{
closed = 1;
nodes = (
"244 0 LINE",
"244 112 LINE",
"324 112 LINE SMOOTH",
"460 112 OFFCURVE",
"584 181 OFFCURVE",
"584 340 CURVE SMOOTH",
"584 504 OFFCURVE",
"464 556 OFFCURVE",
"324 556 CURVE SMOOTH",
"244 556 LINE",
"244 650 LINE",
"72 650 LINE",
"72 0 LINE"
);
},
{
closed = 1;
nodes = (
"244 420 LINE",
"316 420 LINE SMOOTH",
"380 420 OFFCURVE",
"416 398 OFFCURVE",
"416 340 CURVE SMOOTH",
"416 282 OFFCURVE",
"384 248 OFFCURVE",
"316 248 CURVE SMOOTH",
"244 248 LINE"
);
}
);
width = 630;
},
{
layerId = "0CAB57D4-4FC4-49C3-B456-FB7666EAA712";
paths = (
{
closed = 1;
nodes = (
"132 0 LINE",
"132 172 LINE",
"272 172 LINE SMOOTH",
"420 172 OFFCURVE",
"504 234 OFFCURVE",
"504 360 CURVE SMOOTH",
"504 492 OFFCURVE",
"420 540 OFFCURVE",
"272 540 CURVE SMOOTH",
"132 540 LINE",
"132 660 LINE",
"100 660 LINE",
"100 0 LINE"
);
},
{
closed = 1;
nodes = (
"132 512 LINE",
"260 512 LINE SMOOTH",
"402 512 OFFCURVE",
"470 476 OFFCURVE",
"470 360 CURVE SMOOTH",
"470 246 OFFCURVE",
"402 200 OFFCURVE",
"260 200 CURVE SMOOTH",
"132 200 LINE"
);
}
);
width = 556;
},
{
layerId = master01;
paths = (
{
closed = 1;
nodes = (
"173 0 LINE",
"173 150 LINE",
"291 150 LINE SMOOTH",
"435 150 OFFCURVE",
"533 214 OFFCURVE",
"533 353 CURVE SMOOTH",
"533 496 OFFCURVE",
"436 546 OFFCURVE",
"291 546 CURVE SMOOTH",
"173 546 LINE",
"173 656 LINE",
"90 656 LINE",
"90 0 LINE"
);
},
{
closed = 1;
nodes = (
"173 478 LINE",
"281 478 LINE SMOOTH",
"394 478 OFFCURVE",
"450 447 OFFCURVE",
"450 353 CURVE SMOOTH",
"450 259 OFFCURVE",
"395 218 OFFCURVE",
"281 218 CURVE SMOOTH",
"173 218 LINE"
);
}
);
width = 583.232;
}
);
leftKerningGroup = H;
rightKerningGroup = THORN;
unicode = 00DE;
},
{
glyphname = Q;
layers = (
{
anchors = (
{
name = aboveUC;
position = "{346, 672}";
},
{
name = belowLC;
position = "{330, -182}";
}
);
layerId = "42B3044F-4D5A-45CA-9EB7-C1889731596B";
paths = (
{
closed = 1;
nodes = (
"526 -12 OFFCURVE",
"648 114 OFFCURVE",
"648 328 CURVE SMOOTH",
"648 541 OFFCURVE",
"526 662 OFFCURVE",
"346 662 CURVE SMOOTH",
"166 662 OFFCURVE",
"44 542 OFFCURVE",
"44 328 CURVE SMOOTH",
"44 114 OFFCURVE",
"166 -12 OFFCURVE",
"346 -12 CURVE SMOOTH"
);
},
{
closed = 1;
nodes = (
"268 128 OFFCURVE",
"220 200 OFFCURVE",
"220 328 CURVE SMOOTH",
"220 446 OFFCURVE",
"268 514 OFFCURVE",
"346 514 CURVE SMOOTH",
"424 514 OFFCURVE",
"472 446 OFFCURVE",
"472 328 CURVE SMOOTH",
"472 200 OFFCURVE",
"424 128 OFFCURVE",
"346 128 CURVE SMOOTH"
);
},
{
closed = 1;
nodes = (
"621 -188 OFFCURVE",
"664 -178 OFFCURVE",
"690 -164 CURVE",
"660 -42 LINE",
"640 -48 OFFCURVE",
"614 -52 OFFCURVE",
"586 -52 CURVE SMOOTH",
"530 -52 OFFCURVE",
"462 -34 OFFCURVE",
"438 24 CURVE",
"264 6 LINE",
"312 -106 OFFCURVE",
"416 -188 OFFCURVE",
"566 -188 CURVE SMOOTH"
);
}
);
width = 692;
},
{
anchors = (
{
name = aboveUC;
position = "{324, 682}";
},
{
name = belowLC;
position = "{324, -142}";
}
);
layerId = "0CAB57D4-4FC4-49C3-B456-FB7666EAA712";
paths = (
{
closed = 1;
nodes = (
"480 -12 OFFCURVE",
"592 124 OFFCURVE",
"592 332 CURVE SMOOTH",
"592 540 OFFCURVE",
"480 672 OFFCURVE",
"324 672 CURVE SMOOTH",
"168 672 OFFCURVE",
"56 540 OFFCURVE",
"56 332 CURVE SMOOTH",
"56 124 OFFCURVE",
"168 -12 OFFCURVE",
"324 -12 CURVE SMOOTH"
);
},
{
closed = 1;
nodes = (
"184 16 OFFCURVE",
"90 142 OFFCURVE",
"90 332 CURVE SMOOTH",
"90 522 OFFCURVE",
"184 642 OFFCURVE",
"324 642 CURVE SMOOTH",
"464 642 OFFCURVE",
"558 522 OFFCURVE",
"558 332 CURVE SMOOTH",
"558 142 OFFCURVE",
"464 16 OFFCURVE",
"324 16 CURVE SMOOTH"
);
},
{
closed = 1;
nodes = (
"544 -152 OFFCURVE",
"574 -146 OFFCURVE",
"590 -140 CURVE",
"582 -112 LINE",
"566 -116 OFFCURVE",
"546 -120 OFFCURVE",
"516 -120 CURVE SMOOTH",
"426 -120 OFFCURVE",
"364 -76 OFFCURVE",
"336 0 CURVE",
"300 0 LINE",
"328 -86 OFFCURVE",
"402 -152 OFFCURVE",
"514 -152 CURVE SMOOTH"
);
}
);
width = 648;
},
{
anchors = (
{
name = aboveUC;
position = "{332, 678}";
},
{
name = belowLC;
position = "{326, -157}";
}
);
layerId = master01;
paths = (
{
closed = 1;
nodes = (
"497 -12 OFFCURVE",
"613 120 OFFCURVE",
"613 331 CURVE SMOOTH",
"613 540 OFFCURVE",
"497 668 OFFCURVE",
"332 668 CURVE SMOOTH",
"167 668 OFFCURVE",
"52 541 OFFCURVE",
"52 331 CURVE SMOOTH",
"52 120 OFFCURVE",
"167 -12 OFFCURVE",
"332 -12 CURVE SMOOTH"
);
},
{
closed = 1;
nodes = (
"215 57 OFFCURVE",
"138 163 OFFCURVE",
"138 331 CURVE SMOOTH",
"138 494 OFFCURVE",
"215 595 OFFCURVE",
"332 595 CURVE SMOOTH",
"449 595 OFFCURVE",
"526 494 OFFCURVE",
"526 331 CURVE SMOOTH",
"526 163 OFFCURVE",
"449 57 OFFCURVE",
"332 57 CURVE SMOOTH"
);
},
{
closed = 1;
nodes = (
"572 -165 OFFCURVE",
"607 -158 OFFCURVE",
"627 -149 CURVE",
"611 -86 LINE",
"593 -91 OFFCURVE",
"571 -95 OFFCURVE",
"542 -95 CURVE SMOOTH",
"464 -95 OFFCURVE",
"400 -61 OFFCURVE",
"374 9 CURVE",
"287 2 LINE",
"322 -93 OFFCURVE",
"407 -165 OFFCURVE",
"533 -165 CURVE SMOOTH"
);
}
);
width = 664.192;
}
);
leftKerningGroup = O;
rightKerningGroup = O;
unicode = 0051;
},
{
glyphname = R;
layers = (
{
anchors = (
{
name = aboveUC;
position = "{316, 672}";
},
{
name = belowLC;
position = "{334, -22}";
}
);
layerId = "42B3044F-4D5A-45CA-9EB7-C1889731596B";
paths = (
{
closed = 1;
nodes = (
"244 0 LINE",
"244 218 LINE",
"318 218 LINE SMOOTH",
"458 218 OFFCURVE",
"578 283 OFFCURVE",
"578 440 CURVE SMOOTH",
"578 602 OFFCURVE",
"458 650 OFFCURVE",
"318 650 CURVE SMOOTH",
"72 650 LINE",
"72 0 LINE"
);
},
{
closed = 1;
nodes = (
"244 514 LINE",
"306 514 LINE SMOOTH",
"374 514 OFFCURVE",
"410 496 OFFCURVE",
"410 440 CURVE SMOOTH",
"410 384 OFFCURVE",
"374 354 OFFCURVE",
"306 354 CURVE SMOOTH",
"244 354 LINE"
);
},
{
closed = 1;
nodes = (
"614 0 LINE",
"403 377 LINE",
"287 263 LINE",
"422 0 LINE"
);
}
);
width = 630;
},
{
anchors = (
{
name = aboveUC;
position = "{282, 682}";
},
{
name = belowLC;
position = "{296, -22}";
}
);
layerId = "0CAB57D4-4FC4-49C3-B456-FB7666EAA712";
paths = (
{
closed = 1;
nodes = (
"132 0 LINE",
"132 312 LINE",
"282 312 LINE SMOOTH",
"412 312 OFFCURVE",
"494 374 OFFCURVE",
"494 490 CURVE SMOOTH",
"494 612 OFFCURVE",
"412 660 OFFCURVE",
"282 660 CURVE SMOOTH",
"100 660 LINE",
"100 0 LINE"
);
},
{
closed = 1;
nodes = (
"132 632 LINE",
"270 632 LINE SMOOTH",
"392 632 OFFCURVE",
"460 594 OFFCURVE",
"460 490 CURVE SMOOTH",
"460 388 OFFCURVE",
"392 340 OFFCURVE",
"270 340 CURVE SMOOTH",
"132 340 LINE"
);
},
{
closed = 1;
nodes = (
"504 0 LINE",
"310 324 LINE",
"274 322 LINE",
"466 0 LINE"
);
}
);
width = 534;
},
{
anchors = (
{
name = aboveUC;
position = "{295, 678}";
},
{
name = belowLC;
position = "{310, -22}";
}
);
layerId = master01;
paths = (
{
closed = 1;
nodes = (
"173 0 LINE",
"173 277 LINE",
"295 277 LINE SMOOTH",
"429 277 OFFCURVE",
"525 341 OFFCURVE",
"525 472 CURVE SMOOTH",
"525 608 OFFCURVE",
"429 656 OFFCURVE",
"295 656 CURVE SMOOTH",
"90 656 LINE",
"90 0 LINE"
);
},
{
closed = 1;
nodes = (
"173 589 LINE",
"283 589 LINE SMOOTH",
"385 589 OFFCURVE",
"442 558 OFFCURVE",
"442 472 CURVE SMOOTH",
"442 387 OFFCURVE",
"385 345 OFFCURVE",
"283 345 CURVE SMOOTH",
"173 345 LINE"
);
},
{
closed = 1;
nodes = (
"544 0 LINE",
"344 344 LINE",
"279 300 LINE",
"450 0 LINE"
);
}
);
width = 569.328;
}
);
leftKerningGroup = H;
rightKerningGroup = R;
unicode = 0052;
},
{
glyphname = S;
layers = (
{
anchors = (
{
name = aboveUC;
position = "{300, 672}";
},
{
name = baseLC;
position = "{282, 0}";
},
{
name = belowLC;
position = "{282, -22}";
}
);
layerId = "42B3044F-4D5A-45CA-9EB7-C1889731596B";
paths = (
{
closed = 1;
nodes = (
"440 -12 OFFCURVE",
"532 86 OFFCURVE",
"532 196 CURVE SMOOTH",
"532 286 OFFCURVE",
"486 342 OFFCURVE",
"405 374 CURVE SMOOTH",
"326 405 LINE SMOOTH",
"267 428 OFFCURVE",
"230 439 OFFCURVE",
"230 470 CURVE SMOOTH",
"230 499 OFFCURVE",
"256 514 OFFCURVE",
"298 514 CURVE SMOOTH",
"336 514 OFFCURVE",
"380 498 OFFCURVE",
"424 468 CURVE",
"514 580 LINE",
"455 634 OFFCURVE",
"376 662 OFFCURVE",
"298 662 CURVE SMOOTH",
"156 662 OFFCURVE",
"56 571 OFFCURVE",
"56 460 CURVE SMOOTH",
"56 366 OFFCURVE",
"117 307 OFFCURVE",
"187 278 CURVE SMOOTH",
"268 245 LINE SMOOTH",
"323 223 OFFCURVE",
"356 213 OFFCURVE",
"356 182 CURVE SMOOTH",
"356 153 OFFCURVE",
"334 136 OFFCURVE",
"282 136 CURVE SMOOTH",
"230 136 OFFCURVE",
"168 156 OFFCURVE",
"122 194 CURVE",
"32 82 LINE",
"102 16 OFFCURVE",
"192 -12 OFFCURVE",
"278 -12 CURVE SMOOTH"
);
}
);
width = 564;
},
{
anchors = (
{
name = aboveUC;
position = "{268, 682}";
},
{
name = baseLC;
position = "{268, 0}";
},
{
name = belowLC;
position = "{268, -22}";
}
);
layerId = "0CAB57D4-4FC4-49C3-B456-FB7666EAA712";
paths = (
{
closed = 1;
nodes = (
"394 -12 OFFCURVE",
"474 62 OFFCURVE",
"474 162 CURVE SMOOTH",
"474 264 OFFCURVE",
"410 302 OFFCURVE",
"334 336 CURVE SMOOTH",
"232 382 LINE SMOOTH",
"185 403 OFFCURVE",
"116 434 OFFCURVE",
"116 516 CURVE SMOOTH",
"116 592 OFFCURVE",
"178 642 OFFCURVE",
"270 642 CURVE SMOOTH",
"339 642 OFFCURVE",
"392 614 OFFCURVE",
"432 574 CURVE",
"450 594 LINE",
"412 635 OFFCURVE",
"350 672 OFFCURVE",
"270 672 CURVE SMOOTH",
"162 672 OFFCURVE",
"84 608 OFFCURVE",
"84 514 CURVE SMOOTH",
"84 418 OFFCURVE",
"160 378 OFFCURVE",
"218 352 CURVE SMOOTH",
"320 306 LINE SMOOTH",
"386 276 OFFCURVE",
"442 248 OFFCURVE",
"442 160 CURVE SMOOTH",
"442 76 OFFCURVE",
"374 18 OFFCURVE",
"268 18 CURVE SMOOTH",
"188 18 OFFCURVE",
"117 53 OFFCURVE",
"70 108 CURVE",
"48 88 LINE",
"98 30 OFFCURVE",
"170 -12 OFFCURVE",
"268 -12 CURVE SMOOTH"
);
}
);
width = 516;
},
{
anchors = (
{
name = aboveUC;
position = "{280, 678}";
},
{
name = baseLC;
position = "{273, 0}";
},
{
name = belowLC;
position = "{273, -22}";
}
);
layerId = master01;
paths = (
{
closed = 1;
nodes = (
"411 -12 OFFCURVE",
"495 71 OFFCURVE",
"495 175 CURVE SMOOTH",
"495 272 OFFCURVE",
"438 317 OFFCURVE",
"360 350 CURVE SMOOTH",
"267 390 LINE SMOOTH",
"215 412 OFFCURVE",
"158 436 OFFCURVE",
"158 499 CURVE SMOOTH",
"158 558 OFFCURVE",
"207 595 OFFCURVE",
"280 595 CURVE SMOOTH",
"338 595 OFFCURVE",
"388 571 OFFCURVE",
"429 535 CURVE",
"474 589 LINE",
"428 635 OFFCURVE",
"360 668 OFFCURVE",
"280 668 CURVE SMOOTH",
"160 668 OFFCURVE",
"74 594 OFFCURVE",
"74 494 CURVE SMOOTH",
"74 399 OFFCURVE",
"144 352 OFFCURVE",
"207 325 CURVE SMOOTH",
"301 284 LINE SMOOTH",
"363 256 OFFCURVE",
"410 235 OFFCURVE",
"410 168 CURVE SMOOTH",
"410 104 OFFCURVE",
"359 61 OFFCURVE",
"273 61 CURVE SMOOTH",
"203 61 OFFCURVE",
"136 91 OFFCURVE",
"89 140 CURVE",
"42 86 LINE",
"99 25 OFFCURVE",
"178 -12 OFFCURVE",
"272 -12 CURVE SMOOTH"
);
}
);
width = 533.664;
}
);
leftKerningGroup = S;
rightKerningGroup = S;
unicode = 0053;
},
{
glyphname = Germandbls;
layers = (
{
layerId = "42B3044F-4D5A-45CA-9EB7-C1889731596B";
paths = (
{
closed = 1;
nodes = (
"612 -12 OFFCURVE",
"682 72 OFFCURVE",
"682 180 CURVE SMOOTH",
"682 280 OFFCURVE",
"612 326 OFFCURVE",
"530 358 CURVE",
"626 468 LINE",
"604 584 OFFCURVE",
"504 662 OFFCURVE",
"366 662 CURVE SMOOTH",
"170 662 OFFCURVE",
"76 548 OFFCURVE",
"76 406 CURVE SMOOTH",
"76 0 LINE",
"248 0 LINE",
"248 384 LINE SMOOTH",
"248 476 OFFCURVE",
"284 524 OFFCURVE",
"362 524 CURVE SMOOTH",
"411 524 OFFCURVE",
"443 500 OFFCURVE",
"458 474 CURVE",
"360 360 LINE",
"371 261 LINE",
"464 244 OFFCURVE",
"506 214 OFFCURVE",
"506 182 CURVE SMOOTH",
"506 148 OFFCURVE",
"484 126 OFFCURVE",
"448 126 CURVE SMOOTH",
"420 126 OFFCURVE",
"400 134 OFFCURVE",
"374 158 CURVE",
"286 64 LINE",
"322 20 OFFCURVE",
"384 -12 OFFCURVE",
"474 -12 CURVE SMOOTH"
);
}
);
width = 720;
},
{
layerId = "0CAB57D4-4FC4-49C3-B456-FB7666EAA712";
paths = (
{
closed = 1;
nodes = (
"512 -12 OFFCURVE",
"590 64 OFFCURVE",
"590 166 CURVE SMOOTH",
"590 258 OFFCURVE",
"538 338 OFFCURVE",
"366 364 CURVE",
"528 540 LINE",
"488 620 OFFCURVE",
"432 672 OFFCURVE",
"336 672 CURVE SMOOTH",
"200 672 OFFCURVE",
"100 587 OFFCURVE",
"100 424 CURVE SMOOTH",
"100 0 LINE",
"132 0 LINE",
"132 412 LINE SMOOTH",
"132 572 OFFCURVE",
"212 642 OFFCURVE",
"334 642 CURVE SMOOTH",
"412 642 OFFCURVE",
"462 598 OFFCURVE",
"488 542 CURVE",
"328 366 LINE",
"330 338 LINE",
"518 308 OFFCURVE",
"556 244 OFFCURVE",
"556 164 CURVE SMOOTH",
"556 80 OFFCURVE",
"504 18 OFFCURVE",
"412 18 CURVE SMOOTH",
"348 18 OFFCURVE",
"301 42 OFFCURVE",
"258 92 CURVE",
"234 68 LINE",
"277 16 OFFCURVE",
"342 -12 OFFCURVE",
"410 -12 CURVE SMOOTH"
);
}
);
width = 636;
},
{
layerId = master01;
paths = (
{
closed = 1;
nodes = (
"549 -12 OFFCURVE",
"624 67 OFFCURVE",
"624 171 CURVE SMOOTH",
"624 266 OFFCURVE",
"565 334 OFFCURVE",
"426 362 CURVE",
"564 514 LINE",
"531 607 OFFCURVE",
"458 668 OFFCURVE",
"347 668 CURVE SMOOTH",
"189 668 OFFCURVE",
"91 573 OFFCURVE",
"91 417 CURVE SMOOTH",
"91 0 LINE",
"175 0 LINE",
"175 402 LINE SMOOTH",
"175 537 OFFCURVE",
"238 599 OFFCURVE",
"344 599 CURVE SMOOTH",
"412 599 OFFCURVE",
"455 562 OFFCURVE",
"477 517 CURVE",
"340 364 LINE",
"345 310 LINE",
"498 284 OFFCURVE",
"538 233 OFFCURVE",
"538 171 CURVE SMOOTH",
"538 105 OFFCURVE",
"497 58 OFFCURVE",
"425 58 CURVE SMOOTH",
"374 58 OFFCURVE",
"337 76 OFFCURVE",
"301 116 CURVE",
"253 67 LINE",
"294 17 OFFCURVE",
"357 -12 OFFCURVE",
"434 -12 CURVE SMOOTH"
);
}
);
width = 666.912;
}
);
leftKerningGroup = GERMANDBLS;
rightKerningGroup = GERMANDBLS;
unicode = 1E9E;
},
{
glyphname = Schwa;
layers = (
{
anchors = (
{
name = aboveUC;
position = "{350, 672}";
},
{
name = belowLC;
position = "{340, -22}";
}
);
layerId = "42B3044F-4D5A-45CA-9EB7-C1889731596B";
paths = (
{
closed = 1;
nodes = (
"510 -12 OFFCURVE",
"628 104 OFFCURVE",
"628 326 CURVE SMOOTH",
"628 548 OFFCURVE",
"512 662 OFFCURVE",
"328 662 CURVE SMOOTH",
"222 662 OFFCURVE",
"134 624 OFFCURVE",
"68 562 CURVE",
"152 458 LINE",
"198 498 OFFCURVE",
"254 522 OFFCURVE",
"316 522 CURVE SMOOTH",
"410 522 OFFCURVE",
"458 464 OFFCURVE",
"458 326 CURVE SMOOTH",
"458 182 OFFCURVE",
"410 128 OFFCURVE",
"340 128 CURVE SMOOTH",
"271 128 OFFCURVE",
"222 162 OFFCURVE",
"220 258 CURVE",
"502 258 LINE",
"502 382 LINE",
"54 382 LINE",
"50 362 OFFCURVE",
"48 340 OFFCURVE",
"48 322 CURVE SMOOTH",
"48 100 OFFCURVE",
"160 -12 OFFCURVE",
"338 -12 CURVE SMOOTH"
);
}
);
width = 672;
},
{
anchors = (
{
name = aboveUC;
position = "{320, 682}";
},
{
name = belowLC;
position = "{320, -22}";
}
);
layerId = "0CAB57D4-4FC4-49C3-B456-FB7666EAA712";
paths = (
{
closed = 1;
nodes = (
"478 -12 OFFCURVE",
"578 104 OFFCURVE",
"578 332 CURVE SMOOTH",
"578 548 OFFCURVE",
"480 672 OFFCURVE",
"324 672 CURVE SMOOTH",
"226 672 OFFCURVE",
"162 634 OFFCURVE",
"114 588 CURVE",
"134 568 LINE",
"180 612 OFFCURVE",
"240 644 OFFCURVE",
"326 644 CURVE SMOOTH",
"462 644 OFFCURVE",
"546 528 OFFCURVE",
"546 332 CURVE SMOOTH",
"546 128 OFFCURVE",
"462 16 OFFCURVE",
"320 16 CURVE SMOOTH",
"190 16 OFFCURVE",
"98 122 OFFCURVE",
"96 304 CURVE",
"550 304 LINE",
"550 332 LINE",
"64 332 LINE",
"64 327 OFFCURVE",
"64 321 OFFCURVE",
"64 316 CURVE SMOOTH",
"64 104 OFFCURVE",
"164 -12 OFFCURVE",
"320 -12 CURVE SMOOTH"
);
}
);
width = 634;
},
{
anchors = (
{
name = aboveUC;
position = "{331, 678}";
},
{
name = belowLC;
position = "{327, -22}";
}
);
layerId = master01;
paths = (
{
closed = 1;
nodes = (
"490 -12 OFFCURVE",
"596 104 OFFCURVE",
"596 330 CURVE SMOOTH",
"596 548 OFFCURVE",
"492 668 OFFCURVE",
"325 668 CURVE SMOOTH",
"225 668 OFFCURVE",
"152 630 OFFCURVE",
"97 578 CURVE",
"141 528 LINE",
"187 570 OFFCURVE",
"245 599 OFFCURVE",
"322 599 CURVE SMOOTH",
"443 599 OFFCURVE",
"514 504 OFFCURVE",
"514 330 CURVE SMOOTH",
"514 148 OFFCURVE",
"443 57 OFFCURVE",
"327 57 CURVE SMOOTH",
"220 57 OFFCURVE",
"144 137 OFFCURVE",
"142 287 CURVE",
"532 287 LINE",
"532 350 LINE",
"60 350 LINE",
"59 340 OFFCURVE",
"58 328 OFFCURVE",
"58 318 CURVE SMOOTH",
"58 103 OFFCURVE",
"163 -12 OFFCURVE",
"327 -12 CURVE SMOOTH"
);
}
);
width = 647.984;
}
);
leftKerningGroup = SCHWA;
rightKerningGroup = O;
unicode = 018F;
},
{
glyphname = T;
layers = (
{
anchors = (
{
name = aboveUC;
position = "{280, 672}";
},
{
name = aboverightUC;
position = "{460, 672}";
},
{
name = baseLC;
position = "{280, 0}";
},
{
name = belowLC;
position = "{280, -22}";
}
);
layerId = "42B3044F-4D5A-45CA-9EB7-C1889731596B";
paths = (
{
closed = 1;
nodes = (
"368 0 LINE",
"368 506 LINE",
"540 506 LINE",
"540 650 LINE",
"24 650 LINE",
"24 506 LINE",
"196 506 LINE",
"196 0 LINE"
);
}
);
width = 564;
},
{
anchors = (
{
name = aboveUC;
position = "{260, 682}";
},
{
name = aboverightUC;
position = "{460, 682}";
},
{
name = baseLC;
position = "{260, 0}";
},
{
name = belowLC;
position = "{260, -22}";
}
);
layerId = "0CAB57D4-4FC4-49C3-B456-FB7666EAA712";
paths = (
{
closed = 1;
nodes = (
"276 0 LINE",
"276 632 LINE",
"490 632 LINE",
"490 660 LINE",
"30 660 LINE",
"30 632 LINE",
"244 632 LINE",
"244 0 LINE"
);
}
);
width = 520;
},
{
anchors = (
{
name = aboveUC;
position = "{267, 678}";
},
{
name = aboverightUC;
position = "{460, 678}";
},
{
name = baseLC;
position = "{267, 0}";
},
{
name = belowLC;
position = "{267, -22}";
}
);
layerId = master01;
paths = (
{
closed = 1;
nodes = (
"310 0 LINE",
"310 586 LINE",
"508 586 LINE",
"508 656 LINE",
"28 656 LINE",
"28 586 LINE",
"226 586 LINE",
"226 0 LINE"
);
}
);
width = 536.192;
}
);
leftKerningGroup = T;
rightKerningGroup = T;
unicode = 0054;
},
{
color = (102,255,204,255);
glyphname = Tbar;
layers = (
{
anchors = (
{
name = aboveUC;
position = "{280, 672}";
},
{
name = belowLC;
position = "{280, -22}";
}
);
components = (
{
name = T;
}
);
layerId = "42B3044F-4D5A-45CA-9EB7-C1889731596B";
paths = (
{
closed = 1;
nodes = (
"484 252 LINE",
"484 364 LINE",
"176 364 LINE",
"80 358 LINE",
"80 252 LINE"
);
}
);
width = 564;
},
{
anchors = (
{
name = aboveUC;
position = "{260, 682}";
},
{
name = belowLC;
position = "{260, -22}";
}
);
components = (
{
name = T;
}
);
layerId = "0CAB57D4-4FC4-49C3-B456-FB7666EAA712";
paths = (
{
closed = 1;
nodes = (
"404 336 LINE",
"404 364 LINE",
"200 364 LINE",
"116 362 LINE",
"116 336 LINE"
);
}
);
width = 520;
},
{
anchors = (
{
name = aboveUC;
position = "{267, 678}";
},
{
name = belowLC;
position = "{267, -22}";
}
);
components = (
{
alignment = -1;
name = T;
}
);
layerId = master01;
paths = (
{
closed = 1;
nodes = (
"433 305 LINE",
"433 364 LINE",
"191 364 LINE",
"103 361 LINE",
"103 305 LINE"
);
}
);
width = 536.192;
}
);
leftKerningGroup = T;
rightKerningGroup = T;
unicode = 0166;
},
{
glyphname = U;
layers = (
{
anchors = (
{
name = aboveUC;
position = "{336, 672}";
},
{
name = belowLC;
position = "{336, -22}";
},
{
name = hornLC;
position = "{552, 660}";
},
{
name = ogonekUC;
position = "{336, 0}";
}
);
layerId = "42B3044F-4D5A-45CA-9EB7-C1889731596B";
paths = (
{
closed = 1;
nodes = (
"520 -12 OFFCURVE",
"604 89 OFFCURVE",
"604 304 CURVE SMOOTH",
"604 650 LINE",
"438 650 LINE",
"438 284 LINE SMOOTH",
"438 175 OFFCURVE",
"406 136 OFFCURVE",
"338 136 CURVE SMOOTH",
"270 136 OFFCURVE",
"240 175 OFFCURVE",
"240 284 CURVE SMOOTH",
"240 650 LINE",
"68 650 LINE",
"68 304 LINE SMOOTH",
"68 89 OFFCURVE",
"156 -12 OFFCURVE",
"338 -12 CURVE SMOOTH"
);
}
);
width = 672;
},
{
anchors = (
{
name = aboveUC;
position = "{314, 682}";
},
{
name = belowLC;
position = "{314, -22}";
},
{
name = hornLC;
position = "{510, 672}";
},
{
name = ogonekUC;
position = "{314, 0}";
}
);
layerId = "0CAB57D4-4FC4-49C3-B456-FB7666EAA712";
paths = (
{
closed = 1;
nodes = (
"420 -12 OFFCURVE",
"532 42 OFFCURVE",
"532 246 CURVE SMOOTH",
"532 660 LINE",
"502 660 LINE",
"502 254 LINE SMOOTH",
"502 72 OFFCURVE",
"412 18 OFFCURVE",
"314 18 CURVE SMOOTH",
"218 18 OFFCURVE",
"130 72 OFFCURVE",
"130 254 CURVE SMOOTH",
"130 660 LINE",
"98 660 LINE",
"98 246 LINE SMOOTH",
"98 42 OFFCURVE",
"208 -12 OFFCURVE",
"314 -12 CURVE SMOOTH"
);
}
);
width = 630;
},
{
anchors = (
{
name = aboveUC;
position = "{322, 678}";
},
{
name = belowLC;
position = "{322, -22}";
},
{
name = hornLC;
position = "{525, 668}";
},
{
name = ogonekUC;
position = "{322, 0}";
}
);
layerId = master01;
paths = (
{
closed = 1;
nodes = (
"457 -12 OFFCURVE",
"558 59 OFFCURVE",
"558 267 CURVE SMOOTH",
"558 656 LINE",
"478 656 LINE",
"478 265 LINE SMOOTH",
"478 110 OFFCURVE",
"410 61 OFFCURVE",
"323 61 CURVE SMOOTH",
"237 61 OFFCURVE",
"170 110 OFFCURVE",
"170 265 CURVE SMOOTH",
"170 656 LINE",
"87 656 LINE",
"87 267 LINE SMOOTH",
"87 59 OFFCURVE",
"189 -12 OFFCURVE",
"323 -12 CURVE SMOOTH"
);
}
);
width = 645.456;
}
);
leftKerningGroup = U;
rightKerningGroup = U;
unicode = 0055;
},
{
glyphname = Ubar;
layers = (
{
anchors = (
{
name = aboveUC;
position = "{356, 672}";
},
{
name = belowLC;
position = "{356, -22}";
}
);
components = (
{
name = U;
transform = "{1, 0, 0, 1, 20, 0}";
}
);
layerId = "42B3044F-4D5A-45CA-9EB7-C1889731596B";
paths = (
{
closed = 1;
nodes = (
"694 318 LINE",
"694 430 LINE",
"90 430 LINE",
"18 424 LINE",
"18 318 LINE"
);
}
);
width = 712;
},
{
anchors = (
{
name = aboveUC;
position = "{334, 682}";
},
{
name = belowLC;
position = "{334, -22}";
}
);
components = (
{
name = U;
transform = "{1, 0, 0, 1, 20, 0}";
}
);
layerId = "0CAB57D4-4FC4-49C3-B456-FB7666EAA712";
paths = (
{
closed = 1;
nodes = (
"646 338 LINE",
"646 366 LINE",
"120 366 LINE",
"20 362 LINE",
"20 338 LINE"
);
}
);
width = 670;
},
{
anchors = (
{
name = aboveUC;
position = "{342, 678}";
},
{
name = belowLC;
position = "{342, -22}";
}
);
components = (
{
alignment = -1;
name = U;
transform = "{1, 0, 0, 1, 20, 0}";
}
);
layerId = master01;
paths = (
{
closed = 1;
nodes = (
"664 331 LINE",
"664 390 LINE",
"109 390 LINE",
"19 385 LINE",
"19 331 LINE"
);
}
);
width = 685.456;
}
);
leftKerningGroup = HBAR;
rightKerningGroup = HBAR;
unicode = 0244;
},
{
glyphname = Uogonek;
layers = (
{
anchors = (
{
name = aboveUC;
position = "{336, 672}";
}
);
layerId = "42B3044F-4D5A-45CA-9EB7-C1889731596B";
paths = (
{
closed = 1;
nodes = (
"394 -228 OFFCURVE",
"444 -212 OFFCURVE",
"474 -190 CURVE",
"436 -94 LINE",
"426 -100 OFFCURVE",
"410 -108 OFFCURVE",
"394 -108 CURVE SMOOTH",
"368 -108 OFFCURVE",
"352 -98 OFFCURVE",
"352 -74 CURVE SMOOTH",
"352 -52 OFFCURVE",
"370 -24 OFFCURVE",
"418 -8 CURVE SMOOTH",
"548 34 OFFCURVE",
"604 124 OFFCURVE",
"604 314 CURVE SMOOTH",
"604 650 LINE",
"438 650 LINE",
"438 294 LINE SMOOTH",
"438 174 OFFCURVE",
"406 132 OFFCURVE",
"338 132 CURVE SMOOTH",
"270 132 OFFCURVE",
"240 174 OFFCURVE",
"240 294 CURVE SMOOTH",
"240 650 LINE",
"68 650 LINE",
"68 314 LINE SMOOTH",
"68 92 OFFCURVE",
"156 -12 OFFCURVE",
"338 -12 CURVE",
"294 2 LINE",
"256 -22 OFFCURVE",
"218 -74 OFFCURVE",
"218 -126 CURVE SMOOTH",
"218 -190 OFFCURVE",
"278 -228 OFFCURVE",
"354 -228 CURVE SMOOTH"
);
}
);
width = 672;
},
{
anchors = (
{
name = aboveUC;
position = "{314, 682}";
}
);
layerId = "0CAB57D4-4FC4-49C3-B456-FB7666EAA712";
paths = (
{
closed = 1;
nodes = (
"356 -214 OFFCURVE",
"382 -200 OFFCURVE",
"398 -186 CURVE",
"384 -166 LINE",
"366 -180 OFFCURVE",
"350 -186 OFFCURVE",
"328 -186 CURVE SMOOTH",
"298 -186 OFFCURVE",
"268 -168 OFFCURVE",
"268 -126 CURVE SMOOTH",
"268 -76 OFFCURVE",
"310 -18 OFFCURVE",
"354 -10 CURVE SMOOTH",
"463 10 OFFCURVE",
"532 85 OFFCURVE",
"532 246 CURVE SMOOTH",
"532 660 LINE",
"502 660 LINE",
"502 254 LINE SMOOTH",
"502 72 OFFCURVE",
"412 18 OFFCURVE",
"314 18 CURVE SMOOTH",
"218 18 OFFCURVE",
"130 72 OFFCURVE",
"130 254 CURVE SMOOTH",
"130 660 LINE",
"98 660 LINE",
"98 246 LINE SMOOTH",
"98 42 OFFCURVE",
"208 -12 OFFCURVE",
"314 -12 CURVE",
"316 4 LINE",
"278 -26 OFFCURVE",
"238 -72 OFFCURVE",
"238 -128 CURVE SMOOTH",
"238 -188 OFFCURVE",
"278 -214 OFFCURVE",
"326 -214 CURVE SMOOTH"
);
}
);
width = 630;
},
{
anchors = (
{
name = aboveUC;
position = "{322, 678}";
}
);
layerId = master01;
paths = (
{
closed = 1;
nodes = (
"370 -219 OFFCURVE",
"405 -204 OFFCURVE",
"426 -187 CURVE",
"403 -140 LINE",
"388 -151 OFFCURVE",
"372 -157 OFFCURVE",
"352 -157 CURVE SMOOTH",
"324 -157 OFFCURVE",
"299 -142 OFFCURVE",
"299 -107 CURVE SMOOTH",
"299 -67 OFFCURVE",
"332 -20 OFFCURVE",
"378 -9 CURVE SMOOTH",
"494 19 OFFCURVE",
"558 99 OFFCURVE",
"558 271 CURVE SMOOTH",
"558 656 LINE",
"478 656 LINE",
"478 269 LINE SMOOTH",
"478 110 OFFCURVE",
"410 60 OFFCURVE",
"323 60 CURVE SMOOTH",
"237 60 OFFCURVE",
"170 110 OFFCURVE",
"170 269 CURVE SMOOTH",
"170 656 LINE",
"87 656 LINE",
"87 271 LINE SMOOTH",
"87 60 OFFCURVE",
"189 -12 OFFCURVE",
"323 -12 CURVE",
"308 3 LINE",
"270 -25 OFFCURVE",
"231 -73 OFFCURVE",
"231 -127 CURVE SMOOTH",
"231 -189 OFFCURVE",
"278 -219 OFFCURVE",
"336 -219 CURVE SMOOTH"
);
}
);
width = 645.456;
}
);
leftKerningGroup = U;
rightKerningGroup = U;
unicode = 0172;
},
{
glyphname = V;
layers = (
{
anchors = (
{
name = aboveUC;
position = "{286, 672}";
},
{
name = belowLC;
position = "{282, -22}";
}
);
layerId = "42B3044F-4D5A-45CA-9EB7-C1889731596B";
paths = (
{
closed = 1;
nodes = (
"386 0 LINE",
"582 650 LINE",
"406 650 LINE",
"336 366 LINE SMOOTH",
"319 297 OFFCURVE",
"306 230 OFFCURVE",
"288 160 CURVE",
"284 160 LINE",
"266 230 OFFCURVE",
"252 297 OFFCURVE",
"236 366 CURVE SMOOTH",
"172 650 LINE",
"-10 650 LINE",
"178 0 LINE"
);
}
);
width = 572;
},
{
anchors = (
{
name = aboveUC;
position = "{240, 682}";
},
{
name = belowLC;
position = "{244, -22}";
}
);
layerId = "0CAB57D4-4FC4-49C3-B456-FB7666EAA712";
paths = (
{
closed = 1;
nodes = (
"254 0 LINE",
"476 660 LINE",
"444 660 LINE",
"312 264 LINE SMOOTH",
"284 180 OFFCURVE",
"266 124 OFFCURVE",
"240 42 CURVE",
"236 42 LINE",
"210 124 OFFCURVE",
"190 180 OFFCURVE",
"164 264 CURVE SMOOTH",
"40 660 LINE",
"6 660 LINE",
"222 0 LINE"
);
}
);
width = 482;
},
{
anchors = (
{
name = aboveUC;
position = "{257, 678}";
},
{
name = belowLC;
position = "{258, -22}";
}
);
layerId = master01;
paths = (
{
closed = 1;
nodes = (
"303 0 LINE",
"515 656 LINE",
"430 656 LINE",
"321 302 LINE SMOOTH",
"297 223 OFFCURVE",
"281 163 OFFCURVE",
"258 85 CURVE",
"254 85 LINE",
"231 163 OFFCURVE",
"213 223 OFFCURVE",
"190 302 CURVE SMOOTH",
"89 656 LINE",
"0 656 LINE",
"206 0 LINE"
);
}
);
width = 515.12;
}
);
leftKerningGroup = V;
rightKerningGroup = V;
unicode = 0056;
},
{
glyphname = W;
layers = (
{
anchors = (
{
name = aboveUC;
position = "{410, 672}";
},
{
name = aboverightUC;
position = "{740, 672}";
},
{
name = belowLC;
position = "{410, -22}";
}
);
layerId = "42B3044F-4D5A-45CA-9EB7-C1889731596B";
paths = (
{
closed = 1;
nodes = (
"336 0 LINE",
"384 258 LINE",
"394 308 OFFCURVE",
"401 362 OFFCURVE",
"408 410 CURVE",
"412 410 LINE",
"418 362 OFFCURVE",
"426 308 OFFCURVE",
"436 258 CURVE",
"486 0 LINE",
"704 0 LINE",
"814 650 LINE",
"650 650 LINE",
"612 366 LINE",
"605 300 OFFCURVE",
"597 231 OFFCURVE",
"590 162 CURVE",
"586 162 LINE",
"574 231 OFFCURVE",
"562 301 OFFCURVE",
"550 366 CURVE",
"490 650 LINE",
"346 650 LINE",
"282 366 LINE",
"270 299 OFFCURVE",
"258 230 OFFCURVE",
"246 162 CURVE",
"242 162 LINE",
"235 230 OFFCURVE",
"227 298 OFFCURVE",
"220 366 CURVE",
"186 650 LINE",
"10 650 LINE",
"122 0 LINE"
);
}
);
width = 824;
},
{
anchors = (
{
name = aboveUC;
position = "{382, 682}";
},
{
name = aboverightUC;
position = "{710, 682}";
},
{
name = belowLC;
position = "{386, -22}";
}
);
layerId = "0CAB57D4-4FC4-49C3-B456-FB7666EAA712";
paths = (
{
closed = 1;
nodes = (
"214 0 LINE",
"342 474 LINE",
"354 526 OFFCURVE",
"368 570 OFFCURVE",
"380 622 CURVE",
"384 622 LINE",
"396 570 OFFCURVE",
"408 526 OFFCURVE",
"420 474 CURVE",
"546 0 LINE",
"578 0 LINE",
"732 660 LINE",
"700 660 LINE",
"610 260 LINE",
"594 188 OFFCURVE",
"580 116 OFFCURVE",
"564 44 CURVE",
"560 44 LINE",
"542 116 OFFCURVE",
"524 188 OFFCURVE",
"506 260 CURVE",
"400 660 LINE",
"364 660 LINE",
"254 260 LINE",
"236 188 OFFCURVE",
"218 116 OFFCURVE",
"202 44 CURVE",
"198 44 LINE",
"182 116 OFFCURVE",
"166 188 OFFCURVE",
"150 260 CURVE",
"64 660 LINE",
"30 660 LINE",
"182 0 LINE"
);
}
);
width = 764;
},
{
anchors = (
{
name = aboveUC;
position = "{392, 678}";
},
{
name = aboverightUC;
position = "{721, 678}";
},
{
name = belowLC;
position = "{395, -22}";
}
);
layerId = master01;
paths = (
{
closed = 1;
nodes = (
"259 0 LINE",
"357 395 LINE",
"369 446 OFFCURVE",
"380 493 OFFCURVE",
"390 544 CURVE",
"394 544 LINE",
"404 493 OFFCURVE",
"415 446 OFFCURVE",
"426 395 CURVE",
"524 0 LINE",
"624 0 LINE",
"762 656 LINE",
"682 656 LINE",
"611 299 LINE",
"598 229 OFFCURVE",
"586 158 OFFCURVE",
"574 87 CURVE",
"570 87 LINE",
"554 158 OFFCURVE",
"538 230 OFFCURVE",
"522 299 CURVE",
"433 656 LINE",
"357 656 LINE",
"264 299 LINE",
"249 229 OFFCURVE",
"233 158 OFFCURVE",
"218 87 CURVE",
"214 87 LINE",
"202 158 OFFCURVE",
"188 228 OFFCURVE",
"176 299 CURVE",
"109 656 LINE",
"23 656 LINE",
"160 0 LINE"
);
}
);
width = 786.08;
}
);
leftKerningGroup = W;
rightKerningGroup = W;
unicode = 0057;
},
{
glyphname = X;
layers = (
{
anchors = (
{
name = aboveUC;
position = "{294, 672}";
},
{
name = belowLC;
position = "{282, -22}";
}
);
layerId = "42B3044F-4D5A-45CA-9EB7-C1889731596B";
paths = (
{
closed = 1;
nodes = (
"194 0 LINE",
"242 116 LINE SMOOTH",
"256 150 OFFCURVE",
"270 184 OFFCURVE",
"284 224 CURVE",
"288 224 LINE",
"304 184 OFFCURVE",
"318 150 OFFCURVE",
"334 116 CURVE SMOOTH",
"386 0 LINE",
"578 0 LINE",
"402 326 LINE",
"568 650 LINE",
"384 650 LINE",
"346 544 LINE SMOOTH",
"334 514 OFFCURVE",
"320 478 OFFCURVE",
"306 436 CURVE",
"302 436 LINE",
"284 478 OFFCURVE",
"270 514 OFFCURVE",
"256 544 CURVE SMOOTH",
"212 650 LINE",
"20 650 LINE",
"186 334 LINE",
"10 0 LINE"
);
}
);
width = 588;
},
{
anchors = (
{
name = aboveUC;
position = "{236, 682}";
},
{
name = belowLC;
position = "{234, -22}";
}
);
layerId = "0CAB57D4-4FC4-49C3-B456-FB7666EAA712";
paths = (
{
closed = 1;
nodes = (
"50 0 LINE",
"172 212 LINE SMOOTH",
"190 244 OFFCURVE",
"208 276 OFFCURVE",
"230 316 CURVE",
"234 316 LINE",
"258 276 OFFCURVE",
"278 244 OFFCURVE",
"296 212 CURVE SMOOTH",
"418 0 LINE",
"452 0 LINE",
"252 340 LINE",
"438 660 LINE",
"406 660 LINE",
"290 456 LINE SMOOTH",
"272 426 OFFCURVE",
"260 404 OFFCURVE",
"240 368 CURVE",
"236 368 LINE",
"214 404 OFFCURVE",
"200 426 OFFCURVE",
"182 456 CURVE SMOOTH",
"66 660 LINE",
"32 660 LINE",
"218 342 LINE",
"18 0 LINE"
);
}
);
width = 470;
},
{
anchors = (
{
name = aboveUC;
position = "{257, 678}";
},
{
name = belowLC;
position = "{252, -22}";
}
);
layerId = master01;
paths = (
{
closed = 1;
nodes = (
"102.992 0 LINE",
"198 177 LINE SMOOTH",
"214 209 OFFCURVE",
"231 242 OFFCURVE",
"250 282 CURVE",
"254 282 LINE",
"275 242 OFFCURVE",
"293 209 OFFCURVE",
"310 177 CURVE SMOOTH",
"406 0 LINE",
"498 0 LINE",
"307 335 LINE",
"486 656 LINE",
"398 656 LINE",
"311 488 LINE SMOOTH",
"295 458 OFFCURVE",
"282 431 OFFCURVE",
"264 393 CURVE",
"260 393 LINE",
"240 431 OFFCURVE",
"226 458 OFFCURVE",
"209 488 CURVE SMOOTH",
"120 656 LINE",
"28 656 LINE",
"206 339 LINE",
"15 0 LINE"
);
}
);
width = 513.424;
}
);
leftKerningGroup = X;
rightKerningGroup = X;
unicode = 0058;
},
{
glyphname = Y;
layers = (
{
anchors = (
{
name = aboveUC;
position = "{270, 672}";
},
{
name = aboverightUC;
position = "{500, 672}";
},
{
name = belowLC;
position = "{270, -22}";
}
);
layerId = "42B3044F-4D5A-45CA-9EB7-C1889731596B";
paths = (
{
closed = 1;
nodes = (
"358 0 LINE",
"358 224 LINE",
"554 650 LINE",
"374 650 LINE",
"326 514 LINE",
"309 465 OFFCURVE",
"292 420 OFFCURVE",
"275 369 CURVE",
"271 369 LINE",
"254 420 OFFCURVE",
"238 465 OFFCURVE",
"222 514 CURVE",
"174 650 LINE",
"-10 650 LINE",
"186 224 LINE",
"186 0 LINE"
);
}
);
width = 544;
},
{
anchors = (
{
name = aboveUC;
position = "{220, 682}";
},
{
name = aboverightUC;
position = "{430, 682}";
},
{
name = belowLC;
position = "{220, -22}";
}
);
layerId = "0CAB57D4-4FC4-49C3-B456-FB7666EAA712";
paths = (
{
closed = 1;
nodes = (
"234 0 LINE",
"234 272 LINE",
"432 660 LINE",
"400 660 LINE",
"294 446 LINE",
"272 398 OFFCURVE",
"246 352 OFFCURVE",
"220 304 CURVE",
"216 304 LINE",
"190 352 OFFCURVE",
"168 398 OFFCURVE",
"144 446 CURVE",
"38 660 LINE",
"4 660 LINE",
"202 272 LINE",
"202 0 LINE"
);
}
);
width = 436;
},
{
anchors = (
{
name = aboveUC;
position = "{238, 678}";
},
{
name = aboverightUC;
position = "{456, 678}";
},
{
name = belowLC;
position = "{238, -22}";
}
);
layerId = master01;
paths = (
{
closed = 1;
nodes = (
"280 0 LINE",
"280 254 LINE",
"477 656 LINE",
"390 656 LINE",
"306 471 LINE",
"286 423 OFFCURVE",
"263 377 OFFCURVE",
"240 328 CURVE",
"236 328 LINE",
"214 377 OFFCURVE",
"194 423 OFFCURVE",
"173 471 CURVE",
"88 656 LINE",
"-1 656 LINE",
"196 254 LINE",
"196 0 LINE"
);
}
);
width = 475.744;
}
);
leftKerningGroup = Y;
rightKerningGroup = Y;
unicode = 0059;
},
{
glyphname = Z;
layers = (
{
anchors = (
{
name = aboveUC;
position = "{284, 672}";
},
{
name = belowLC;
position = "{282, -22}";
}
);
layerId = "42B3044F-4D5A-45CA-9EB7-C1889731596B";
paths = (
{
closed = 1;
nodes = (
"512 0 LINE",
"512 144 LINE",
"244 144 LINE",
"510 546 LINE",
"510 650 LINE",
"58 650 LINE",
"58 506 LINE",
"298 506 LINE",
"32 104 LINE",
"32 0 LINE"
);
}
);
width = 542;
},
{
anchors = (
{
name = aboveUC;
position = "{278, 682}";
},
{
name = belowLC;
position = "{282, -22}";
}
);
layerId = "0CAB57D4-4FC4-49C3-B456-FB7666EAA712";
paths = (
{
closed = 1;
nodes = (
"488 0 LINE",
"488 28 LINE",
"92 28 LINE",
"484 642 LINE",
"484 660 LINE",
"86 660 LINE",
"86 632 LINE",
"444 632 LINE",
"52 18 LINE",
"52 0 LINE"
);
}
);
width = 538;
},
{
anchors = (
{
name = aboveUC;
position = "{280, 678}";
},
{
name = belowLC;
position = "{282, -22}";
}
);
layerId = master01;
paths = (
{
closed = 1;
nodes = (
"497 0 LINE",
"497 71 LINE",
"148 71 LINE",
"494 607 LINE",
"494 656 LINE",
"76 656 LINE",
"76 586 LINE",
"390 586 LINE",
"45 50 LINE",
"45 0 LINE"
);
}
);
width = 539.472;
}
);
leftKerningGroup = Z;
rightKerningGroup = Z;
unicode = 005A;
},
{
glyphname = a;
layers = (
{
anchors = (
{
name = aboveLC;
position = "{280, 522}";
},
{
name = belowLC;
position = "{260, -22}";
},
{
name = ogonekLC;
position = "{380, 0}";
}
);
layerId = "42B3044F-4D5A-45CA-9EB7-C1889731596B";
paths = (
{
closed = 1;
nodes = (
"242 -12 OFFCURVE",
"286 12 OFFCURVE",
"326 48 CURVE",
"330 48 LINE",
"342 0 LINE",
"482 0 LINE",
"482 278 LINE SMOOTH",
"482 442 OFFCURVE",
"404 512 OFFCURVE",
"274 512 CURVE SMOOTH",
"196 512 OFFCURVE",
"124 488 OFFCURVE",
"54 446 CURVE",
"114 336 LINE",
"166 364 OFFCURVE",
"204 376 OFFCURVE",
"240 376 CURVE SMOOTH",
"284 376 OFFCURVE",
"306 360 OFFCURVE",
"310 324 CURVE",
"118 304 OFFCURVE",
"38 246 OFFCURVE",
"38 142 CURVE SMOOTH",
"38 60 OFFCURVE",
"94 -12 OFFCURVE",
"188 -12 CURVE SMOOTH"
);
},
{
closed = 1;
nodes = (
"218 120 OFFCURVE",
"202 133 OFFCURVE",
"202 156 CURVE SMOOTH",
"202 184 OFFCURVE",
"228 210 OFFCURVE",
"310 222 CURVE",
"310 154 LINE",
"292 134 OFFCURVE",
"276 120 OFFCURVE",
"248 120 CURVE SMOOTH"
);
}
);
width = 536;
},
{
anchors = (
{
name = aboveLC;
position = "{260, 502}";
},
{
name = belowLC;
position = "{240, -22}";
},
{
name = ogonekLC;
position = "{354, 0}";
}
);
layerId = "0CAB57D4-4FC4-49C3-B456-FB7666EAA712";
paths = (
{
closed = 1;
nodes = (
"262 -12 OFFCURVE",
"322 24 OFFCURVE",
"372 64 CURVE",
"374 64 LINE",
"378 0 LINE",
"404 0 LINE",
"404 310 LINE SMOOTH",
"404 406 OFFCURVE",
"370 490 OFFCURVE",
"258 490 CURVE SMOOTH",
"180 490 OFFCURVE",
"114 452 OFFCURVE",
"84 428 CURVE",
"100 406 LINE",
"130 428 OFFCURVE",
"188 462 OFFCURVE",
"256 462 CURVE SMOOTH",
"356 462 OFFCURVE",
"376 376 OFFCURVE",
"374 298 CURVE",
"158 274 OFFCURVE",
"60 224 OFFCURVE",
"60 117 CURVE SMOOTH",
"60 26 OFFCURVE",
"124 -12 OFFCURVE",
"198 -12 CURVE SMOOTH"
);
},
{
closed = 1;
nodes = (
"142 16 OFFCURVE",
"92 44 OFFCURVE",
"92 118 CURVE SMOOTH",
"92 200 OFFCURVE",
"164 248 OFFCURVE",
"374 272 CURVE",
"374 98 LINE",
"310 44 OFFCURVE",
"258 16 OFFCURVE",
"200 16 CURVE SMOOTH"
);
}
);
width = 486;
},
{
anchors = (
{
name = aboveLC;
position = "{267, 509}";
},
{
name = belowLC;
position = "{247, -22}";
},
{
name = ogonekLC;
position = "{364, 0}";
}
);
layerId = master01;
paths = (
{
closed = 1;
nodes = (
"255 -12 OFFCURVE",
"309 20 OFFCURVE",
"355 58 CURVE",
"358 58 LINE",
"365 0 LINE",
"433 0 LINE",
"433 298 LINE SMOOTH",
"433 419 OFFCURVE",
"383 498 OFFCURVE",
"264 498 CURVE SMOOTH",
"186 498 OFFCURVE",
"118 465 OFFCURVE",
"73 435 CURVE",
"105 380 LINE",
"143 404 OFFCURVE",
"194 430 OFFCURVE",
"250 430 CURVE SMOOTH",
"330 430 OFFCURVE",
"350 370 OFFCURVE",
"350 308 CURVE",
"143 285 OFFCURVE",
"52 232 OFFCURVE",
"52 126 CURVE SMOOTH",
"52 39 OFFCURVE",
"113 -12 OFFCURVE",
"194 -12 CURVE SMOOTH"
);
},
{
closed = 1;
nodes = (
"170 54 OFFCURVE",
"132 77 OFFCURVE",
"132 132 CURVE SMOOTH",
"132 194 OFFCURVE",
"188 234 OFFCURVE",
"350 254 CURVE",
"350 119 LINE",
"303 77 OFFCURVE",
"265 54 OFFCURVE",
"218 54 CURVE SMOOTH"
);
}
);
width = 504.4;
}
);
leftKerningGroup = a;
rightKerningGroup = a;
unicode = 0061;
},
{
glyphname = ain;
layers = (
{
anchors = (
{
name = aboveLC;
position = "{300, 522}";
},
{
name = belowLC;
position = "{300, -22}";
}
);
layerId = "42B3044F-4D5A-45CA-9EB7-C1889731596B";
paths = (
{
closed = 1;
nodes = (
"164 -12 OFFCURVE",
"224 4 OFFCURVE",
"296 64 CURVE",
"368 4 OFFCURVE",
"428 -12 OFFCURVE",
"478 -12 CURVE SMOOTH",
"514 -12 OFFCURVE",
"555 0 OFFCURVE",
"576 16 CURVE",
"528 138 LINE",
"516 130 OFFCURVE",
"499 126 OFFCURVE",
"482 126 CURVE SMOOTH",
"452 126 OFFCURVE",
"428 137 OFFCURVE",
"402 158 CURVE",
"472 218 OFFCURVE",
"502 290 OFFCURVE",
"502 336 CURVE SMOOTH",
"502 442 OFFCURVE",
"418 512 OFFCURVE",
"296 512 CURVE SMOOTH",
"174 512 OFFCURVE",
"90 442 OFFCURVE",
"90 336 CURVE SMOOTH",
"90 290 OFFCURVE",
"120 218 OFFCURVE",
"190 158 CURVE",
"164 137 OFFCURVE",
"138 126 OFFCURVE",
"110 126 CURVE SMOOTH",
"92 126 OFFCURVE",
"76 130 OFFCURVE",
"64 138 CURVE",
"16 16 LINE",
"37 0 OFFCURVE",
"78 -12 OFFCURVE",
"114 -12 CURVE SMOOTH"
);
}
);
width = 592;
},
{
anchors = (
{
name = aboveLC;
position = "{230, 502}";
},
{
name = belowLC;
position = "{230, -22}";
}
);
layerId = "0CAB57D4-4FC4-49C3-B456-FB7666EAA712";
paths = (
{
closed = 1;
nodes = (
"134 -12 OFFCURVE",
"186 30 OFFCURVE",
"232 82 CURVE",
"277 30 OFFCURVE",
"330 -12 OFFCURVE",
"384 -12 CURVE SMOOTH",
"408 -12 OFFCURVE",
"430 -8 OFFCURVE",
"448 6 CURVE",
"436 28 LINE",
"420 18 OFFCURVE",
"405 16 OFFCURVE",
"387 16 CURVE SMOOTH",
"341 16 OFFCURVE",
"298 50 OFFCURVE",
"254 102 CURVE",
"324 170 OFFCURVE",
"386 250 OFFCURVE",
"386 334 CURVE SMOOTH",
"386 428 OFFCURVE",
"339 490 OFFCURVE",
"232 490 CURVE SMOOTH",
"125 490 OFFCURVE",
"78 428 OFFCURVE",
"78 334 CURVE SMOOTH",
"78 250 OFFCURVE",
"138 170 OFFCURVE",
"210 102 CURVE",
"166 50 OFFCURVE",
"122 16 OFFCURVE",
"77 16 CURVE SMOOTH",
"59 16 OFFCURVE",
"44 18 OFFCURVE",
"28 28 CURVE",
"16 6 LINE",
"34 -8 OFFCURVE",
"56 -12 OFFCURVE",
"80 -12 CURVE SMOOTH"
);
}
);
width = 464;
},
{
anchors = (
{
name = aboveLC;
position = "{256, 509}";
},
{
name = belowLC;
position = "{256, -22}";
}
);
layerId = master01;
paths = (
{
closed = 1;
nodes = (
"145 -12 OFFCURVE",
"200 20 OFFCURVE",
"256 75 CURVE",
"310 20 OFFCURVE",
"366 -12 OFFCURVE",
"419 -12 CURVE SMOOTH",
"447.008 -12 OFFCURVE",
"476 -5 OFFCURVE",
"495 10 CURVE",
"470 68 LINE",
"455 59 OFFCURVE",
"440 56 OFFCURVE",
"422 56 CURVE SMOOTH",
"382 56 OFFCURVE",
"346 82 OFFCURVE",
"308 123 CURVE",
"378 188 OFFCURVE",
"429 265 OFFCURVE",
"429 335 CURVE SMOOTH",
"429 433 OFFCURVE",
"368 498 OFFCURVE",
"256 498 CURVE SMOOTH",
"143 498 OFFCURVE",
"82 433 OFFCURVE",
"82 335 CURVE SMOOTH",
"82 265 OFFCURVE",
"131 188 OFFCURVE",
"203 123 CURVE",
"165 82 OFFCURVE",
"128 56 OFFCURVE",
"89 56 CURVE SMOOTH",
"71 56 OFFCURVE",
"56 59 OFFCURVE",
"41 68 CURVE",
"16 10 LINE",
"35 -5 OFFCURVE",
"64 -12 OFFCURVE",
"93 -12 CURVE SMOOTH"
);
}
);
width = 511.104;
}
);
unicode = 1D25;
},
{
glyphname = ainEgypt;
layers = (
{
layerId = "42B3044F-4D5A-45CA-9EB7-C1889731596B";
paths = (
{
closed = 1;
nodes = (
"282 306 LINE",
"208 312 OFFCURVE",
"188 335 OFFCURVE",
"188 362 CURVE SMOOTH",
"188 373 OFFCURVE",
"188 381 OFFCURVE",
"188 390 CURVE",
"140 390 LINE",
"158 379 OFFCURVE",
"188 368 OFFCURVE",
"214 368 CURVE SMOOTH",
"266 368 OFFCURVE",
"304 391 OFFCURVE",
"304 436 CURVE SMOOTH",
"304 484 OFFCURVE",
"266 512 OFFCURVE",
"192 512 CURVE SMOOTH",
"108 512 OFFCURVE",
"56 466 OFFCURVE",
"56 386 CURVE SMOOTH",
"56 298 OFFCURVE",
"110 238 OFFCURVE",
"262 236 CURVE"
);
}
);
width = 340;
},
{
layerId = "0CAB57D4-4FC4-49C3-B456-FB7666EAA712";
paths = (
{
closed = 1;
nodes = (
"186 272 LINE",
"126 282 OFFCURVE",
"84 320 OFFCURVE",
"84 380 CURVE SMOOTH",
"84 414 OFFCURVE",
"104 436 OFFCURVE",
"128 438 CURVE",
"122 438 LINE",
"122 413 OFFCURVE",
"138 398 OFFCURVE",
"160 398 CURVE SMOOTH",
"182 398 OFFCURVE",
"200 416 OFFCURVE",
"200 440 CURVE SMOOTH",
"200 470 OFFCURVE",
"178 490 OFFCURVE",
"144 490 CURVE SMOOTH",
"96 490 OFFCURVE",
"52 448 OFFCURVE",
"52 378 CURVE SMOOTH",
"52 308 OFFCURVE",
"102 258 OFFCURVE",
"182 248 CURVE"
);
}
);
width = 248;
},
{
layerId = master01;
paths = (
{
closed = 1;
nodes = (
"221 285 LINE",
"156 293 OFFCURVE",
"122 326 OFFCURVE",
"122 373 CURVE SMOOTH",
"122 399 OFFCURVE",
"135 416 OFFCURVE",
"150 420 CURVE",
"129 420 LINE",
"135 400 OFFCURVE",
"156 387 OFFCURVE",
"180 387 CURVE SMOOTH",
"213 387 OFFCURVE",
"238 407 OFFCURVE",
"238 439 CURVE SMOOTH",
"238 475 OFFCURVE",
"210 498 OFFCURVE",
"162 498 CURVE SMOOTH",
"100 498 OFFCURVE",
"53 455 OFFCURVE",
"53 381 CURVE SMOOTH",
"53 304 OFFCURVE",
"105 251 OFFCURVE",
"211 244 CURVE"
);
}
);
width = 281.856;
}
);
unicode = A725;
},
{
glyphname = alefEgypt;
layers = (
{
layerId = "42B3044F-4D5A-45CA-9EB7-C1889731596B";
paths = (
{
closed = 1;
nodes = (
"250 -10 OFFCURVE",
"304 48 OFFCURVE",
"304 132 CURVE SMOOTH",
"304 204 OFFCURVE",
"251 244 OFFCURVE",
"166 244 CURVE SMOOTH",
"93 244 OFFCURVE",
"56 216 OFFCURVE",
"56 168 CURVE SMOOTH",
"56 123 OFFCURVE",
"94 100 OFFCURVE",
"146 100 CURVE SMOOTH",
"172 100 OFFCURVE",
"202 111 OFFCURVE",
"220 122 CURVE",
"172 122 LINE",
"172 116 OFFCURVE",
"172 111 OFFCURVE",
"172 104 CURVE SMOOTH",
"172 82 OFFCURVE",
"152 64 OFFCURVE",
"78 58 CURVE",
"98 -12 LINE"
);
},
{
closed = 1;
nodes = (
"250 258 OFFCURVE",
"304 316 OFFCURVE",
"304 400 CURVE SMOOTH",
"304 472 OFFCURVE",
"254 512 OFFCURVE",
"174 512 CURVE SMOOTH",
"96 512 OFFCURVE",
"56 484 OFFCURVE",
"56 436 CURVE SMOOTH",
"56 391 OFFCURVE",
"94 368 OFFCURVE",
"146 368 CURVE SMOOTH",
"172 368 OFFCURVE",
"202 379 OFFCURVE",
"220 390 CURVE",
"172 390 LINE",
"172 384 OFFCURVE",
"172 379 OFFCURVE",
"172 372 CURVE SMOOTH",
"172 350 OFFCURVE",
"152 332 OFFCURVE",
"78 326 CURVE",
"98 256 LINE"
);
}
);
width = 340;
},
{
layerId = "0CAB57D4-4FC4-49C3-B456-FB7666EAA712";
paths = (
{
closed = 1;
nodes = (
"146 -2 OFFCURVE",
"196 40 OFFCURVE",
"196 112 CURVE SMOOTH",
"196 172 OFFCURVE",
"152 210 OFFCURVE",
"104 210 CURVE SMOOTH",
"70 210 OFFCURVE",
"48 190 OFFCURVE",
"48 160 CURVE SMOOTH",
"48 136 OFFCURVE",
"66 118 OFFCURVE",
"88 118 CURVE SMOOTH",
"110 118 OFFCURVE",
"126 133 OFFCURVE",
"126 158 CURVE",
"120 158 LINE",
"144 156 OFFCURVE",
"164 138 OFFCURVE",
"164 106 CURVE SMOOTH",
"164 52 OFFCURVE",
"122 22 OFFCURVE",
"62 12 CURVE",
"66 -12 LINE"
);
},
{
closed = 1;
nodes = (
"146 278 OFFCURVE",
"196 320 OFFCURVE",
"196 392 CURVE SMOOTH",
"196 452 OFFCURVE",
"152 490 OFFCURVE",
"104 490 CURVE SMOOTH",
"70 490 OFFCURVE",
"48 470 OFFCURVE",
"48 440 CURVE SMOOTH",
"48 416 OFFCURVE",
"66 398 OFFCURVE",
"88 398 CURVE SMOOTH",
"110 398 OFFCURVE",
"126 413 OFFCURVE",
"126 438 CURVE",
"120 438 LINE",
"144 436 OFFCURVE",
"164 418 OFFCURVE",
"164 386 CURVE SMOOTH",
"164 332 OFFCURVE",
"122 302 OFFCURVE",
"62 292 CURVE",
"66 268 LINE"
);
}
);
width = 248;
},
{
layerId = master01;
paths = (
{
closed = 1;
nodes = (
"184 -5 OFFCURVE",
"236 43 OFFCURVE",
"236 119 CURVE SMOOTH",
"236 184 OFFCURVE",
"188 223 OFFCURVE",
"127 223 CURVE SMOOTH",
"78 223 OFFCURVE",
"51 200 OFFCURVE",
"51 163 CURVE SMOOTH",
"51 131 OFFCURVE",
"76 111 OFFCURVE",
"109 111 CURVE SMOOTH",
"133 111 OFFCURVE",
"154 125 OFFCURVE",
"161 145 CURVE",
"139 145 LINE",
"154 141 OFFCURVE",
"167 128 OFFCURVE",
"167 105 CURVE SMOOTH",
"167 63 OFFCURVE",
"133 37 OFFCURVE",
"68 29 CURVE",
"78 -12 LINE"
);
},
{
closed = 1;
nodes = (
"184 271 OFFCURVE",
"236 319 OFFCURVE",
"236 395 CURVE SMOOTH",
"236 459 OFFCURVE",
"190 498 OFFCURVE",
"130 498 CURVE SMOOTH",
"80 498 OFFCURVE",
"51 475 OFFCURVE",
"51 439 CURVE SMOOTH",
"51 407 OFFCURVE",
"76 387 OFFCURVE",
"109 387 CURVE SMOOTH",
"133 387 OFFCURVE",
"154 400 OFFCURVE",
"161 420 CURVE",
"139 420 LINE",
"154 417 OFFCURVE",
"167 404 OFFCURVE",
"167 381 CURVE SMOOTH",
"167 339 OFFCURVE",
"133 313 OFFCURVE",
"68 305 CURVE",
"78 264 LINE"
);
}
);
width = 281.856;
}
);
unicode = A723;
},
{
glyphname = aogonek;
layers = (
{
anchors = (
{
name = aboveLC;
position = "{280, 522}";
}
);
layerId = "42B3044F-4D5A-45CA-9EB7-C1889731596B";
paths = (
{
closed = 1;
nodes = (
"444 -220 OFFCURVE",
"492 -206 OFFCURVE",
"522 -184 CURVE",
"488 -96 LINE",
"476 -102 OFFCURVE",
"460 -108 OFFCURVE",
"442 -108 CURVE SMOOTH",
"424 -108 OFFCURVE",
"404 -98 OFFCURVE",
"404 -76 CURVE SMOOTH",
"404 -49 OFFCURVE",
"422 -14 OFFCURVE",
"482 0 CURVE",
"482 278 LINE SMOOTH",
"482 442 OFFCURVE",
"404 512 OFFCURVE",
"274 512 CURVE SMOOTH",
"196 512 OFFCURVE",
"124 488 OFFCURVE",
"54 446 CURVE",
"114 336 LINE",
"166 364 OFFCURVE",
"204 376 OFFCURVE",
"240 376 CURVE SMOOTH",
"284 376 OFFCURVE",
"306 360 OFFCURVE",
"310 324 CURVE",
"118 304 OFFCURVE",
"38 246 OFFCURVE",
"38 142 CURVE SMOOTH",
"38 60 OFFCURVE",
"94 -12 OFFCURVE",
"188 -12 CURVE SMOOTH",
"242 -12 OFFCURVE",
"286 12 OFFCURVE",
"326 48 CURVE",
"330 48 LINE",
"344 -4 LINE",
"320 -18 OFFCURVE",
"280 -58 OFFCURVE",
"280 -116 CURVE SMOOTH",
"280 -186 OFFCURVE",
"336 -220 OFFCURVE",
"406 -220 CURVE SMOOTH"
);
},
{
closed = 1;
nodes = (
"218 120 OFFCURVE",
"202 133 OFFCURVE",
"202 156 CURVE SMOOTH",
"202 184 OFFCURVE",
"228 210 OFFCURVE",
"310 222 CURVE",
"310 154 LINE",
"292 134 OFFCURVE",
"276 120 OFFCURVE",
"248 120 CURVE SMOOTH"
);
}
);
width = 536;
},
{
anchors = (
{
name = aboveLC;
position = "{260, 502}";
}
);
layerId = "0CAB57D4-4FC4-49C3-B456-FB7666EAA712";
paths = (
{
closed = 1;
nodes = (
"408 -212 OFFCURVE",
"432 -198 OFFCURVE",
"448 -184 CURVE",
"434 -164 LINE",
"416 -178 OFFCURVE",
"402 -184 OFFCURVE",
"380 -184 CURVE SMOOTH",
"350 -184 OFFCURVE",
"322 -166 OFFCURVE",
"322 -124 CURVE SMOOTH",
"322 -80 OFFCURVE",
"360 -28 OFFCURVE",
"404 0 CURVE",
"404 310 LINE SMOOTH",
"404 406 OFFCURVE",
"370 490 OFFCURVE",
"258 490 CURVE SMOOTH",
"180 490 OFFCURVE",
"114 452 OFFCURVE",
"84 428 CURVE",
"100 406 LINE",
"130 428 OFFCURVE",
"188 462 OFFCURVE",
"256 462 CURVE SMOOTH",
"356 462 OFFCURVE",
"376 376 OFFCURVE",
"374 298 CURVE",
"158 274 OFFCURVE",
"60 224 OFFCURVE",
"60 116 CURVE SMOOTH",
"60 26 OFFCURVE",
"124 -12 OFFCURVE",
"198 -12 CURVE SMOOTH",
"262 -12 OFFCURVE",
"322 24 OFFCURVE",
"372 64 CURVE",
"374 64 LINE",
"378 8 LINE",
"332 -24 OFFCURVE",
"292 -76 OFFCURVE",
"292 -126 CURVE SMOOTH",
"292 -186 OFFCURVE",
"330 -212 OFFCURVE",
"378 -212 CURVE SMOOTH"
);
},
{
closed = 1;
nodes = (
"142 16 OFFCURVE",
"92 44 OFFCURVE",
"92 118 CURVE SMOOTH",
"92 200 OFFCURVE",
"164 248 OFFCURVE",
"374 272 CURVE",
"374 98 LINE",
"310 44 OFFCURVE",
"258 16 OFFCURVE",
"200 16 CURVE SMOOTH"
);
}
);
width = 486;
},
{
anchors = (
{
name = aboveLC;
position = "{267, 509}";
}
);
layerId = master01;
paths = (
{
closed = 1;
nodes = (
"421 -215 OFFCURVE",
"454 -201 OFFCURVE",
"475 -184 CURVE",
"454 -139 LINE",
"438 -150 OFFCURVE",
"423 -156 OFFCURVE",
"403 -156 CURVE SMOOTH",
"377 -156 OFFCURVE",
"352 -141 OFFCURVE",
"352 -106 CURVE SMOOTH",
"352 -69 OFFCURVE",
"383 -23 OFFCURVE",
"433 0 CURVE",
"433 298 LINE SMOOTH",
"433 419 OFFCURVE",
"383 498 OFFCURVE",
"264 498 CURVE SMOOTH",
"186 498 OFFCURVE",
"118 465 OFFCURVE",
"73 435 CURVE",
"105 380 LINE",
"143 404 OFFCURVE",
"194 430 OFFCURVE",
"250 430 CURVE SMOOTH",
"330 430 OFFCURVE",
"350 370 OFFCURVE",
"350 308 CURVE",
"143 285 OFFCURVE",
"52 232 OFFCURVE",
"52 126 CURVE SMOOTH",
"52 39 OFFCURVE",
"113 -12 OFFCURVE",
"194 -12 CURVE SMOOTH",
"255 -12 OFFCURVE",
"309 20 OFFCURVE",
"355 58 CURVE",
"358 58 LINE",
"365 4 LINE",
"328 -22 OFFCURVE",
"288 -69 OFFCURVE",
"288 -122 CURVE SMOOTH",
"288 -186 OFFCURVE",
"332 -215 OFFCURVE",
"388 -215 CURVE SMOOTH"
);
},
{
closed = 1;
nodes = (
"170 54 OFFCURVE",
"132 77 OFFCURVE",
"132 132 CURVE SMOOTH",
"132 194 OFFCURVE",
"188 234 OFFCURVE",
"350 254 CURVE",
"350 119 LINE",
"303 77 OFFCURVE",
"265 54 OFFCURVE",
"218 54 CURVE SMOOTH"
);
}
);
width = 504.4;
}
);
leftKerningGroup = a;
rightKerningGroup = a;
unicode = 0105;
},
{
glyphname = apicaldental;
layers = (
{
anchors = (
{
name = aboveLC;
position = "{140, 522}";
},
{
name = belowLC;
position = "{180, -182}";
}
);
layerId = "42B3044F-4D5A-45CA-9EB7-C1889731596B";
paths = (
{
closed = 1;
nodes = (
"270 -176 LINE",
"270 298 LINE SMOOTH",
"270 410 OFFCURVE",
"224 512 OFFCURVE",
"66 512 CURVE SMOOTH",
"25 512 OFFCURVE",
"2 506 OFFCURVE",
"-18 498 CURVE",
"12 372 LINE",
"22 376 OFFCURVE",
"29 378 OFFCURVE",
"38 378 CURVE SMOOTH",
"81 378 OFFCURVE",
"98 358 OFFCURVE",
"98 304 CURVE SMOOTH",
"98 -176 LINE"
);
}
);
width = 324;
},
{
anchors = (
{
name = aboveLC;
position = "{120, 502}";
},
{
name = belowLC;
position = "{130, -222}";
}
);
layerId = "0CAB57D4-4FC4-49C3-B456-FB7666EAA712";
paths = (
{
closed = 1;
nodes = (
"146 -222 LINE",
"146 358 LINE SMOOTH",
"146 450 OFFCURVE",
"114 490 OFFCURVE",
"48 490 CURVE SMOOTH",
"31 490 OFFCURVE",
"12 484 OFFCURVE",
"0 478 CURVE",
"10 454 LINE",
"20 458 OFFCURVE",
"34 462 OFFCURVE",
"50 462 CURVE SMOOTH",
"106 462 OFFCURVE",
"116 416 OFFCURVE",
"116 354 CURVE SMOOTH",
"116 -222 LINE"
);
}
);
width = 234;
},
{
anchors = (
{
name = aboveLC;
position = "{127, 509}";
},
{
name = belowLC;
position = "{148, -207}";
}
);
layerId = master01;
paths = (
{
closed = 1;
nodes = (
"192 -205 LINE",
"192 336 LINE SMOOTH",
"192 435 OFFCURVE",
"154 498 OFFCURVE",
"55 498 CURVE SMOOTH",
"29 498 OFFCURVE",
"8 492 OFFCURVE",
"-7 485 CURVE",
"11 424 LINE",
"21 428 OFFCURVE",
"32 431 OFFCURVE",
"46 431 CURVE SMOOTH",
"97 431 OFFCURVE",
"109 395 OFFCURVE",
"109 336 CURVE SMOOTH",
"109 -205 LINE"
);
}
);
width = 267.12;
}
);
unicode = 027F;
},
{
glyphname = ae;
layers = (
{
anchors = (
{
name = aboveLC;
position = "{406, 522}";
},
{
name = belowLC;
position = "{400, -22}";
}
);
layerId = "42B3044F-4D5A-45CA-9EB7-C1889731596B";
paths = (
{
closed = 1;
nodes = (
"255 -12 OFFCURVE",
"304 5 OFFCURVE",
"376 60 CURVE",
"419 15 OFFCURVE",
"476 -12 OFFCURVE",
"546 -12 CURVE",
"602 -12 OFFCURVE",
"674 8 OFFCURVE",
"728 46 CURVE",
"674 148 LINE",
"638 128 OFFCURVE",
"604 118 OFFCURVE",
"570 118 CURVE SMOOTH",
"518 118 OFFCURVE",
"476 144 OFFCURVE",
"464 200 CURVE",
"740 200 LINE",
"742 212 OFFCURVE",
"746 236 OFFCURVE",
"746 266 CURVE SMOOTH",
"746 400 OFFCURVE",
"680 512 OFFCURVE",
"544 512 CURVE",
"488 512 OFFCURVE",
"446 490 OFFCURVE",
"402 448 CURVE",
"370 488 OFFCURVE",
"322 512 OFFCURVE",
"264 512 CURVE SMOOTH",
"192 512 OFFCURVE",
"124 488 OFFCURVE",
"54 446 CURVE",
"114 336 LINE",
"166 364 OFFCURVE",
"204 376 OFFCURVE",
"240 376 CURVE SMOOTH",
"285 376 OFFCURVE",
"304 359 OFFCURVE",
"308 324 CURVE",
"118 304 OFFCURVE",
"38 246 OFFCURVE",
"38 142 CURVE SMOOTH",
"38 60 OFFCURVE",
"94 -12 OFFCURVE",
"188 -12 CURVE SMOOTH"
);
},
{
closed = 1;
nodes = (
"218 120 OFFCURVE",
"202 133 OFFCURVE",
"202 156 CURVE SMOOTH",
"202 185 OFFCURVE",
"231 210 OFFCURVE",
"306 222 CURVE",
"308 203 LINE SMOOTH",
"310 186 OFFCURVE",
"314 168 OFFCURVE",
"320 150 CURVE",
"300 132 OFFCURVE",
"277 120 OFFCURVE",
"248 120 CURVE SMOOTH"
);
},
{
closed = 1;
nodes = (
"474 358 OFFCURVE",
"500 382 OFFCURVE",
"538 382 CURVE SMOOTH",
"576 382 OFFCURVE",
"600 354 OFFCURVE",
"600 308 CURVE",
"464 308 LINE"
);
}
);
width = 782;
},
{
anchors = (
{
name = aboveLC;
position = "{406, 502}";
},
{
name = belowLC;
position = "{420, -22}";
}
);
layerId = "0CAB57D4-4FC4-49C3-B456-FB7666EAA712";
paths = (
{
closed = 1;
nodes = (
"258 -12 OFFCURVE",
"340 28 OFFCURVE",
"402 90 CURVE",
"436 40 OFFCURVE",
"486 -12 OFFCURVE",
"574 -12 CURVE SMOOTH",
"646 -12 OFFCURVE",
"682 8 OFFCURVE",
"718 34 CURVE",
"704 56 LINE",
"670 30 OFFCURVE",
"630 16 OFFCURVE",
"576 16 CURVE SMOOTH",
"474 16 OFFCURVE",
"396 110 OFFCURVE",
"398 238 CURVE",
"736 238 LINE",
"738 250 OFFCURVE",
"738 260 OFFCURVE",
"738 270 CURVE SMOOTH",
"738 412 OFFCURVE",
"672 490 OFFCURVE",
"562 490 CURVE SMOOTH",
"490 490 OFFCURVE",
"426 440 OFFCURVE",
"392 364 CURVE",
"378 440 OFFCURVE",
"332 490 OFFCURVE",
"252 490 CURVE SMOOTH",
"180 490 OFFCURVE",
"114 452 OFFCURVE",
"84 428 CURVE",
"100 406 LINE",
"130 428 OFFCURVE",
"188 462 OFFCURVE",
"250 462 CURVE SMOOTH",
"350 462 OFFCURVE",
"370 376 OFFCURVE",
"368 298 CURVE",
"160 274 OFFCURVE",
"60 224 OFFCURVE",
"60 116 CURVE SMOOTH",
"60 26 OFFCURVE",
"124 -12 OFFCURVE",
"198 -12 CURVE SMOOTH"
);
},
{
closed = 1;
nodes = (
"142 16 OFFCURVE",
"92 44 OFFCURVE",
"92 118 CURVE SMOOTH",
"92 200 OFFCURVE",
"168 248 OFFCURVE",
"368 272 CURVE",
"368 244 LINE SMOOTH",
"368 196 OFFCURVE",
"376 146 OFFCURVE",
"390 116 CURVE",
"332 52 OFFCURVE",
"254 16 OFFCURVE",
"200 16 CURVE SMOOTH"
);
},
{
closed = 1;
nodes = (
"408 380 OFFCURVE",
"478 462 OFFCURVE",
"562 462 CURVE SMOOTH",
"652 462 OFFCURVE",
"708 396 OFFCURVE",
"708 264 CURVE",
"398 264 LINE"
);
}
);
width = 776;
},
{
anchors = (
{
name = aboveLC;
position = "{406, 509}";
},
{
name = belowLC;
position = "{413, -22}";
}
);
layerId = master01;
paths = (
{
closed = 1;
nodes = (
"257 -12 OFFCURVE",
"327 20 OFFCURVE",
"392 79 CURVE",
"430 31 OFFCURVE",
"482 -12 OFFCURVE",
"564 -12 CURVE SMOOTH",
"630 -12 OFFCURVE",
"679 8 OFFCURVE",
"722 38 CURVE",
"693 90 LINE",
"658 66 OFFCURVE",
"620 54 OFFCURVE",
"574 54 CURVE SMOOTH",
"490 54 OFFCURVE",
"425 123 OFFCURVE",
"422 224 CURVE",
"737 224 LINE",
"739 236 OFFCURVE",
"741 251 OFFCURVE",
"741 269 CURVE SMOOTH",
"741 408 OFFCURVE",
"675 498 OFFCURVE",
"555 498 CURVE SMOOTH",
"489 498 OFFCURVE",
"433 458 OFFCURVE",
"396 395 CURVE",
"375 458 OFFCURVE",
"328 498 OFFCURVE",
"256 498 CURVE SMOOTH",
"184 498 OFFCURVE",
"118 465 OFFCURVE",
"73 435 CURVE",
"105 380 LINE",
"143 404 OFFCURVE",
"194 430 OFFCURVE",
"246 430 CURVE SMOOTH",
"326 430 OFFCURVE",
"346 370 OFFCURVE",
"346 308 CURVE",
"145 285 OFFCURVE",
"52 232 OFFCURVE",
"52 126 CURVE SMOOTH",
"52 39 OFFCURVE",
"113 -12 OFFCURVE",
"194 -12 CURVE SMOOTH"
);
},
{
closed = 1;
nodes = (
"170 54 OFFCURVE",
"132 77 OFFCURVE",
"132 132 CURVE SMOOTH",
"132 194 OFFCURVE",
"191 234 OFFCURVE",
"345 254 CURVE",
"346 229 LINE SMOOTH",
"347 192 OFFCURVE",
"353 154 OFFCURVE",
"364 129 CURVE",
"320 81 OFFCURVE",
"262 54 OFFCURVE",
"218 54 CURVE SMOOTH"
);
},
{
closed = 1;
nodes = (
"432 372 OFFCURVE",
"486 433 OFFCURVE",
"553 433 CURVE SMOOTH",
"624 433 OFFCURVE",
"668 381 OFFCURVE",
"668 280 CURVE",
"422 280 LINE"
);
}
);
width = 778.208;
}
);
leftKerningGroup = a;
rightKerningGroup = e;
unicode = 00E6;
},
{
glyphname = b;
layers = (
{
anchors = (
{
name = aboveUC;
position = "{320, 722}";
},
{
name = belowLC;
position = "{290, -22}";
},
{
name = center;
position = "{150, 580}";
}
);
layerId = "42B3044F-4D5A-45CA-9EB7-C1889731596B";
paths = (
{
closed = 1;
nodes = (
"442 -12 OFFCURVE",
"544 86 OFFCURVE",
"544 259 CURVE SMOOTH",
"544 412 OFFCURVE",
"467 512 OFFCURVE",
"349 512 CURVE SMOOTH",
"305 512 OFFCURVE",
"261 494 OFFCURVE",
"226 462 CURVE",
"230 534 LINE",
"230 696 LINE",
"58 696 LINE",
"58 0 LINE",
"192 0 LINE",
"206 54 LINE",
"210 54 LINE",
"248 10 OFFCURVE",
"292 -12 OFFCURVE",
"336 -12 CURVE SMOOTH"
);
},
{
closed = 1;
nodes = (
"272 128 OFFCURVE",
"250 134 OFFCURVE",
"230 152 CURVE",
"230 336 LINE",
"252 362 OFFCURVE",
"272 372 OFFCURVE",
"298 372 CURVE SMOOTH",
"344 372 OFFCURVE",
"368 338 OFFCURVE",
"368 256 CURVE SMOOTH",
"368 160 OFFCURVE",
"334 128 OFFCURVE",
"294 128 CURVE SMOOTH"
);
}
);
width = 580;
},
{
anchors = (
{
name = aboveUC;
position = "{280, 732}";
},
{
name = belowLC;
position = "{300, -22}";
},
{
name = center;
position = "{110, 600}";
}
);
layerId = "0CAB57D4-4FC4-49C3-B456-FB7666EAA712";
paths = (
{
closed = 1;
nodes = (
"388 -12 OFFCURVE",
"486 84 OFFCURVE",
"486 246 CURVE SMOOTH",
"486 394 OFFCURVE",
"424 490 OFFCURVE",
"294 490 CURVE SMOOTH",
"234 490 OFFCURVE",
"174 454 OFFCURVE",
"124 412 CURVE",
"126 508 LINE",
"126 722 LINE",
"96 722 LINE",
"96 0 LINE",
"122 0 LINE",
"126 48 LINE",
"128 48 LINE",
"174 12 OFFCURVE",
"228 -12 OFFCURVE",
"274 -12 CURVE SMOOTH"
);
},
{
closed = 1;
nodes = (
"238 16 OFFCURVE",
"182 34 OFFCURVE",
"126 82 CURVE",
"126 378 LINE",
"186 432 OFFCURVE",
"242 462 OFFCURVE",
"292 462 CURVE SMOOTH",
"410 462 OFFCURVE",
"454 368 OFFCURVE",
"454 246 CURVE SMOOTH",
"454 112 OFFCURVE",
"380 16 OFFCURVE",
"276 16 CURVE SMOOTH"
);
}
);
width = 538;
},
{
anchors = (
{
name = aboveUC;
position = "{295, 728}";
},
{
name = belowLC;
position = "{296, -22}";
},
{
name = center;
position = "{125, 593}";
}
);
layerId = master01;
paths = (
{
closed = 1;
nodes = (
"408 -12 OFFCURVE",
"507 85 OFFCURVE",
"507 251 CURVE SMOOTH",
"507 401 OFFCURVE",
"440 498 OFFCURVE",
"314 498 CURVE SMOOTH",
"260 498 OFFCURVE",
"206 469 OFFCURVE",
"162 430 CURVE",
"164 518 LINE",
"164 712 LINE",
"82 712 LINE",
"82 0 LINE",
"148 0 LINE",
"155 50 LINE",
"158 50 LINE",
"201 11 OFFCURVE",
"252 -12 OFFCURVE",
"297 -12 CURVE SMOOTH"
);
},
{
closed = 1;
nodes = (
"251 57 OFFCURVE",
"207 71 OFFCURVE",
"164 108 CURVE",
"164 363 LINE",
"210 406 OFFCURVE",
"253 429 OFFCURVE",
"294 429 CURVE SMOOTH",
"386 429 OFFCURVE",
"422 357 OFFCURVE",
"422 250 CURVE SMOOTH",
"422 130 OFFCURVE",
"363 57 OFFCURVE",
"283 57 CURVE SMOOTH"
);
}
);
width = 553.456;
}
);
leftKerningGroup = l;
rightKerningGroup = o;
unicode = 0062;
},
{
glyphname = bstroke;
layers = (
{
layerId = "42B3044F-4D5A-45CA-9EB7-C1889731596B";
paths = (
{
closed = 1;
nodes = (
"442 -12 OFFCURVE",
"544 82 OFFCURVE",
"544 235 CURVE SMOOTH",
"544 370 OFFCURVE",
"467 462 OFFCURVE",
"349 462 CURVE SMOOTH",
"305 462 OFFCURVE",
"261 444 OFFCURVE",
"226 412 CURVE",
"230 484 LINE",
"230 696 LINE",
"58 696 LINE",
"58 0 LINE",
"192 0 LINE",
"206 54 LINE",
"210 54 LINE",
"248 10 OFFCURVE",
"292 -12 OFFCURVE",
"336 -12 CURVE SMOOTH"
);
},
{
closed = 1;
nodes = (
"272 128 OFFCURVE",
"250 134 OFFCURVE",
"230 152 CURVE",
"230 286 LINE",
"252 312 OFFCURVE",
"272 322 OFFCURVE",
"298 322 CURVE SMOOTH",
"344 322 OFFCURVE",
"368 292 OFFCURVE",
"368 232 CURVE SMOOTH",
"368 160 OFFCURVE",
"334 128 OFFCURVE",
"294 128 CURVE SMOOTH"
);
},
{
closed = 1;
nodes = (
"394 518 LINE",
"394 630 LINE",
"68 630 LINE",
"-8 624 LINE",
"-8 518 LINE"
);
}
);
width = 580;
},
{
layerId = "0CAB57D4-4FC4-49C3-B456-FB7666EAA712";
paths = (
{
closed = 1;
nodes = (
"408 -12 OFFCURVE",
"506 78 OFFCURVE",
"506 230 CURVE SMOOTH",
"506 368 OFFCURVE",
"444 458 OFFCURVE",
"314 458 CURVE SMOOTH",
"254 458 OFFCURVE",
"194 422 OFFCURVE",
"144 380 CURVE",
"146 476 LINE",
"146 722 LINE",
"116 722 LINE",
"116 0 LINE",
"142 0 LINE",
"146 48 LINE",
"148 48 LINE",
"194 12 OFFCURVE",
"248 -12 OFFCURVE",
"294 -12 CURVE SMOOTH"
);
},
{
closed = 1;
nodes = (
"258 16 OFFCURVE",
"202 34 OFFCURVE",
"146 82 CURVE",
"146 346 LINE",
"206 400 OFFCURVE",
"262 430 OFFCURVE",
"312 430 CURVE SMOOTH",
"430 430 OFFCURVE",
"474 342 OFFCURVE",
"474 230 CURVE SMOOTH",
"474 106 OFFCURVE",
"400 16 OFFCURVE",
"296 16 CURVE SMOOTH"
);
},
{
closed = 1;
nodes = (
"338 584 LINE",
"338 612 LINE",
"116 612 LINE",
"22 608 LINE",
"22 584 LINE"
);
}
);
width = 558;
},
{
layerId = master01;
paths = (
{
closed = 1;
nodes = (
"421 -12 OFFCURVE",
"520 79 OFFCURVE",
"520 232 CURVE SMOOTH",
"520 369 OFFCURVE",
"452 459 OFFCURVE",
"327 459 CURVE SMOOTH",
"273 459 OFFCURVE",
"219 430 OFFCURVE",
"174 392 CURVE",
"177 479 LINE",
"177 712 LINE",
"95 712 LINE",
"95 0 LINE",
"160 0 LINE",
"168 50 LINE",
"171 50 LINE",
"214 11 OFFCURVE",
"264 -12 OFFCURVE",
"309 -12 CURVE SMOOTH"
);
},
{
closed = 1;
nodes = (
"263 57 OFFCURVE",
"220 71 OFFCURVE",
"177 108 CURVE",
"177 324 LINE",
"223 368 OFFCURVE",
"266 390 OFFCURVE",
"307 390 CURVE SMOOTH",
"398 390 OFFCURVE",
"435 324 OFFCURVE",
"435 231 CURVE SMOOTH",
"435 126 OFFCURVE",
"376 57 OFFCURVE",
"295 57 CURVE SMOOTH"
);
},
{
closed = 1;
nodes = (
"359 560 LINE",
"359 619 LINE",
"98 619 LINE",
"11 614 LINE",
"11 560 LINE"
);
}
);
width = 566.096;
}
);
leftKerningGroup = hbar;
rightKerningGroup = o;
unicode = 0180;
},
{
glyphname = c;
layers = (
{
anchors = (
{
name = aboveLC;
position = "{280, 522}";
},
{
name = aboverightLC;
position = "{420, 522}";
},
{
name = baseLC;
position = "{260, 0}";
},
{
name = belowLC;
position = "{260, -22}";
}
);
layerId = "42B3044F-4D5A-45CA-9EB7-C1889731596B";
paths = (
{
closed = 1;
nodes = (
"348 -12 OFFCURVE",
"409 10 OFFCURVE",
"450 48 CURVE",
"384 154 LINE",
"360 136 OFFCURVE",
"334 126 OFFCURVE",
"306 126 CURVE SMOOTH",
"250 126 OFFCURVE",
"208 174 OFFCURVE",
"208 250 CURVE SMOOTH",
"208 326 OFFCURVE",
"248 374 OFFCURVE",
"310 374 CURVE SMOOTH",
"334 374 OFFCURVE",
"350 366 OFFCURVE",
"366 354 CURVE",
"446 460 LINE",
"410 492 OFFCURVE",
"360 512 OFFCURVE",
"300 512 CURVE SMOOTH",
"158 512 OFFCURVE",
"32 416 OFFCURVE",
"32 250 CURVE SMOOTH",
"32 84 OFFCURVE",
"142 -12 OFFCURVE",
"288 -12 CURVE SMOOTH"
);
}
);
width = 472;
},
{
anchors = (
{
name = aboveLC;
position = "{270, 502}";
},
{
name = aboverightLC;
position = "{410, 502}";
},
{
name = baseLC;
position = "{270, 0}";
},
{
name = belowLC;
position = "{270, -22}";
}
);
layerId = "0CAB57D4-4FC4-49C3-B456-FB7666EAA712";
paths = (
{
closed = 1;
nodes = (
"330 -12 OFFCURVE",
"380 14 OFFCURVE",
"420 54 CURVE",
"402 72 LINE",
"370 39 OFFCURVE",
"322 16 OFFCURVE",
"268 16 CURVE SMOOTH",
"158 16 OFFCURVE",
"86 106 OFFCURVE",
"86 238 CURVE SMOOTH",
"86 370 OFFCURVE",
"166 462 OFFCURVE",
"268 462 CURVE SMOOTH",
"320 462 OFFCURVE",
"360 442 OFFCURVE",
"390 412 CURVE",
"408 430 LINE",
"376 464 OFFCURVE",
"334 490 OFFCURVE",
"268 490 CURVE SMOOTH",
"154 490 OFFCURVE",
"54 398 OFFCURVE",
"54 238 CURVE SMOOTH",
"54 80 OFFCURVE",
"146 -12 OFFCURVE",
"268 -12 CURVE SMOOTH"
);
}
);
width = 446;
},
{
anchors = (
{
name = aboveLC;
position = "{274, 509}";
},
{
name = aboverightLC;
position = "{414, 509}";
},
{
name = baseLC;
position = "{266, 0}";
},
{
name = belowLC;
position = "{266, -22}";
}
);
layerId = master01;
paths = (
{
closed = 1;
nodes = (
"337 -12 OFFCURVE",
"391 13 OFFCURVE",
"431 52 CURVE",
"395 102 LINE",
"366 75 OFFCURVE",
"326 56 OFFCURVE",
"282 56 CURVE SMOOTH",
"192 56 OFFCURVE",
"131 131 OFFCURVE",
"131 242 CURVE SMOOTH",
"131 354 OFFCURVE",
"196 430 OFFCURVE",
"283 430 CURVE SMOOTH",
"325 430 OFFCURVE",
"356 414 OFFCURVE",
"381 391 CURVE",
"422 441 LINE",
"389 474 OFFCURVE",
"344 498 OFFCURVE",
"280 498 CURVE SMOOTH",
"155 498 OFFCURVE",
"46 405 OFFCURVE",
"46 242 CURVE SMOOTH",
"46 81 OFFCURVE",
"145 -12 OFFCURVE",
"275 -12 CURVE SMOOTH"
);
}
);
width = 455.568;
}
);
leftKerningGroup = o;
rightKerningGroup = c;
unicode = 0063;
},
{
glyphname = d;
layers = (
{
anchors = (
{
name = aboveUC;
position = "{280, 722}";
},
{
name = belowLC;
position = "{280, -22}";
},
{
name = center;
position = "{430, 580}";
}
);
layerId = "42B3044F-4D5A-45CA-9EB7-C1889731596B";
paths = (
{
closed = 1;
nodes = (
"284 -12 OFFCURVE",
"332 12 OFFCURVE",
"366 46 CURVE",
"370 46 LINE",
"382 0 LINE",
"522 0 LINE",
"522 696 LINE",
"350 696 LINE",
"350 534 LINE",
"356 462 LINE",
"326 492 OFFCURVE",
"294 512 OFFCURVE",
"240 512 CURVE SMOOTH",
"138 512 OFFCURVE",
"36 414 OFFCURVE",
"36 250 CURVE SMOOTH",
"36 88 OFFCURVE",
"116 -12 OFFCURVE",
"240 -12 CURVE SMOOTH"
);
},
{
closed = 1;
nodes = (
"240 128 OFFCURVE",
"212 162 OFFCURVE",
"212 252 CURVE SMOOTH",
"212 340 OFFCURVE",
"246 372 OFFCURVE",
"282 372 CURVE SMOOTH",
"304 372 OFFCURVE",
"330 366 OFFCURVE",
"350 348 CURVE",
"350 164 LINE",
"332 136 OFFCURVE",
"312 128 OFFCURVE",
"286 128 CURVE SMOOTH"
);
}
);
width = 580;
},
{
anchors = (
{
name = aboveUC;
position = "{260, 732}";
},
{
name = belowLC;
position = "{270, -22}";
},
{
name = center;
position = "{430, 600}";
}
);
layerId = "0CAB57D4-4FC4-49C3-B456-FB7666EAA712";
paths = (
{
closed = 1;
nodes = (
"318 -12 OFFCURVE",
"372 24 OFFCURVE",
"412 64 CURVE",
"414 64 LINE",
"418 0 LINE",
"444 0 LINE",
"444 722 LINE",
"414 722 LINE",
"414 520 LINE",
"416 430 LINE",
"366 468 OFFCURVE",
"326 490 OFFCURVE",
"268 490 CURVE SMOOTH",
"152 490 OFFCURVE",
"54 392 OFFCURVE",
"54 238 CURVE SMOOTH",
"54 76 OFFCURVE",
"132 -12 OFFCURVE",
"252 -12 CURVE SMOOTH"
);
},
{
closed = 1;
nodes = (
"146 16 OFFCURVE",
"86 106 OFFCURVE",
"86 238 CURVE SMOOTH",
"86 362 OFFCURVE",
"164 462 OFFCURVE",
"266 462 CURVE SMOOTH",
"316 462 OFFCURVE",
"360 444 OFFCURVE",
"414 396 CURVE",
"414 100 LINE",
"360 46 OFFCURVE",
"310 16 OFFCURVE",
"254 16 CURVE SMOOTH"
);
}
);
width = 540;
},
{
anchors = (
{
name = aboveUC;
position = "{267, 728}";
},
{
name = belowLC;
position = "{274, -22}";
},
{
name = center;
position = "{430, 593}";
}
);
layerId = master01;
paths = (
{
closed = 1;
nodes = (
"305 -12 OFFCURVE",
"357 20 OFFCURVE",
"395 57 CURVE",
"398 57 LINE",
"405 0 LINE",
"473 0 LINE",
"473 712 LINE",
"390 712 LINE",
"390 525 LINE",
"394 442 LINE",
"351 477 OFFCURVE",
"314 498 OFFCURVE",
"258 498 CURVE SMOOTH",
"147 498 OFFCURVE",
"47 400 OFFCURVE",
"47 242 CURVE SMOOTH",
"47 80 OFFCURVE",
"126 -12 OFFCURVE",
"248 -12 CURVE SMOOTH"
);
},
{
closed = 1;
nodes = (
"181 57 OFFCURVE",
"132 127 OFFCURVE",
"132 243 CURVE SMOOTH",
"132 354 OFFCURVE",
"194 429 OFFCURVE",
"272 429 CURVE SMOOTH",
"312 429 OFFCURVE",
"349 415 OFFCURVE",
"390 378 CURVE",
"390 124 LINE",
"350 79 OFFCURVE",
"311 57 OFFCURVE",
"266 57 CURVE SMOOTH"
);
}
);
width = 554.72;
}
);
leftKerningGroup = o;
rightKerningGroup = d;
unicode = 0064;
},
{
color = (255,255,0,255);
glyphname = eth;
layers = (
{
anchors = (
{
name = aboveUC;
position = "{300, 722}";
},
{
name = belowLC;
position = "{270, -22}";
}
);
layerId = "42B3044F-4D5A-45CA-9EB7-C1889731596B";
paths = (
{
closed = 1;
nodes = (
"428 -12 OFFCURVE",
"520 108 OFFCURVE",
"520 270 CURVE SMOOTH",
"520 536 OFFCURVE",
"336 664 OFFCURVE",
"157 744 CURVE",
"83 640 LINE",
"274 554 OFFCURVE",
"360 452 OFFCURVE",
"360 260 CURVE SMOOTH",
"360 162 OFFCURVE",
"324 126 OFFCURVE",
"280 126 CURVE SMOOTH",
"234 126 OFFCURVE",
"194 160 OFFCURVE",
"194 230 CURVE SMOOTH",
"194 305 OFFCURVE",
"231 332 OFFCURVE",
"276 332 CURVE SMOOTH",
"310 332 OFFCURVE",
"340 321 OFFCURVE",
"366 292 CURVE",
"364 378 LINE",
"344 438 OFFCURVE",
"292 458 OFFCURVE",
"244 458 CURVE SMOOTH",
"142 458 OFFCURVE",
"38 376 OFFCURVE",
"38 230 CURVE SMOOTH",
"38 82 OFFCURVE",
"146 -12 OFFCURVE",
"274 -12 CURVE SMOOTH"
);
},
{
closed = 1;
nodes = (
"492 658 LINE",
"450 734 LINE",
"64 542 LINE",
"106 466 LINE"
);
}
);
width = 562;
},
{
anchors = (
{
name = aboveUC;
position = "{280, 732}";
},
{
name = belowLC;
position = "{270, -22}";
}
);
layerId = "0CAB57D4-4FC4-49C3-B456-FB7666EAA712";
paths = (
{
closed = 1;
nodes = (
"382 -12 OFFCURVE",
"464 90 OFFCURVE",
"464 250 CURVE SMOOTH",
"464 520 OFFCURVE",
"318 650 OFFCURVE",
"132 724 CURVE",
"118 702 LINE",
"296 626 OFFCURVE",
"432 512 OFFCURVE",
"432 250 CURVE SMOOTH",
"432 122 OFFCURVE",
"382 16 OFFCURVE",
"266 16 CURVE SMOOTH",
"172 16 OFFCURVE",
"94 100 OFFCURVE",
"94 218 CURVE SMOOTH",
"94 320 OFFCURVE",
"153 412 OFFCURVE",
"268 412 CURVE SMOOTH",
"322 412 OFFCURVE",
"378 394 OFFCURVE",
"434 308 CURVE",
"434 346 LINE",
"392 408 OFFCURVE",
"334 440 OFFCURVE",
"270 440 CURVE SMOOTH",
"144 440 OFFCURVE",
"62 348 OFFCURVE",
"62 218 CURVE SMOOTH",
"62 74 OFFCURVE",
"162 -12 OFFCURVE",
"266 -12 CURVE SMOOTH"
);
},
{
closed = 1;
nodes = (
"444 678 LINE",
"432 700 LINE",
"130 542 LINE",
"142 520 LINE"
);
}
);
width = 532;
},
{
anchors = (
{
name = aboveUC;
position = "{287, 728}";
},
{
name = belowLC;
position = "{270, -22}";
}
);
layerId = master01;
paths = (
{
closed = 1;
nodes = (
"399 -12 OFFCURVE",
"485 97 OFFCURVE",
"485 257 CURVE SMOOTH",
"485 526 OFFCURVE",
"325 655 OFFCURVE",
"141 731 CURVE",
"105 679 LINE",
"288 600 OFFCURVE",
"406 490 OFFCURVE",
"406 254 CURVE SMOOTH",
"406 137 OFFCURVE",
"361 56 OFFCURVE",
"271 56 CURVE SMOOTH",
"195 56 OFFCURVE",
"131 122 OFFCURVE",
"131 222 CURVE SMOOTH",
"131 314 OFFCURVE",
"182 383 OFFCURVE",
"271 383 CURVE SMOOTH",
"318 383 OFFCURVE",
"364 367 OFFCURVE",
"409 302 CURVE",
"408 358 LINE",
"374 419 OFFCURVE",
"319 447 OFFCURVE",
"260 447 CURVE SMOOTH",
"143 447 OFFCURVE",
"53 358 OFFCURVE",
"53 222 CURVE SMOOTH",
"53 77 OFFCURVE",
"156 -12 OFFCURVE",
"269 -12 CURVE SMOOTH"
);
},
{
closed = 1;
nodes = (
"462 671 LINE",
"439 713 LINE",
"106 542 LINE",
"129 500 LINE"
);
}
);
width = 543.04;
}
);
leftKerningGroup = eth;
rightKerningGroup = eth;
unicode = 00F0;
},
{
glyphname = dcroat;
layers = (
{
anchors = (
{
name = aboveUC;
position = "{280, 722}";
},
{
name = belowLC;
position = "{280, -22}";
}
);
layerId = "42B3044F-4D5A-45CA-9EB7-C1889731596B";
paths = (
{
closed = 1;
nodes = (
"286 -12 OFFCURVE",
"331 8 OFFCURVE",
"364 40 CURVE",
"368 40 LINE",
"378 0 LINE",
"522 0 LINE",
"522 696 LINE",
"350 696 LINE",
"350 484 LINE",
"356 412 LINE",
"326 442 OFFCURVE",
"294 462 OFFCURVE",
"240 462 CURVE SMOOTH",
"138 462 OFFCURVE",
"36 368 OFFCURVE",
"36 226 CURVE SMOOTH",
"36 84 OFFCURVE",
"116 -12 OFFCURVE",
"240 -12 CURVE SMOOTH"
);
},
{
closed = 1;
nodes = (
"240 128 OFFCURVE",
"212 160 OFFCURVE",
"212 228 CURVE SMOOTH",
"212 294 OFFCURVE",
"246 322 OFFCURVE",
"282 322 CURVE SMOOTH",
"304 322 OFFCURVE",
"329 315 OFFCURVE",
"350 296 CURVE",
"350 164 LINE",
"332 136 OFFCURVE",
"312 128 OFFCURVE",
"286 128 CURVE SMOOTH"
);
},
{
closed = 1;
nodes = (
"512 518 LINE",
"588 524 LINE",
"588 630 LINE",
"186 630 LINE",
"186 518 LINE"
);
}
);
width = 580;
},
{
anchors = (
{
name = aboveUC;
position = "{260, 732}";
},
{
name = belowLC;
position = "{270, -22}";
}
);
layerId = "0CAB57D4-4FC4-49C3-B456-FB7666EAA712";
paths = (
{
closed = 1;
nodes = (
"318 -12 OFFCURVE",
"372 24 OFFCURVE",
"412 64 CURVE",
"414 64 LINE",
"418 0 LINE",
"444 0 LINE",
"444 722 LINE",
"414 722 LINE",
"414 488 LINE",
"416 398 LINE",
"366 436 OFFCURVE",
"326 458 OFFCURVE",
"268 458 CURVE SMOOTH",
"152 458 OFFCURVE",
"54 366 OFFCURVE",
"54 222 CURVE SMOOTH",
"54 70 OFFCURVE",
"132 -12 OFFCURVE",
"252 -12 CURVE SMOOTH"
);
},
{
closed = 1;
nodes = (
"146 16 OFFCURVE",
"86 100 OFFCURVE",
"86 222 CURVE SMOOTH",
"86 336 OFFCURVE",
"164 430 OFFCURVE",
"266 430 CURVE SMOOTH",
"316 430 OFFCURVE",
"360 412 OFFCURVE",
"414 364 CURVE",
"414 100 LINE",
"360 46 OFFCURVE",
"310 16 OFFCURVE",
"254 16 CURVE SMOOTH"
);
},
{
closed = 1;
nodes = (
"444 584 LINE",
"538 588 LINE",
"538 612 LINE",
"222 612 LINE",
"222 584 LINE"
);
}
);
width = 560;
},
{
anchors = (
{
name = aboveUC;
position = "{267, 728}";
},
{
name = belowLC;
position = "{274, -22}";
}
);
layerId = master01;
paths = (
{
closed = 1;
nodes = (
"306 -12 OFFCURVE",
"357 18 OFFCURVE",
"394 55 CURVE",
"397 55 LINE",
"403 0 LINE",
"473 0 LINE",
"473 712 LINE",
"390 712 LINE",
"390 487 LINE",
"394 403 LINE",
"351 438 OFFCURVE",
"314 459 OFFCURVE",
"258 459 CURVE SMOOTH",
"147 459 OFFCURVE",
"47 367 OFFCURVE",
"47 223 CURVE SMOOTH",
"47 75 OFFCURVE",
"126 -12 OFFCURVE",
"248 -12 CURVE SMOOTH"
);
},
{
closed = 1;
nodes = (
"181 57 OFFCURVE",
"132 122 OFFCURVE",
"132 224 CURVE SMOOTH",
"132 321 OFFCURVE",
"194 390 OFFCURVE",
"272 390 CURVE SMOOTH",
"312 390 OFFCURVE",
"349 376 OFFCURVE",
"390 339 CURVE",
"390 124 LINE",
"350 79 OFFCURVE",
"311 57 OFFCURVE",
"266 57 CURVE SMOOTH"
);
},
{
closed = 1;
nodes = (
"469 560 LINE",
"556 564 LINE",
"556 619 LINE",
"209 619 LINE",
"209 560 LINE"
);
}
);
width = 567.36;
}
);
leftKerningGroup = o;
rightKerningGroup = dcroat;
unicode = 0111;
},
{
glyphname = dotlessjstroke;
layers = (
{
anchors = (
{
name = aboveLC;
position = "{176, 522}";
},
{
name = belowLC;
position = "{120, -182}";
}
);
components = (
{
name = dotlessj;
transform = "{1, 0, 0, 1, 30, 0}";
}
);
layerId = "42B3044F-4D5A-45CA-9EB7-C1889731596B";
paths = (
{
closed = 1;
nodes = (
"328 198 LINE",
"328 310 LINE",
"90 310 LINE",
"22 304 LINE",
"22 198 LINE"
);
}
);
width = 350;
},
{
anchors = (
{
name = aboveLC;
position = "{130, 502}";
},
{
name = belowLC;
position = "{70, -222}";
}
);
components = (
{
name = dotlessj;
transform = "{1, 0, 0, 1, 20, 0}";
}
);
layerId = "0CAB57D4-4FC4-49C3-B456-FB7666EAA712";
paths = (
{
closed = 1;
nodes = (
"236 238 LINE",
"236 266 LINE",
"116 266 LINE",
"22 262 LINE",
"22 238 LINE"
);
}
);
width = 262;
},
{
anchors = (
{
name = aboveLC;
position = "{147, 509}";
},
{
name = belowLC;
position = "{88, -207}";
}
);
components = (
{
alignment = -1;
name = dotlessj;
transform = "{1, 0, 0, 1, 24, 0}";
}
);
layerId = master01;
paths = (
{
closed = 1;
nodes = (
"270 223 LINE",
"270 282 LINE",
"106 282 LINE",
"22 277 LINE",
"22 223 LINE"
);
}
);
width = 294.384;
}
);
leftKerningGroup = j;
rightKerningGroup = istroke;
unicode = 025F;
},
{
glyphname = e;
layers = (
{
anchors = (
{
name = aboveLC;
position = "{270, 522}";
},
{
name = baseLC;
position = "{270, 0}";
},
{
name = belowLC;
position = "{270, -22}";
},
{
name = ogonekLC;
position = "{360, 0}";
}
);
layerId = "42B3044F-4D5A-45CA-9EB7-C1889731596B";
paths = (
{
closed = 1;
nodes = (
"346 -12 OFFCURVE",
"418 8 OFFCURVE",
"472 46 CURVE",
"418 148 LINE",
"382 128 OFFCURVE",
"348 118 OFFCURVE",
"314 118 CURVE SMOOTH",
"256 118 OFFCURVE",
"194 140 OFFCURVE",
"190 250 CURVE SMOOTH",
"186 352 OFFCURVE",
"234 382 OFFCURVE",
"276 382 CURVE SMOOTH",
"328 382 OFFCURVE",
"344 348 OFFCURVE",
"344 310 CURVE",
"166 310 LINE",
"168 198 LINE",
"483 198 LINE",
"486 210 OFFCURVE",
"490 240 OFFCURVE",
"490 270 CURVE SMOOTH",
"490 404 OFFCURVE",
"420 512 OFFCURVE",
"272 512 CURVE SMOOTH",
"150 512 OFFCURVE",
"32 412 OFFCURVE",
"32 250 CURVE SMOOTH",
"32 84 OFFCURVE",
"144 -12 OFFCURVE",
"290 -12 CURVE SMOOTH"
);
}
);
width = 526;
},
{
anchors = (
{
name = aboveLC;
position = "{260, 502}";
},
{
name = baseLC;
position = "{260, 0}";
},
{
name = belowLC;
position = "{260, -22}";
},
{
name = ogonekLC;
position = "{340, 0}";
}
);
layerId = "0CAB57D4-4FC4-49C3-B456-FB7666EAA712";
paths = (
{
closed = 1;
nodes = (
"344 -12 OFFCURVE",
"384 10 OFFCURVE",
"420 34 CURVE",
"406 56 LINE",
"372 32 OFFCURVE",
"328 16 OFFCURVE",
"274 16 CURVE SMOOTH",
"167 16 OFFCURVE",
"86 104 OFFCURVE",
"86 240 CURVE SMOOTH",
"86 388 OFFCURVE",
"176 462 OFFCURVE",
"260 462 CURVE SMOOTH",
"350 462 OFFCURVE",
"410 398 OFFCURVE",
"410 266 CURVE",
"70 266 LINE",
"70 238 LINE",
"438 238 LINE",
"440 250 OFFCURVE",
"440 260 OFFCURVE",
"440 270 CURVE SMOOTH",
"440 412 OFFCURVE",
"370 490 OFFCURVE",
"260 490 CURVE SMOOTH",
"154 490 OFFCURVE",
"54 394 OFFCURVE",
"54 238 CURVE SMOOTH",
"54 82 OFFCURVE",
"152 -12 OFFCURVE",
"272 -12 CURVE SMOOTH"
);
}
);
width = 478;
},
{
anchors = (
{
name = aboveLC;
position = "{264, 509}";
},
{
name = baseLC;
position = "{264, 0}";
},
{
name = belowLC;
position = "{264, -22}";
},
{
name = ogonekLC;
position = "{347, 0}";
}
);
layerId = master01;
paths = (
{
closed = 1;
nodes = (
"345 -12 OFFCURVE",
"397 9 OFFCURVE",
"439 38 CURVE",
"410 90 LINE",
"376 67 OFFCURVE",
"335 54 OFFCURVE",
"289 54 CURVE SMOOTH",
"200 54 OFFCURVE",
"126 117 OFFCURVE",
"124 244 CURVE SMOOTH",
"123 375 OFFCURVE",
"197 433 OFFCURVE",
"266 433 CURVE SMOOTH",
"342 433 OFFCURVE",
"386 380 OFFCURVE",
"386 282 CURVE",
"105 282 LINE",
"106 223 LINE",
"455 223 LINE",
"457 235 OFFCURVE",
"458 253 OFFCURVE",
"458 270 CURVE SMOOTH",
"458 409 OFFCURVE",
"388 498 OFFCURVE",
"264 498 CURVE SMOOTH",
"153 498 OFFCURVE",
"46 401 OFFCURVE",
"46 242 CURVE SMOOTH",
"46 83 OFFCURVE",
"149 -12 OFFCURVE",
"279 -12 CURVE SMOOTH"
);
}
);
width = 495.664;
}
);
leftKerningGroup = o;
rightKerningGroup = e;
unicode = 0065;
},
{
glyphname = eogonek;
layers = (
{
anchors = (
{
name = aboveLC;
position = "{270, 522}";
},
{
name = belowLC;
position = "{280, -222}";
}
);
layerId = "42B3044F-4D5A-45CA-9EB7-C1889731596B";
paths = (
{
closed = 1;
nodes = (
"406 -220 OFFCURVE",
"454 -206 OFFCURVE",
"484 -184 CURVE",
"450 -96 LINE",
"438 -102 OFFCURVE",
"422 -108 OFFCURVE",
"404 -108 CURVE SMOOTH",
"386 -108 OFFCURVE",
"366 -98 OFFCURVE",
"366 -76 CURVE SMOOTH",
"366 -40 OFFCURVE",
"384 -14 OFFCURVE",
"472 46 CURVE",
"418 148 LINE",
"382 128 OFFCURVE",
"348 118 OFFCURVE",
"314 118 CURVE SMOOTH",
"256 118 OFFCURVE",
"194 140 OFFCURVE",
"190 250 CURVE SMOOTH",
"186 352 OFFCURVE",
"234 382 OFFCURVE",
"276 382 CURVE SMOOTH",
"328 382 OFFCURVE",
"344 348 OFFCURVE",
"344 310 CURVE",
"166 310 LINE",
"168 198 LINE",
"483 198 LINE",
"486 210 OFFCURVE",
"490 240 OFFCURVE",
"490 270 CURVE SMOOTH",
"490 404 OFFCURVE",
"420 512 OFFCURVE",
"272 512 CURVE SMOOTH",
"150 512 OFFCURVE",
"32 412 OFFCURVE",
"32 250 CURVE SMOOTH",
"32 84 OFFCURVE",
"144 -12 OFFCURVE",
"290 -12 CURVE SMOOTH",
"300 -12 OFFCURVE",
"314 -8 OFFCURVE",
"320 -6 CURVE",
"318 -2 LINE",
"266 -36 OFFCURVE",
"242 -70 OFFCURVE",
"242 -116 CURVE SMOOTH",
"242 -186 OFFCURVE",
"298 -220 OFFCURVE",
"368 -220 CURVE SMOOTH"
);
}
);
width = 526;
},
{
anchors = (
{
name = aboveLC;
position = "{260, 502}";
},
{
name = belowLC;
position = "{260, -222}";
}
);
layerId = "0CAB57D4-4FC4-49C3-B456-FB7666EAA712";
paths = (
{
closed = 1;
nodes = (
"386 -212 OFFCURVE",
"410 -198 OFFCURVE",
"426 -184 CURVE",
"412 -164 LINE",
"394 -178 OFFCURVE",
"380 -184 OFFCURVE",
"358 -184 CURVE SMOOTH",
"328 -184 OFFCURVE",
"300 -166 OFFCURVE",
"300 -124 CURVE SMOOTH",
"300 -74 OFFCURVE",
"346 -10 OFFCURVE",
"420 34 CURVE",
"406 56 LINE",
"372 32 OFFCURVE",
"328 16 OFFCURVE",
"274 16 CURVE SMOOTH",
"167 16 OFFCURVE",
"86 104 OFFCURVE",
"86 240 CURVE SMOOTH",
"86 388 OFFCURVE",
"176 462 OFFCURVE",
"260 462 CURVE SMOOTH",
"350 462 OFFCURVE",
"410 398 OFFCURVE",
"410 266 CURVE",
"70 266 LINE",
"70 238 LINE",
"438 238 LINE",
"440 250 OFFCURVE",
"440 260 OFFCURVE",
"440 270 CURVE SMOOTH",
"440 412 OFFCURVE",
"370 490 OFFCURVE",
"260 490 CURVE SMOOTH",
"154 490 OFFCURVE",
"54 394 OFFCURVE",
"54 238 CURVE SMOOTH",
"54 82 OFFCURVE",
"152 -12 OFFCURVE",
"272 -12 CURVE SMOOTH",
"304 -12 OFFCURVE",
"340 -6 OFFCURVE",
"368 8 CURVE",
"362 16 LINE",
"310 -24 OFFCURVE",
"270 -72 OFFCURVE",
"270 -126 CURVE SMOOTH",
"270 -186 OFFCURVE",
"308 -212 OFFCURVE",
"356 -212 CURVE SMOOTH"
);
}
);
width = 478;
},
{
anchors = (
{
name = aboveLC;
position = "{264, 509}";
},
{
name = belowLC;
position = "{267, -222}";
}
);
layerId = master01;
paths = (
{
closed = 1;
nodes = (
"393 -215 OFFCURVE",
"426 -201 OFFCURVE",
"447 -184 CURVE",
"426 -139 LINE",
"410 -150 OFFCURVE",
"395 -156 OFFCURVE",
"375 -156 CURVE SMOOTH",
"349 -156 OFFCURVE",
"324 -141 OFFCURVE",
"324 -106 CURVE SMOOTH",
"324 -61 OFFCURVE",
"360 -11 OFFCURVE",
"439 38 CURVE",
"410 90 LINE",
"376 67 OFFCURVE",
"335 54 OFFCURVE",
"289 54 CURVE SMOOTH",
"200 54 OFFCURVE",
"126 117 OFFCURVE",
"124 244 CURVE SMOOTH",
"123 375 OFFCURVE",
"197 433 OFFCURVE",
"266 433 CURVE SMOOTH",
"342 433 OFFCURVE",
"386 380 OFFCURVE",
"386 282 CURVE",
"105 282 LINE",
"106 223 LINE",
"455 223 LINE",
"457 235 OFFCURVE",
"458 253 OFFCURVE",
"458 270 CURVE SMOOTH",
"458 409 OFFCURVE",
"388 498 OFFCURVE",
"264 498 CURVE SMOOTH",
"153 498 OFFCURVE",
"46 401 OFFCURVE",
"46 242 CURVE SMOOTH",
"46 83 OFFCURVE",
"149 -12 OFFCURVE",
"279 -12 CURVE SMOOTH",
"303 -12 OFFCURVE",
"330 -7 OFFCURVE",
"350 3 CURVE",
"346 9 LINE",
"294 -28 OFFCURVE",
"260 -71 OFFCURVE",
"260 -122 CURVE SMOOTH",
"260 -186 OFFCURVE",
"304 -215 OFFCURVE",
"360 -215 CURVE SMOOTH"
);
}
);
width = 495.664;
}
);
leftKerningGroup = o;
rightKerningGroup = e;
unicode = 0119;
},
{
glyphname = esh;
layers = (
{
anchors = (
{
name = aboveUC;
position = "{220, 722}";
},
{
name = belowLC;
position = "{90, -182}";
}
);
layerId = "42B3044F-4D5A-45CA-9EB7-C1889731596B";
paths = (
{
closed = 1;
nodes = (
"188 -188 OFFCURVE",
"232 -86 OFFCURVE",
"232 26 CURVE SMOOTH",
"232 500 LINE SMOOTH",
"232 554 OFFCURVE",
"249 574 OFFCURVE",
"292 574 CURVE SMOOTH",
"301 574 OFFCURVE",
"308 572 OFFCURVE",
"318 568 CURVE",
"348 694 LINE",
"328 702 OFFCURVE",
"305 708 OFFCURVE",
"264 708 CURVE SMOOTH",
"106 708 OFFCURVE",
"60 606 OFFCURVE",
"60 494 CURVE SMOOTH",
"60 20 LINE",
"60 -34 OFFCURVE",
"46 -54 OFFCURVE",
"10 -54 CURVE SMOOTH",
"-2 -54 OFFCURVE",
"-12 -52 OFFCURVE",
"-26 -48 CURVE",
"-56 -174 LINE",
"-34 -182 OFFCURVE",
"-8 -188 OFFCURVE",
"38 -188 CURVE SMOOTH"
);
}
);
width = 290;
},
{
anchors = (
{
name = aboveUC;
position = "{170, 732}";
},
{
name = belowLC;
position = "{50, -222}";
}
);
layerId = "0CAB57D4-4FC4-49C3-B456-FB7666EAA712";
paths = (
{
closed = 1;
nodes = (
"94 -234 OFFCURVE",
"126 -194 OFFCURVE",
"126 -102 CURVE SMOOTH",
"126 598 LINE SMOOTH",
"126 660 OFFCURVE",
"138 706 OFFCURVE",
"202 706 CURVE SMOOTH",
"218 706 OFFCURVE",
"232 702 OFFCURVE",
"242 698 CURVE",
"252 722 LINE",
"240 728 OFFCURVE",
"221 734 OFFCURVE",
"204 734 CURVE SMOOTH",
"131 734 OFFCURVE",
"96 694 OFFCURVE",
"96 602 CURVE SMOOTH",
"96 -98 LINE SMOOTH",
"96 -160 OFFCURVE",
"86 -206 OFFCURVE",
"30 -206 CURVE SMOOTH",
"10 -206 OFFCURVE",
"-8 -200 OFFCURVE",
"-20 -196 CURVE",
"-30 -222 LINE",
"-16 -228 OFFCURVE",
"8 -234 OFFCURVE",
"28 -234 CURVE SMOOTH"
);
}
);
width = 222;
},
{
anchors = (
{
name = aboveUC;
position = "{188, 728}";
},
{
name = belowLC;
position = "{65, -207}";
}
);
layerId = master01;
paths = (
{
closed = 1;
nodes = (
"129 -217 OFFCURVE",
"165 -154 OFFCURVE",
"165 -55 CURVE SMOOTH",
"165 562 LINE SMOOTH",
"165.008 620.992 OFFCURVE",
"179 657 OFFCURVE",
"235 657 CURVE SMOOTH",
"249 657 OFFCURVE",
"260 654 OFFCURVE",
"270 650 CURVE",
"287 712 LINE",
"272 718 OFFCURVE",
"252 724 OFFCURVE",
"226 724 CURVE SMOOTH",
"122 724 OFFCURVE",
"83 662 OFFCURVE",
"83 562 CURVE SMOOTH",
"83 -55 LINE SMOOTH",
"83 -114 OFFCURVE",
"71 -150 OFFCURVE",
"23 -150 CURVE SMOOTH",
"6 -150 OFFCURVE",
"-9 -146 OFFCURVE",
"-22 -142 CURVE",
"-40 -204 LINE",
"-23 -211 OFFCURVE",
"2 -217 OFFCURVE",
"32 -217 CURVE SMOOTH"
);
}
);
width = 247.024;
}
);
leftKerningGroup = j;
rightKerningGroup = esh;
unicode = 0283;
},
{
glyphname = schwa;
layers = (
{
anchors = (
{
name = aboveLC;
position = "{260, 522}";
},
{
name = belowLC;
position = "{258, -22}";
},
{
name = ogonekLC;
position = "{258, 0}";
}
);
layerId = "42B3044F-4D5A-45CA-9EB7-C1889731596B";
paths = (
{
closed = 1;
nodes = (
"376 -12 OFFCURVE",
"494 88 OFFCURVE",
"494 250 CURVE SMOOTH",
"494 416 OFFCURVE",
"392 512 OFFCURVE",
"256 512 CURVE SMOOTH",
"190 512 OFFCURVE",
"124 492 OFFCURVE",
"70 454 CURVE",
"124 352 LINE",
"160 372 OFFCURVE",
"192 382 OFFCURVE",
"232 382 CURVE SMOOTH",
"280 382 OFFCURVE",
"332 360 OFFCURVE",
"336 250 CURVE SMOOTH",
"340 148 OFFCURVE",
"292 118 OFFCURVE",
"250 118 CURVE SMOOTH",
"198 118 OFFCURVE",
"182 152 OFFCURVE",
"182 190 CURVE",
"360 190 LINE",
"358 302 LINE",
"43 302 LINE",
"40 290 OFFCURVE",
"36 260 OFFCURVE",
"36 230 CURVE SMOOTH",
"36 96 OFFCURVE",
"106 -12 OFFCURVE",
"254 -12 CURVE SMOOTH"
);
}
);
width = 526;
},
{
anchors = (
{
name = aboveLC;
position = "{240, 502}";
},
{
name = belowLC;
position = "{220, -22}";
},
{
name = ogonekLC;
position = "{220, 0}";
}
);
layerId = "0CAB57D4-4FC4-49C3-B456-FB7666EAA712";
paths = (
{
closed = 1;
nodes = (
"338 -12 OFFCURVE",
"424 84 OFFCURVE",
"424 240 CURVE SMOOTH",
"424 396 OFFCURVE",
"336 490 OFFCURVE",
"216 490 CURVE SMOOTH",
"144 490 OFFCURVE",
"104 468 OFFCURVE",
"68 444 CURVE",
"82 422 LINE",
"116 446 OFFCURVE",
"160 462 OFFCURVE",
"214 462 CURVE SMOOTH",
"321 462 OFFCURVE",
"392 374 OFFCURVE",
"392 238 CURVE SMOOTH",
"392 90 OFFCURVE",
"316 16 OFFCURVE",
"228 16 CURVE SMOOTH",
"134 16 OFFCURVE",
"68 92 OFFCURVE",
"68 224 CURVE",
"408 224 LINE",
"408 252 LINE",
"40 252 LINE",
"38 240 OFFCURVE",
"38 230 OFFCURVE",
"38 220 CURVE SMOOTH",
"38 78 OFFCURVE",
"114 -12 OFFCURVE",
"228 -12 CURVE SMOOTH"
);
}
);
width = 478;
},
{
anchors = (
{
name = aboveLC;
position = "{247, 509}";
},
{
name = belowLC;
position = "{234, -22}";
},
{
name = ogonekLC;
position = "{234, 0}";
}
);
layerId = master01;
paths = (
{
closed = 1;
nodes = (
"352 -12 OFFCURVE",
"450 85 OFFCURVE",
"450 244 CURVE SMOOTH",
"450 403 OFFCURVE",
"357 498 OFFCURVE",
"231 498 CURVE SMOOTH",
"161 498 OFFCURVE",
"111 477 OFFCURVE",
"69 448 CURVE",
"97 396 LINE",
"132 419 OFFCURVE",
"172 433 OFFCURVE",
"221 433 CURVE SMOOTH",
"306 433 OFFCURVE",
"370 369 OFFCURVE",
"371 242 CURVE SMOOTH",
"373 111 OFFCURVE",
"307 54 OFFCURVE",
"236 54 CURVE SMOOTH",
"158 54 OFFCURVE",
"110 114 OFFCURVE",
"110 211 CURVE",
"390 211 LINE",
"390 270 LINE",
"41 270 LINE",
"39 258 OFFCURVE",
"37 241 OFFCURVE",
"37 224 CURVE SMOOTH",
"37 85 OFFCURVE",
"111 -12 OFFCURVE",
"238 -12 CURVE SMOOTH"
);
}
);
width = 495.664;
}
);
leftKerningGroup = schwa;
rightKerningGroup = o;
unicode = 0259;
},
{
glyphname = ezh;
layers = (
{
anchors = (
{
name = aboveLC;
position = "{230, 522}";
},
{
name = belowLC;
position = "{220, -182}";
}
);
layerId = "42B3044F-4D5A-45CA-9EB7-C1889731596B";
paths = (
{
closed = 1;
nodes = (
"345 -188 OFFCURVE",
"452 -104 OFFCURVE",
"452 44 CURVE SMOOTH",
"452 143 OFFCURVE",
"396 218 OFFCURVE",
"294 235 CURVE",
"428 408 LINE",
"428 500 LINE",
"36 500 LINE",
"36 366 LINE",
"224 366 LINE",
"88 188 LINE",
"142 108 LINE",
"164 116 OFFCURVE",
"172 118 OFFCURVE",
"198 118 CURVE SMOOTH",
"246 118 OFFCURVE",
"280 90 OFFCURVE",
"280 40 CURVE SMOOTH",
"280 -18 OFFCURVE",
"246 -50 OFFCURVE",
"194 -50 CURVE SMOOTH",
"152 -50 OFFCURVE",
"114 -28 OFFCURVE",
"82 0 CURVE",
"6 -106 LINE",
"54 -152 OFFCURVE",
"121 -188 OFFCURVE",
"216 -188 CURVE SMOOTH"
);
}
);
width = 474;
},
{
anchors = (
{
name = aboveLC;
position = "{210, 502}";
},
{
name = belowLC;
position = "{190, -222}";
}
);
layerId = "0CAB57D4-4FC4-49C3-B456-FB7666EAA712";
paths = (
{
closed = 1;
nodes = (
"285 -234 OFFCURVE",
"380 -158 OFFCURVE",
"380 -22 CURVE SMOOTH",
"380 106 OFFCURVE",
"286 194 OFFCURVE",
"140 162 CURVE",
"360 462 LINE",
"360 478 LINE",
"48 478 LINE",
"48 450 LINE",
"320 450 LINE",
"96 146 LINE",
"116 120 LINE",
"140 132 OFFCURVE",
"154 140 OFFCURVE",
"184 140 CURVE SMOOTH",
"292 140 OFFCURVE",
"348 77 OFFCURVE",
"348 -24 CURVE SMOOTH",
"348 -132 OFFCURVE",
"275 -206 OFFCURVE",
"192 -206 CURVE SMOOTH",
"105 -206 OFFCURVE",
"58 -172 OFFCURVE",
"22 -137 CURVE",
"2 -159 LINE",
"40 -194 OFFCURVE",
"93 -234 OFFCURVE",
"190 -234 CURVE SMOOTH"
);
}
);
width = 396;
},
{
anchors = (
{
name = aboveLC;
position = "{217, 509}";
},
{
name = belowLC;
position = "{201, -207}";
}
);
layerId = master01;
paths = (
{
closed = 1;
nodes = (
"307 -217 OFFCURVE",
"406 -138 OFFCURVE",
"406 2 CURVE SMOOTH",
"406 120 OFFCURVE",
"326 203 OFFCURVE",
"197 189 CURVE",
"385 442 LINE",
"385 486 LINE",
"44 486 LINE",
"44 419 LINE",
"285 419 LINE",
"93 161 LINE",
"126 116 LINE",
"149 126 OFFCURVE",
"161 132 OFFCURVE",
"189 132 CURVE SMOOTH",
"275 132 OFFCURVE",
"323 82 OFFCURVE",
"323 0 CURVE SMOOTH",
"323 -90 OFFCURVE",
"264 -149 OFFCURVE",
"193 -149 CURVE SMOOTH",
"122 -149 OFFCURVE",
"79 -119 OFFCURVE",
"44 -87 CURVE",
"3 -139 LINE",
"45 -179 OFFCURVE",
"103 -217 OFFCURVE",
"200 -217 CURVE SMOOTH"
);
}
);
width = 424.704;
}
);
leftKerningGroup = z;
rightKerningGroup = ezh;
unicode = 0292;
},
{
glyphname = f;
layers = (
{
anchors = (
{
name = aboveUC;
position = "{250, 722}";
},
{
name = belowLC;
position = "{174, -22}";
},
{
name = center;
position = "{180, 220}";
}
);
layerId = "42B3044F-4D5A-45CA-9EB7-C1889731596B";
paths = (
{
closed = 1;
nodes = (
"260 0 LINE",
"260 512 LINE SMOOTH",
"260 558 OFFCURVE",
"280 574 OFFCURVE",
"312 574 CURVE SMOOTH",
"328 574 OFFCURVE",
"344 572 OFFCURVE",
"360 568 CURVE",
"392 690 LINE",
"370 698 OFFCURVE",
"332 708 OFFCURVE",
"286 708 CURVE SMOOTH",
"138 708 OFFCURVE",
"88 613 OFFCURVE",
"88 506 CURVE SMOOTH",
"88 0 LINE"
);
},
{
closed = 1;
nodes = (
"344 366 LINE",
"344 500 LINE",
"100 500 LINE",
"14 494 LINE",
"14 366 LINE"
);
}
);
width = 360;
},
{
anchors = (
{
name = aboveUC;
position = "{200, 732}";
},
{
name = belowLC;
position = "{116, -22}";
},
{
name = center;
position = "{130, 240}";
}
);
layerId = "0CAB57D4-4FC4-49C3-B456-FB7666EAA712";
paths = (
{
closed = 1;
nodes = (
"130 0 LINE",
"130 592 LINE SMOOTH",
"130 664 OFFCURVE",
"154 706 OFFCURVE",
"208 706 CURVE SMOOTH",
"226 706 OFFCURVE",
"245 702 OFFCURVE",
"266 694 CURVE",
"276 718 LINE",
"256 728 OFFCURVE",
"230 734 OFFCURVE",
"210 734 CURVE SMOOTH",
"142 734 OFFCURVE",
"100 690 OFFCURVE",
"100 596 CURVE SMOOTH",
"100 0 LINE"
);
},
{
closed = 1;
nodes = (
"244 450 LINE",
"244 478 LINE",
"100 478 LINE",
"30 474 LINE",
"30 450 LINE"
);
}
);
width = 252;
},
{
anchors = (
{
name = aboveUC;
position = "{218, 728}";
},
{
name = belowLC;
position = "{137, -22}";
},
{
name = center;
position = "{148, 233}";
}
);
layerId = master01;
paths = (
{
closed = 1;
nodes = (
"178 0 LINE",
"178 563 LINE SMOOTH",
"178 625 OFFCURVE",
"200 657 OFFCURVE",
"246 657 CURVE SMOOTH",
"264 657 OFFCURVE",
"281 654 OFFCURVE",
"301 648 CURVE",
"319 708 LINE",
"298 717 OFFCURVE",
"268 724 OFFCURVE",
"238 724 CURVE SMOOTH",
"141 724 OFFCURVE",
"96 662 OFFCURVE",
"96 563 CURVE SMOOTH",
"96 0 LINE"
);
},
{
closed = 1;
nodes = (
"281 419 LINE",
"281 486 LINE",
"100 486 LINE",
"24 481 LINE",
"24 419 LINE"
);
}
);
width = 291.744;
}
);
leftKerningGroup = f;
rightKerningGroup = f;
unicode = 0066;
},
{
glyphname = g;
layers = (
{
anchors = (
{
name = aboveLC;
position = "{276, 522}";
},
{
name = belowLC;
position = "{250, -182}";
}
);
layerId = "42B3044F-4D5A-45CA-9EB7-C1889731596B";
paths = (
{
closed = 1;
nodes = (
"418 -206 OFFCURVE",
"530 -132 OFFCURVE",
"530 -24 CURVE SMOOTH",
"530 68 OFFCURVE",
"458 106 OFFCURVE",
"333 106 CURVE SMOOTH",
"258 106 LINE SMOOTH",
"208 106 OFFCURVE",
"188 114 OFFCURVE",
"188 136 CURVE SMOOTH",
"188 150 OFFCURVE",
"190 156 OFFCURVE",
"200 165 CURVE",
"222 160 OFFCURVE",
"240 158 OFFCURVE",
"256 158 CURVE SMOOTH",
"368 158 OFFCURVE",
"458 206 OFFCURVE",
"458 322 CURVE SMOOTH",
"458 340 OFFCURVE",
"455 356 OFFCURVE",
"446 372 CURVE",
"446 376 LINE",
"522 376 LINE",
"522 500 LINE",
"336 500 LINE",
"312 508 OFFCURVE",
"284 512 OFFCURVE",
"256 512 CURVE SMOOTH",
"146 512 OFFCURVE",
"42 454 OFFCURVE",
"42 330 CURVE SMOOTH",
"42 272 OFFCURVE",
"74 226 OFFCURVE",
"110 202 CURVE",
"110 198 LINE",
"76 174 OFFCURVE",
"54 138 OFFCURVE",
"54 104 CURVE SMOOTH",
"54 62 OFFCURVE",
"74 36 OFFCURVE",
"100 18 CURVE",
"100 14 LINE",
"54 -10 OFFCURVE",
"30 -41 OFFCURVE",
"30 -82 CURVE SMOOTH",
"30 -172 OFFCURVE",
"126 -206 OFFCURVE",
"240 -206 CURVE SMOOTH"
);
},
{
closed = 1;
nodes = (
"224 260 OFFCURVE",
"202 282 OFFCURVE",
"202 330 CURVE SMOOTH",
"202 376 OFFCURVE",
"224 398 OFFCURVE",
"256 398 CURVE SMOOTH",
"288 398 OFFCURVE",
"310 376 OFFCURVE",
"310 330 CURVE SMOOTH",
"310 282 OFFCURVE",
"288 260 OFFCURVE",
"256 260 CURVE SMOOTH"
);
},
{
closed = 1;
nodes = (
"210 -100 OFFCURVE",
"170 -86 OFFCURVE",
"170 -54 CURVE SMOOTH",
"170 -40 OFFCURVE",
"176 -30 OFFCURVE",
"188 -18 CURVE",
"202 -22 OFFCURVE",
"220 -24 OFFCURVE",
"260 -24 CURVE SMOOTH",
"299 -24 LINE SMOOTH",
"342 -24 OFFCURVE",
"366 -28 OFFCURVE",
"366 -54 CURVE SMOOTH",
"366 -82 OFFCURVE",
"324 -100 OFFCURVE",
"268 -100 CURVE SMOOTH"
);
}
);
width = 546;
},
{
anchors = (
{
name = aboveLC;
position = "{250, 502}";
},
{
name = belowLC;
position = "{250, -232}";
}
);
layerId = "0CAB57D4-4FC4-49C3-B456-FB7666EAA712";
paths = (
{
closed = 1;
nodes = (
"384 -234 OFFCURVE",
"470 -154 OFFCURVE",
"470 -74 CURVE SMOOTH",
"470 0 OFFCURVE",
"422 34 OFFCURVE",
"316 34 CURVE SMOOTH",
"210 34 LINE SMOOTH",
"136 34 OFFCURVE",
"116 64 OFFCURVE",
"116 100 CURVE SMOOTH",
"116 134 OFFCURVE",
"136 156 OFFCURVE",
"158 174 CURVE",
"180 160 OFFCURVE",
"212 152 OFFCURVE",
"240 152 CURVE SMOOTH",
"332 152 OFFCURVE",
"404 226 OFFCURVE",
"404 322 CURVE SMOOTH",
"404 381 OFFCURVE",
"378 422 OFFCURVE",
"346 446 CURVE",
"346 450 LINE",
"462 450 LINE",
"462 478 LINE",
"302 478 LINE",
"288 484 OFFCURVE",
"266 490 OFFCURVE",
"240 490 CURVE SMOOTH",
"148 490 OFFCURVE",
"76 418 OFFCURVE",
"76 322 CURVE SMOOTH",
"76 264 OFFCURVE",
"106 216 OFFCURVE",
"136 190 CURVE",
"136 186 LINE",
"116 172 OFFCURVE",
"84 142 OFFCURVE",
"84 98 CURVE SMOOTH",
"84 62 OFFCURVE",
"102 36 OFFCURVE",
"126 22 CURVE",
"126 18 LINE",
"82 -14 OFFCURVE",
"54 -58 OFFCURVE",
"54 -100 CURVE SMOOTH",
"54 -180 OFFCURVE",
"128 -234 OFFCURVE",
"250 -234 CURVE SMOOTH"
);
},
{
closed = 1;
nodes = (
"170 180 OFFCURVE",
"108 238 OFFCURVE",
"108 322 CURVE SMOOTH",
"108 408 OFFCURVE",
"168 462 OFFCURVE",
"240 462 CURVE SMOOTH",
"312 462 OFFCURVE",
"372 408 OFFCURVE",
"372 322 CURVE SMOOTH",
"372 238 OFFCURVE",
"310 180 OFFCURVE",
"240 180 CURVE SMOOTH"
);
},
{
closed = 1;
nodes = (
"146 -206 OFFCURVE",
"86 -162 OFFCURVE",
"86 -98 CURVE SMOOTH",
"86 -62 OFFCURVE",
"106 -22 OFFCURVE",
"154 10 CURVE",
"180 4 OFFCURVE",
"206 2 OFFCURVE",
"212 2 CURVE SMOOTH",
"322 2 LINE SMOOTH",
"398 2 OFFCURVE",
"438 -20 OFFCURVE",
"438 -76 CURVE SMOOTH",
"438 -140 OFFCURVE",
"366 -206 OFFCURVE",
"252 -206 CURVE SMOOTH"
);
}
);
width = 480;
},
{
anchors = (
{
name = aboveLC;
position = "{260, 509}";
},
{
name = belowLC;
position = "{250, -214}";
}
);
layerId = master01;
paths = (
{
closed = 1;
nodes = (
"397 -224 OFFCURVE",
"492 -146 OFFCURVE",
"492 -56 CURVE SMOOTH",
"492 25 OFFCURVE",
"435 60 OFFCURVE",
"322 60 CURVE SMOOTH",
"228 60 LINE SMOOTH",
"162 60 OFFCURVE",
"142 82 OFFCURVE",
"142 113 CURVE SMOOTH",
"142 140 OFFCURVE",
"156 156 OFFCURVE",
"173 171 CURVE",
"195 160 OFFCURVE",
"222 154 OFFCURVE",
"246 154 CURVE SMOOTH",
"345 154 OFFCURVE",
"424 219 OFFCURVE",
"424 322 CURVE SMOOTH",
"424 366 OFFCURVE",
"406 398 OFFCURVE",
"383 419 CURVE",
"383 423 LINE",
"484 423 LINE",
"484 486 LINE",
"315 486 LINE",
"297 493 OFFCURVE",
"273 498 OFFCURVE",
"246 498 CURVE SMOOTH",
"147 498 OFFCURVE",
"63 431 OFFCURVE",
"63 325 CURVE SMOOTH",
"63 267 OFFCURVE",
"94 220 OFFCURVE",
"126 194 CURVE",
"126 190 LINE",
"101 173 OFFCURVE",
"73 141 OFFCURVE",
"73 100 CURVE SMOOTH",
"73 62 OFFCURVE",
"92 36 OFFCURVE",
"116 21 CURVE",
"116 17 LINE",
"72 -13 OFFCURVE",
"45 -52 OFFCURVE",
"45 -93 CURVE SMOOTH",
"45 -177 OFFCURVE",
"127 -224 OFFCURVE",
"246 -224 CURVE SMOOTH"
);
},
{
closed = 1;
nodes = (
"190 209 OFFCURVE",
"143 254 OFFCURVE",
"143 325 CURVE SMOOTH",
"143 396 OFFCURVE",
"189 438 OFFCURVE",
"246 438 CURVE SMOOTH",
"303 438 OFFCURVE",
"349 396 OFFCURVE",
"349 325 CURVE SMOOTH",
"349 254 OFFCURVE",
"302 209 OFFCURVE",
"246 209 CURVE SMOOTH"
);
},
{
closed = 1;
nodes = (
"170 -167 OFFCURVE",
"117 -134 OFFCURVE",
"117 -82 CURVE SMOOTH",
"117 -54 OFFCURVE",
"132 -25 OFFCURVE",
"167 0 CURVE",
"188 -6 OFFCURVE",
"211 -8 OFFCURVE",
"230 -8 CURVE SMOOTH",
"314 -8 LINE SMOOTH",
"377 -8 OFFCURVE",
"412 -23 OFFCURVE",
"412 -68 CURVE SMOOTH",
"412 -119 OFFCURVE",
"351 -167 OFFCURVE",
"258 -167 CURVE SMOOTH"
);
}
);
width = 504.288;
}
);
leftKerningGroup = g;
rightKerningGroup = g;
unicode = 0067;
},
{
color = (0,128,255,255);
glyphname = gcommaaccent;
layers = (
{
anchors = (
{
name = _aboveLC;
position = "{276, 522}";
}
);
components = (
{
name = g;
}
);
layerId = "42B3044F-4D5A-45CA-9EB7-C1889731596B";
paths = (
{
closed = 1;
nodes = (
"356 626 LINE",
"312 630 OFFCURVE",
"296 642 OFFCURVE",
"296 658 CURVE SMOOTH",
"296 680 OFFCURVE",
"320 690 OFFCURVE",
"396 694 CURVE",
"384 760 LINE",
"252 756 OFFCURVE",
"174 724 OFFCURVE",
"174 652 CURVE SMOOTH",
"174 602 OFFCURVE",
"210 574 OFFCURVE",
"324 566 CURVE"
);
}
);
width = 546;
},
{
anchors = (
{
name = _aboveLC;
position = "{250, 502}";
}
);
components = (
{
name = g;
}
);
layerId = "0CAB57D4-4FC4-49C3-B456-FB7666EAA712";
paths = (
{
closed = 1;
nodes = (
"294 606 LINE",
"246 610 OFFCURVE",
"216 622 OFFCURVE",
"216 654 CURVE SMOOTH",
"216 684 OFFCURVE",
"242 702 OFFCURVE",
"330 708 CURVE",
"324 734 LINE",
"234 728 OFFCURVE",
"186 702 OFFCURVE",
"186 652 CURVE SMOOTH",
"186 610 OFFCURVE",
"212 592 OFFCURVE",
"284 580 CURVE"
);
}
);
width = 480;
},
{
anchors = (
{
name = _aboveLC;
position = "{260, 509}";
}
);
components = (
{
alignment = -1;
name = g;
}
);
layerId = master01;
paths = (
{
closed = 1;
nodes = (
"317 613 LINE",
"270 617 OFFCURVE",
"245 629 OFFCURVE",
"245 655 CURVE SMOOTH",
"245 683 OFFCURVE",
"271 698 OFFCURVE",
"354 703 CURVE",
"346 744 LINE",
"241 738 OFFCURVE",
"182 710 OFFCURVE",
"182 652 CURVE SMOOTH",
"182 607 OFFCURVE",
"211 585 OFFCURVE",
"299 575 CURVE"
);
}
);
width = 504.288;
}
);
leftKerningGroup = g;
rightKerningGroup = g;
unicode = 0123;
},
{
glyphname = glottalstop;
layers = (
{
anchors = (
{
name = aboveUC;
position = "{220, 722}";
},
{
name = belowLC;
position = "{200, -22}";
}
);
layerId = "42B3044F-4D5A-45CA-9EB7-C1889731596B";
paths = (
{
closed = 1;
nodes = (
"294 0 LINE",
"294 266 LINE",
"380 330 OFFCURVE",
"444 398 OFFCURVE",
"444 504 CURVE SMOOTH",
"444 639 OFFCURVE",
"336 708 OFFCURVE",
"212 708 CURVE SMOOTH",
"118 708 OFFCURVE",
"56 670 OFFCURVE",
"2 618 CURVE",
"80 518 LINE",
"116 548 OFFCURVE",
"152 570 OFFCURVE",
"192 570 CURVE SMOOTH",
"240 570 OFFCURVE",
"272 543 OFFCURVE",
"272 490 CURVE SMOOTH",
"272 434 OFFCURVE",
"234 392 OFFCURVE",
"122 324 CURVE",
"122 0 LINE"
);
}
);
width = 460;
},
{
anchors = (
{
name = aboveUC;
position = "{190, 732}";
},
{
name = belowLC;
position = "{170, -22}";
}
);
layerId = "0CAB57D4-4FC4-49C3-B456-FB7666EAA712";
paths = (
{
closed = 1;
nodes = (
"190 0 LINE",
"190 308 LINE",
"294 370 OFFCURVE",
"370 434 OFFCURVE",
"370 552 CURVE SMOOTH",
"370 670 OFFCURVE",
"290 734 OFFCURVE",
"184 734 CURVE SMOOTH",
"92 734 OFFCURVE",
"38 688 OFFCURVE",
"2 648 CURVE",
"22 626 LINE",
"56 666 OFFCURVE",
"104 706 OFFCURVE",
"186 706 CURVE SMOOTH",
"284 706 OFFCURVE",
"338 644 OFFCURVE",
"338 554 CURVE SMOOTH",
"338 454 OFFCURVE",
"278 392 OFFCURVE",
"160 330 CURVE",
"160 0 LINE"
);
}
);
width = 392;
},
{
anchors = (
{
name = aboveUC;
position = "{201, 728}";
},
{
name = belowLC;
position = "{181, -22}";
}
);
layerId = master01;
paths = (
{
closed = 1;
nodes = (
"228 0 LINE",
"228 293 LINE",
"326 355 OFFCURVE",
"397 421 OFFCURVE",
"397 534 CURVE SMOOTH",
"397 659 OFFCURVE",
"307 724 OFFCURVE",
"194 724 CURVE SMOOTH",
"102 724 OFFCURVE",
"45 681 OFFCURVE",
"2 637 CURVE",
"43 586 LINE",
"78 623 OFFCURVE",
"122 656 OFFCURVE",
"188 656 CURVE SMOOTH",
"268 656 OFFCURVE",
"314 607 OFFCURVE",
"314 530 CURVE SMOOTH",
"314 447 OFFCURVE",
"262 392 OFFCURVE",
"146 328 CURVE",
"146 0 LINE"
);
}
);
width = 417.024;
}
);
unicode = 0294;
},
{
glyphname = glottalstopstroke;
layers = (
{
anchors = (
{
name = aboveUC;
position = "{230, 722}";
},
{
name = belowLC;
position = "{210, -22}";
}
);
components = (
{
name = glottalstop;
transform = "{1, 0, 0, 1, 10, 0}";
}
);
layerId = "42B3044F-4D5A-45CA-9EB7-C1889731596B";
paths = (
{
closed = 1;
nodes = (
"406 108 LINE",
"406 220 LINE",
"132 220 LINE",
"26 214 LINE",
"26 108 LINE"
);
}
);
width = 470;
},
{
anchors = (
{
name = aboveUC;
position = "{200, 732}";
},
{
name = belowLC;
position = "{180, -22}";
}
);
components = (
{
name = glottalstop;
transform = "{1, 0, 0, 1, 10, 0}";
}
);
layerId = "0CAB57D4-4FC4-49C3-B456-FB7666EAA712";
paths = (
{
closed = 1;
nodes = (
"322 152 LINE",
"322 180 LINE",
"120 180 LINE",
"44 176 LINE",
"44 152 LINE"
);
}
);
width = 402;
},
{
anchors = (
{
name = aboveUC;
position = "{211, 728}";
},
{
name = belowLC;
position = "{191, -22}";
}
);
components = (
{
alignment = -1;
name = glottalstop;
transform = "{1, 0, 0, 1, 10, 0}";
}
);
layerId = master01;
paths = (
{
closed = 1;
nodes = (
"353 136 LINE",
"353 195 LINE",
"124 195 LINE",
"37 190 LINE",
"37 136 LINE"
);
}
);
width = 427.024;
}
);
unicode = 02A1;
},
{
glyphname = gscript;
layers = (
{
anchors = (
{
name = aboveLC;
position = "{290, 522}";
},
{
name = belowLC;
position = "{300, -182}";
}
);
layerId = "42B3044F-4D5A-45CA-9EB7-C1889731596B";
paths = (
{
closed = 1;
nodes = (
"426 -196 OFFCURVE",
"522 -118 OFFCURVE",
"522 26 CURVE SMOOTH",
"522 500 LINE",
"384 500 LINE",
"372 454 LINE",
"368 454 LINE",
"332 496 OFFCURVE",
"292 512 OFFCURVE",
"244 512 CURVE SMOOTH",
"142 512 OFFCURVE",
"36 412 OFFCURVE",
"36 260 CURVE SMOOTH",
"36 120 OFFCURVE",
"116 16 OFFCURVE",
"240 16 CURVE SMOOTH",
"282 16 OFFCURVE",
"323 32 OFFCURVE",
"354 60 CURVE",
"350 10 LINE",
"346 -30 OFFCURVE",
"322 -62 OFFCURVE",
"256 -62 CURVE SMOOTH",
"218 -62 OFFCURVE",
"168 -52 OFFCURVE",
"122 -28 CURVE",
"66 -140 LINE",
"126 -178 OFFCURVE",
"204 -196 OFFCURVE",
"256 -196 CURVE SMOOTH"
);
},
{
closed = 1;
nodes = (
"240 154 OFFCURVE",
"210 191 OFFCURVE",
"210 262 CURVE SMOOTH",
"210 337 OFFCURVE",
"244 372 OFFCURVE",
"282 372 CURVE SMOOTH",
"304 372 OFFCURVE",
"330 366 OFFCURVE",
"350 348 CURVE",
"350 192 LINE",
"330 162 OFFCURVE",
"312 154 OFFCURVE",
"286 154 CURVE SMOOTH"
);
}
);
width = 580;
},
{
anchors = (
{
name = aboveLC;
position = "{270, 502}";
},
{
name = belowLC;
position = "{270, -222}";
}
);
layerId = "0CAB57D4-4FC4-49C3-B456-FB7666EAA712";
paths = (
{
closed = 1;
nodes = (
"376 -234 OFFCURVE",
"444 -160 OFFCURVE",
"444 -48 CURVE SMOOTH",
"444 478 LINE",
"416 478 LINE",
"412 434 LINE",
"410 434 LINE",
"366 468 OFFCURVE",
"326 490 OFFCURVE",
"268 490 CURVE SMOOTH",
"152 490 OFFCURVE",
"54 396 OFFCURVE",
"54 244 CURVE SMOOTH",
"54 84 OFFCURVE",
"132 -2 OFFCURVE",
"252 -2 CURVE SMOOTH",
"318 -2 OFFCURVE",
"374 35 OFFCURVE",
"414 76 CURVE",
"414 -40 LINE",
"414 -144 OFFCURVE",
"360 -207 OFFCURVE",
"258 -207 CURVE SMOOTH",
"206 -207 OFFCURVE",
"156 -192 OFFCURVE",
"108 -156 CURVE",
"92 -182 LINE",
"138 -214 OFFCURVE",
"192 -234 OFFCURVE",
"258 -234 CURVE SMOOTH"
);
},
{
closed = 1;
nodes = (
"146 26 OFFCURVE",
"86 114 OFFCURVE",
"86 244 CURVE SMOOTH",
"86 366 OFFCURVE",
"164 462 OFFCURVE",
"266 462 CURVE SMOOTH",
"316 462 OFFCURVE",
"360 444 OFFCURVE",
"414 396 CURVE",
"414 110 LINE",
"360 56 OFFCURVE",
"310 26 OFFCURVE",
"254 26 CURVE SMOOTH"
);
}
);
width = 540;
},
{
anchors = (
{
name = aboveLC;
position = "{277, 509}";
},
{
name = belowLC;
position = "{281, -207}";
}
);
layerId = master01;
paths = (
{
closed = 1;
nodes = (
"394 -220 OFFCURVE",
"473 -145 OFFCURVE",
"473 -21 CURVE SMOOTH",
"473 486 LINE",
"404 486 LINE",
"397 441 LINE",
"395 441 LINE",
"353 478 OFFCURVE",
"313 498 OFFCURVE",
"259 498 CURVE SMOOTH",
"148 498 OFFCURVE",
"47 402 OFFCURVE",
"47 250 CURVE SMOOTH",
"47 97 OFFCURVE",
"126 5 OFFCURVE",
"248 5 CURVE SMOOTH",
"305 5 OFFCURVE",
"355 34 OFFCURVE",
"392 70 CURVE",
"390 -22 LINE",
"389 -102 OFFCURVE",
"346 -154 OFFCURVE",
"257 -154 CURVE SMOOTH",
"210 -154 OFFCURVE",
"160 -140 OFFCURVE",
"113 -109 CURVE",
"82 -167 LINE",
"134 -201 OFFCURVE",
"196 -220 OFFCURVE",
"257 -220 CURVE SMOOTH"
);
},
{
closed = 1;
nodes = (
"181 73 OFFCURVE",
"132 142 OFFCURVE",
"132 251 CURVE SMOOTH",
"132 355 OFFCURVE",
"193 429 OFFCURVE",
"272 429 CURVE SMOOTH",
"312 429 OFFCURVE",
"349 415 OFFCURVE",
"390 378 CURVE",
"390 140 LINE",
"349 95 OFFCURVE",
"311 73 OFFCURVE",
"266 73 CURVE SMOOTH"
);
}
);
width = 554.72;
}
);
leftKerningGroup = o;
rightKerningGroup = u;
unicode = 0261;
},
{
color = (102,255,204,255);
glyphname = gstroke;
layers = (
{
anchors = (
{
name = aboveLC;
position = "{290, 522}";
},
{
name = belowLC;
position = "{300, -182}";
}
);
components = (
{
name = gscript;
}
);
layerId = "42B3044F-4D5A-45CA-9EB7-C1889731596B";
paths = (
{
closed = 1;
nodes = (
"588 212 LINE",
"588 324 LINE",
"350 324 LINE",
"274 318 LINE",
"274 212 LINE"
);
}
);
width = 610;
},
{
anchors = (
{
name = aboveLC;
position = "{270, 502}";
},
{
name = belowLC;
position = "{270, -222}";
}
);
components = (
{
name = gscript;
}
);
layerId = "0CAB57D4-4FC4-49C3-B456-FB7666EAA712";
paths = (
{
closed = 1;
nodes = (
"534 238 LINE",
"534 266 LINE",
"414 266 LINE",
"278 262 LINE",
"278 238 LINE"
);
}
);
width = 560;
},
{
anchors = (
{
name = aboveLC;
position = "{277, 509}";
},
{
name = belowLC;
position = "{281, -207}";
}
);
components = (
{
alignment = -1;
name = gscript;
}
);
layerId = master01;
paths = (
{
closed = 1;
nodes = (
"554 228 LINE",
"554 287 LINE",
"390 287 LINE",
"277 283 LINE",
"277 228 LINE"
);
}
);
width = 578.4;
}
);
leftKerningGroup = o;
rightKerningGroup = istroke;
unicode = 01E5;
},
{
glyphname = h;
layers = (
{
anchors = (
{
name = aboveUC;
position = "{320, 722}";
},
{
name = belowLC;
position = "{300, -22}";
}
);
layerId = "42B3044F-4D5A-45CA-9EB7-C1889731596B";
paths = (
{
closed = 1;
nodes = (
"230 0 LINE",
"230 328 LINE",
"256 352 OFFCURVE",
"274 366 OFFCURVE",
"306 366 CURVE SMOOTH",
"340 366 OFFCURVE",
"356 350 OFFCURVE",
"356 286 CURVE SMOOTH",
"356 0 LINE",
"528 0 LINE",
"528 308 LINE SMOOTH",
"528 432 OFFCURVE",
"482 512 OFFCURVE",
"372 512 CURVE SMOOTH",
"304 512 OFFCURVE",
"256 478 OFFCURVE",
"222 448 CURVE",
"230 534 LINE",
"230 696 LINE",
"58 696 LINE",
"58 0 LINE"
);
}
);
width = 582;
},
{
anchors = (
{
name = aboveUC;
position = "{280, 732}";
},
{
name = belowLC;
position = "{280, -22}";
}
);
layerId = "0CAB57D4-4FC4-49C3-B456-FB7666EAA712";
paths = (
{
closed = 1;
nodes = (
"126 0 LINE",
"126 366 LINE",
"188 430 OFFCURVE",
"232 462 OFFCURVE",
"292 462 CURVE SMOOTH",
"374 462 OFFCURVE",
"408 410 OFFCURVE",
"408 304 CURVE SMOOTH",
"408 0 LINE",
"438 0 LINE",
"438 308 LINE SMOOTH",
"438 432 OFFCURVE",
"392 490 OFFCURVE",
"294 490 CURVE SMOOTH",
"228 490 OFFCURVE",
"178 452 OFFCURVE",
"126 400 CURVE",
"126 508 LINE",
"126 722 LINE",
"96 722 LINE",
"96 0 LINE"
);
}
);
width = 522;
},
{
anchors = (
{
name = aboveUC;
position = "{295, 728}";
},
{
name = belowLC;
position = "{287, -22}";
}
);
layerId = master01;
paths = (
{
closed = 1;
nodes = (
"164 0 LINE",
"164 352 LINE",
"213 401 OFFCURVE",
"247 427 OFFCURVE",
"297 427 CURVE SMOOTH",
"361 427 OFFCURVE",
"389 388 OFFCURVE",
"389 297 CURVE SMOOTH",
"389 0 LINE",
"471 0 LINE",
"471 308 LINE SMOOTH",
"471 432 OFFCURVE",
"425 498 OFFCURVE",
"323 498 CURVE SMOOTH",
"256 498 OFFCURVE",
"207 462 OFFCURVE",
"161 418 CURVE",
"164 518 LINE",
"164 712 LINE",
"82 712 LINE",
"82 0 LINE"
);
}
);
width = 544.08;
}
);
leftKerningGroup = l;
rightKerningGroup = n;
unicode = 0068;
},
{
glyphname = hbar;
layers = (
{
layerId = "42B3044F-4D5A-45CA-9EB7-C1889731596B";
paths = (
{
closed = 1;
nodes = (
"230 0 LINE",
"230 278 LINE",
"256 302 OFFCURVE",
"274 316 OFFCURVE",
"306 316 CURVE SMOOTH",
"340 316 OFFCURVE",
"356 300 OFFCURVE",
"356 236 CURVE SMOOTH",
"356 0 LINE",
"528 0 LINE",
"528 258 LINE SMOOTH",
"528 382 OFFCURVE",
"482 462 OFFCURVE",
"372 462 CURVE SMOOTH",
"304 462 OFFCURVE",
"256 428 OFFCURVE",
"222 398 CURVE",
"230 484 LINE",
"230 696 LINE",
"58 696 LINE",
"58 0 LINE"
);
},
{
closed = 1;
nodes = (
"394 518 LINE",
"394 630 LINE",
"68 630 LINE",
"-8 624 LINE",
"-8 518 LINE"
);
}
);
width = 582;
},
{
layerId = "0CAB57D4-4FC4-49C3-B456-FB7666EAA712";
paths = (
{
closed = 1;
nodes = (
"146 0 LINE",
"146 334 LINE",
"208 398 OFFCURVE",
"252 430 OFFCURVE",
"312 430 CURVE SMOOTH",
"394 430 OFFCURVE",
"428 378 OFFCURVE",
"428 272 CURVE SMOOTH",
"428 0 LINE",
"458 0 LINE",
"458 276 LINE SMOOTH",
"458 400 OFFCURVE",
"412 458 OFFCURVE",
"314 458 CURVE SMOOTH",
"248 458 OFFCURVE",
"198 420 OFFCURVE",
"146 368 CURVE",
"146 476 LINE",
"146 722 LINE",
"116 722 LINE",
"116 0 LINE"
);
},
{
closed = 1;
nodes = (
"338 584 LINE",
"338 612 LINE",
"116 612 LINE",
"22 608 LINE",
"22 584 LINE"
);
}
);
width = 542;
},
{
layerId = master01;
paths = (
{
closed = 1;
nodes = (
"177 0 LINE",
"177 313 LINE",
"226 363 OFFCURVE",
"260 388 OFFCURVE",
"310 388 CURVE SMOOTH",
"374 388 OFFCURVE",
"402 349 OFFCURVE",
"402 259 CURVE SMOOTH",
"402 0 LINE",
"484 0 LINE",
"484 269 LINE SMOOTH",
"484 393 OFFCURVE",
"438 459 OFFCURVE",
"335 459 CURVE SMOOTH",
"269 459 OFFCURVE",
"219 423 OFFCURVE",
"174 379 CURVE",
"177 479 LINE",
"177 712 LINE",
"95 712 LINE",
"95 0 LINE"
);
},
{
closed = 1;
nodes = (
"359 560 LINE",
"359 619 LINE",
"98 619 LINE",
"11 614 LINE",
"11 560 LINE"
);
}
);
width = 556.72;
}
);
leftKerningGroup = hbar;
rightKerningGroup = n;
unicode = 0127;
},
{
glyphname = dotlessi;
layers = (
{
anchors = (
{
name = aboveLC;
position = "{144, 522}";
},
{
name = belowLC;
position = "{144, -22}";
},
{
name = ogonekLC;
position = "{140, 0}";
}
);
layerId = "42B3044F-4D5A-45CA-9EB7-C1889731596B";
paths = (
{
closed = 1;
nodes = (
"230 0 LINE",
"230 500 LINE",
"58 500 LINE",
"58 0 LINE"
);
}
);
width = 288;
},
{
anchors = (
{
name = aboveLC;
position = "{110, 502}";
},
{
name = belowLC;
position = "{110, -22}";
},
{
name = ogonekLC;
position = "{100, 0}";
}
);
layerId = "0CAB57D4-4FC4-49C3-B456-FB7666EAA712";
paths = (
{
closed = 1;
nodes = (
"126 0 LINE",
"126 478 LINE",
"96 478 LINE",
"96 0 LINE"
);
}
);
width = 222;
},
{
anchors = (
{
name = aboveLC;
position = "{123, 509}";
},
{
name = belowLC;
position = "{123, -22}";
},
{
name = ogonekLC;
position = "{115, 0}";
}
);
layerId = master01;
paths = (
{
closed = 1;
nodes = (
"164 0 LINE",
"164 486 LINE",
"82 486 LINE",
"82 0 LINE"
);
}
);
width = 246.288;
}
);
leftKerningGroup = n;
rightKerningGroup = u;
unicode = 0131;
},
{
color = (102,204,255,255);
glyphname = iogonek;
layers = (
{
anchors = (
{
name = aboveLC;
position = "{144, 522}";
}
);
components = (
{
name = dotaccentcmb;
transform = "{1, 0, 0, 1, 144, 0}";
}
);
layerId = "42B3044F-4D5A-45CA-9EB7-C1889731596B";
paths = (
{
closed = 1;
nodes = (
"196 -220 OFFCURVE",
"244 -206 OFFCURVE",
"274 -184 CURVE",
"240 -96 LINE",
"228 -102 OFFCURVE",
"212 -108 OFFCURVE",
"194 -108 CURVE SMOOTH",
"176 -108 OFFCURVE",
"156 -98 OFFCURVE",
"156 -76 CURVE SMOOTH",
"156 -48 OFFCURVE",
"172 -16 OFFCURVE",
"230 0 CURVE",
"230 500 LINE",
"58 500 LINE",
"58 0 LINE",
"98 0 LINE",
"74 -16 OFFCURVE",
"32 -58 OFFCURVE",
"32 -116 CURVE SMOOTH",
"32 -186 OFFCURVE",
"88 -220 OFFCURVE",
"158 -220 CURVE SMOOTH"
);
}
);
width = 288;
},
{
anchors = (
{
name = aboveLC;
position = "{110, 502}";
}
);
components = (
{
name = dotaccentcmb;
transform = "{1, 0, 0, 1, 112, 0}";
}
);
layerId = "0CAB57D4-4FC4-49C3-B456-FB7666EAA712";
paths = (
{
closed = 1;
nodes = (
"146 -212 OFFCURVE",
"170 -198 OFFCURVE",
"186 -184 CURVE",
"172 -164 LINE",
"154 -178 OFFCURVE",
"140 -184 OFFCURVE",
"118 -184 CURVE SMOOTH",
"88 -184 OFFCURVE",
"60 -166 OFFCURVE",
"60 -124 CURVE SMOOTH",
"60 -80 OFFCURVE",
"92 -38 OFFCURVE",
"126 0 CURVE",
"126 478 LINE",
"96 478 LINE",
"96 0 LINE",
"98 0 LINE",
"62 -36 OFFCURVE",
"30 -76 OFFCURVE",
"30 -126 CURVE SMOOTH",
"30 -186 OFFCURVE",
"68 -212 OFFCURVE",
"116 -212 CURVE SMOOTH"
);
}
);
width = 222;
},
{
anchors = (
{
name = aboveLC;
position = "{123, 509}";
}
);
components = (
{
alignment = -1;
name = dotaccentcmb;
transform = "{1, 0, 0, 1, 124, 0}";
}
);
layerId = master01;
paths = (
{
closed = 1;
nodes = (
"164 -215 OFFCURVE",
"197 -201 OFFCURVE",
"218 -184 CURVE",
"197 -139 LINE",
"181 -150 OFFCURVE",
"166 -156 OFFCURVE",
"146 -156 CURVE SMOOTH",
"120 -156 OFFCURVE",
"95 -141 OFFCURVE",
"95 -106 CURVE SMOOTH",
"95 -68 OFFCURVE",
"121 -30 OFFCURVE",
"164 0 CURVE",
"164 486 LINE",
"82 486 LINE",
"82 0 LINE",
"98 0 LINE",
"66 -29 OFFCURVE",
"31 -69 OFFCURVE",
"31 -122 CURVE SMOOTH",
"31 -186 OFFCURVE",
"75 -215 OFFCURVE",
"131 -215 CURVE SMOOTH"
);
}
);
width = 246.288;
}
);
leftKerningGroup = i;
rightKerningGroup = i;
unicode = 012F;
},
{
color = (102,204,255,255);
glyphname = istroke;
layers = (
{
anchors = (
{
name = aboveLC;
position = "{174, 522}";
},
{
name = belowLC;
position = "{190, -22}";
},
{
name = ogonekLC;
position = "{190, 0}";
}
);
components = (
{
name = dotlessi;
transform = "{1, 0, 0, 1, 30, 0}";
},
{
name = dotaccentcmb;
transform = "{1, 0, 0, 1, 174, 0}";
}
);
layerId = "42B3044F-4D5A-45CA-9EB7-C1889731596B";
paths = (
{
closed = 1;
nodes = (
"326 198 LINE",
"326 310 LINE",
"88 310 LINE",
"22 304 LINE",
"22 198 LINE"
);
}
);
width = 348;
},
{
anchors = (
{
name = aboveLC;
position = "{130, 502}";
},
{
name = belowLC;
position = "{116, -22}";
},
{
name = ogonekLC;
position = "{116, 0}";
}
);
components = (
{
name = dotlessi;
transform = "{1, 0, 0, 1, 20, 0}";
},
{
name = dotaccentcmb;
transform = "{1, 0, 0, 1, 130, 0}";
}
);
layerId = "0CAB57D4-4FC4-49C3-B456-FB7666EAA712";
paths = (
{
closed = 1;
nodes = (
"236 238 LINE",
"236 266 LINE",
"116 266 LINE",
"22 262 LINE",
"22 238 LINE"
);
}
);
width = 262;
},
{
anchors = (
{
name = aboveLC;
position = "{146, 509}";
},
{
name = belowLC;
position = "{143, -22}";
},
{
name = ogonekLC;
position = "{143, 0}";
}
);
components = (
{
alignment = -1;
name = dotlessi;
transform = "{1, 0, 0, 1, 24, 0}";
},
{
alignment = -1;
name = dotaccentcmb;
transform = "{1, 0, 0, 1, 146, 0}";
}
);
layerId = master01;
paths = (
{
closed = 1;
nodes = (
"269 223 LINE",
"269 282 LINE",
"106 282 LINE",
"22 277 LINE",
"22 223 LINE"
);
}
);
width = 293.648;
}
);
leftKerningGroup = istroke;
rightKerningGroup = istroke;
unicode = 0268;
},
{
glyphname = dotlessj;
layers = (
{
anchors = (
{
name = aboveLC;
position = "{146, 522}";
},
{
name = belowLC;
position = "{90, -182}";
}
);
layerId = "42B3044F-4D5A-45CA-9EB7-C1889731596B";
paths = (
{
closed = 1;
nodes = (
"188 -188 OFFCURVE",
"232 -86 OFFCURVE",
"232 26 CURVE SMOOTH",
"232 500 LINE",
"60 500 LINE",
"60 20 LINE SMOOTH",
"60 -34 OFFCURVE",
"46 -54 OFFCURVE",
"10 -54 CURVE SMOOTH",
"-2 -54 OFFCURVE",
"-12 -52 OFFCURVE",
"-26 -48 CURVE",
"-56 -174 LINE",
"-34 -182 OFFCURVE",
"-8 -188 OFFCURVE",
"38 -188 CURVE SMOOTH"
);
}
);
width = 290;
},
{
anchors = (
{
name = aboveLC;
position = "{112, 502}";
},
{
name = belowLC;
position = "{50, -222}";
}
);
layerId = "0CAB57D4-4FC4-49C3-B456-FB7666EAA712";
paths = (
{
closed = 1;
nodes = (
"94 -234 OFFCURVE",
"126 -194 OFFCURVE",
"126 -102 CURVE SMOOTH",
"126 478 LINE",
"96 478 LINE",
"96 -98 LINE SMOOTH",
"96 -160 OFFCURVE",
"86 -206 OFFCURVE",
"30 -206 CURVE SMOOTH",
"12 -206 OFFCURVE",
"-10 -200 OFFCURVE",
"-22 -196 CURVE",
"-30 -220 LINE",
"-16 -228 OFFCURVE",
"10 -234 OFFCURVE",
"28 -234 CURVE SMOOTH"
);
}
);
width = 222;
},
{
anchors = (
{
name = aboveLC;
position = "{125, 509}";
},
{
name = belowLC;
position = "{65, -207}";
}
);
layerId = master01;
paths = (
{
closed = 1;
nodes = (
"129 -217 OFFCURVE",
"165 -154 OFFCURVE",
"165 -55 CURVE SMOOTH",
"165 486 LINE",
"83 486 LINE",
"83 -55 LINE SMOOTH",
"83 -114 OFFCURVE",
"71 -150 OFFCURVE",
"23 -150 CURVE SMOOTH",
"7 -150 OFFCURVE",
"-11 -146 OFFCURVE",
"-23 -142 CURVE",
"-40 -203 LINE",
"-23 -211 OFFCURVE",
"3 -217 OFFCURVE",
"32 -217 CURVE SMOOTH"
);
}
);
width = 247.024;
}
);
leftKerningGroup = j;
rightKerningGroup = j;
unicode = 0237;
},
{
glyphname = k;
layers = (
{
anchors = (
{
name = aboveUC;
position = "{320, 722}";
},
{
name = aboverightLC;
position = "{480, 522}";
},
{
name = belowLC;
position = "{300, -22}";
}
);
layerId = "42B3044F-4D5A-45CA-9EB7-C1889731596B";
paths = (
{
closed = 1;
nodes = (
"228 0 LINE",
"228 122 LINE",
"278 178 LINE",
"378 0 LINE",
"564 0 LINE",
"378 290 LINE",
"554 500 LINE",
"366 500 LINE",
"232 328 LINE",
"228 328 LINE",
"228 696 LINE",
"58 696 LINE",
"58 0 LINE"
);
}
);
width = 568;
},
{
anchors = (
{
name = aboveUC;
position = "{270, 732}";
},
{
name = aboverightLC;
position = "{390, 502}";
},
{
name = belowLC;
position = "{260, -22}";
}
);
layerId = "0CAB57D4-4FC4-49C3-B456-FB7666EAA712";
paths = (
{
closed = 1;
nodes = (
"126 0 LINE",
"126 132 LINE",
"240 266 LINE",
"406 0 LINE",
"440 0 LINE",
"258 290 LINE",
"412 478 LINE",
"376 478 LINE",
"128 174 LINE",
"126 174 LINE",
"126 722 LINE",
"96 722 LINE",
"96 0 LINE"
);
}
);
width = 452;
},
{
anchors = (
{
name = aboveUC;
position = "{288, 728}";
},
{
name = aboverightLC;
position = "{423, 509}";
},
{
name = belowLC;
position = "{275, -22}";
}
);
layerId = master01;
paths = (
{
closed = 1;
nodes = (
"164 0 LINE",
"164 128 LINE",
"254 234 LINE",
"396 0 LINE",
"486 0 LINE",
"302 290 LINE",
"464 486 LINE",
"372 486 LINE",
"166 231 LINE",
"164 231 LINE",
"164 712 LINE",
"82 712 LINE",
"82 0 LINE"
);
}
);
width = 494.688;
}
);
leftKerningGroup = l;
rightKerningGroup = k;
unicode = 006B;
},
{
glyphname = l;
layers = (
{
anchors = (
{
name = aboveUC;
position = "{150, 722}";
},
{
name = belowLC;
position = "{170, -22}";
},
{
name = center;
position = "{150, 360}";
}
);
guideLines = (
{
position = "{298, 360}";
}
);
layerId = "42B3044F-4D5A-45CA-9EB7-C1889731596B";
paths = (
{
closed = 1;
nodes = (
"250 -12 OFFCURVE",
"278 -6 OFFCURVE",
"296 2 CURVE",
"276 128 LINE",
"268 126 OFFCURVE",
"264 126 OFFCURVE",
"258 126 CURVE SMOOTH",
"246 126 OFFCURVE",
"230 136 OFFCURVE",
"230 170 CURVE SMOOTH",
"230 696 LINE",
"58 696 LINE",
"58 176 LINE SMOOTH",
"58 64 OFFCURVE",
"96 -12 OFFCURVE",
"212 -12 CURVE SMOOTH"
);
}
);
width = 298;
},
{
anchors = (
{
name = aboveUC;
position = "{110, 732}";
},
{
name = belowLC;
position = "{130, -22}";
},
{
name = center;
position = "{110, 400}";
}
);
layerId = "0CAB57D4-4FC4-49C3-B456-FB7666EAA712";
paths = (
{
closed = 1;
nodes = (
"154 -8 OFFCURVE",
"162 -6 OFFCURVE",
"170 -2 CURVE",
"164 22 LINE",
"156 20 OFFCURVE",
"152 20 OFFCURVE",
"148 20 CURVE SMOOTH",
"134 20 OFFCURVE",
"126 28 OFFCURVE",
"126 50 CURVE SMOOTH",
"126 722 LINE",
"96 722 LINE",
"96 56 LINE SMOOTH",
"96 10 OFFCURVE",
"114 -8 OFFCURVE",
"144 -8 CURVE SMOOTH"
);
}
);
width = 230;
},
{
anchors = (
{
name = aboveUC;
position = "{125, 728}";
},
{
name = belowLC;
position = "{145, -22}";
},
{
name = center;
position = "{125, 385}";
}
);
layerId = master01;
paths = (
{
closed = 1;
nodes = (
"189 -9 OFFCURVE",
"205 -6 OFFCURVE",
"216 -1 CURVE",
"205 61 LINE",
"197 59 OFFCURVE",
"193 59 OFFCURVE",
"188 59 CURVE SMOOTH",
"175 59 OFFCURVE",
"164 68 OFFCURVE",
"164 94 CURVE SMOOTH",
"164 712 LINE",
"82 712 LINE",
"82 100 LINE SMOOTH",
"82 30 OFFCURVE",
"107 -9 OFFCURVE",
"169 -9 CURVE SMOOTH"
);
}
);
width = 255.024;
}
);
leftKerningGroup = l;
rightKerningGroup = l;
unicode = 006C;
},
{
glyphname = lbar;
layers = (
{
anchors = (
{
name = aboveUC;
position = "{180, 722}";
},
{
name = belowLC;
position = "{200, -22}";
}
);
components = (
{
name = l;
transform = "{1, 0, 0, 1, 30, 0}";
}
);
layerId = "42B3044F-4D5A-45CA-9EB7-C1889731596B";
paths = (
{
closed = 1;
nodes = (
"326 314 LINE",
"326 426 LINE",
"88 426 LINE",
"22 420 LINE",
"22 314 LINE"
);
}
);
width = 348;
},
{
anchors = (
{
name = aboveUC;
position = "{130, 732}";
},
{
name = belowLC;
position = "{150, -22}";
}
);
components = (
{
name = l;
transform = "{1, 0, 0, 1, 20, 0}";
}
);
layerId = "0CAB57D4-4FC4-49C3-B456-FB7666EAA712";
paths = (
{
closed = 1;
nodes = (
"234 386 LINE",
"234 414 LINE",
"116 414 LINE",
"22 410 LINE",
"22 386 LINE"
);
}
);
width = 260;
},
{
anchors = (
{
name = aboveUC;
position = "{148, 728}";
},
{
name = belowLC;
position = "{168, -22}";
}
);
components = (
{
alignment = -1;
name = l;
transform = "{1, 0, 0, 1, 24, 0}";
}
);
layerId = master01;
paths = (
{
closed = 1;
nodes = (
"268 360 LINE",
"268 418 LINE",
"106 418 LINE",
"22 414 LINE",
"22 360 LINE"
);
}
);
width = 292.384;
}
);
leftKerningGroup = lslash;
rightKerningGroup = lslash;
unicode = 019A;
},
{
glyphname = lbardbl;
layers = (
{
anchors = (
{
name = aboveUC;
position = "{180, 722}";
},
{
name = belowLC;
position = "{200, -22}";
}
);
components = (
{
name = l;
transform = "{1, 0, 0, 1, 30, 0}";
}
);
guideLines = (
{
position = "{180, 390}";
}
);
layerId = "42B3044F-4D5A-45CA-9EB7-C1889731596B";
paths = (
{
closed = 1;
nodes = (
"326 392 LINE",
"326 476 LINE",
"88 476 LINE",
"22 470 LINE",
"22 392 LINE"
);
},
{
closed = 1;
nodes = (
"326 264 LINE",
"326 348 LINE",
"88 348 LINE",
"22 342 LINE",
"22 264 LINE"
);
}
);
width = 348;
},
{
anchors = (
{
name = aboveUC;
position = "{130, 732}";
},
{
name = belowLC;
position = "{150, -22}";
}
);
components = (
{
name = l;
transform = "{1, 0, 0, 1, 20, 0}";
}
);
layerId = "0CAB57D4-4FC4-49C3-B456-FB7666EAA712";
paths = (
{
closed = 1;
nodes = (
"234 440 LINE",
"234 468 LINE",
"116 468 LINE",
"22 464 LINE",
"22 440 LINE"
);
},
{
closed = 1;
nodes = (
"234 332 LINE",
"234 360 LINE",
"116 360 LINE",
"22 356 LINE",
"22 332 LINE"
);
}
);
width = 260;
},
{
anchors = (
{
name = aboveUC;
position = "{148, 728}";
},
{
name = belowLC;
position = "{168, -22}";
}
);
components = (
{
alignment = -1;
name = l;
transform = "{1, 0, 0, 1, 24, 0}";
}
);
layerId = master01;
paths = (
{
closed = 1;
nodes = (
"268 422 LINE",
"268 471 LINE",
"106 471 LINE",
"22 466 LINE",
"22 422 LINE"
);
},
{
closed = 1;
nodes = (
"268 307 LINE",
"268 356 LINE",
"106 356 LINE",
"22 351 LINE",
"22 307 LINE"
);
}
);
width = 292.384;
}
);
leftKerningGroup = lslash;
rightKerningGroup = lslash;
unicode = 2C61;
},
{
glyphname = lezh;
layers = (
{
anchors = (
{
name = aboveUC;
position = "{150, 722}";
},
{
name = belowLC;
position = "{410, -182}";
}
);
layerId = "42B3044F-4D5A-45CA-9EB7-C1889731596B";
paths = (
{
closed = 1;
nodes = (
"230 0 LINE",
"230 696 LINE",
"58 696 LINE",
"58 0 LINE"
);
},
{
closed = 1;
nodes = (
"519 -188 OFFCURVE",
"622 -104 OFFCURVE",
"622 44 CURVE SMOOTH",
"622 145 OFFCURVE",
"587 244 OFFCURVE",
"396 244 CURVE",
"467 210 LINE",
"598 408 LINE",
"598 500 LINE",
"206 500 LINE",
"206 366 LINE",
"394 366 LINE",
"278 188 LINE",
"332 108 LINE",
"354 116 OFFCURVE",
"362 118 OFFCURVE",
"388 118 CURVE SMOOTH",
"424 118 OFFCURVE",
"450 90 OFFCURVE",
"450 40 CURVE SMOOTH",
"450 -18 OFFCURVE",
"420 -50 OFFCURVE",
"374 -50 CURVE SMOOTH",
"340 -50 OFFCURVE",
"311 -26 OFFCURVE",
"282 0 CURVE",
"206 -106 LINE",
"252 -150 OFFCURVE",
"310 -188 OFFCURVE",
"396 -188 CURVE SMOOTH"
);
}
);
width = 644;
},
{
anchors = (
{
name = aboveUC;
position = "{300, 732}";
},
{
name = belowLC;
position = "{310, -222}";
}
);
layerId = "0CAB57D4-4FC4-49C3-B456-FB7666EAA712";
paths = (
{
closed = 1;
nodes = (
"126 0 LINE",
"126 722 LINE",
"96 722 LINE",
"96 0 LINE"
);
},
{
closed = 1;
nodes = (
"415 -234 OFFCURVE",
"510 -158 OFFCURVE",
"510 -22 CURVE SMOOTH",
"510 106 OFFCURVE",
"416 196 OFFCURVE",
"265 161 CURVE",
"267 158 LINE",
"490 462 LINE",
"490 478 LINE",
"118 478 LINE",
"118 450 LINE",
"450 450 LINE",
"226 146 LINE",
"246 120 LINE",
"270 132 OFFCURVE",
"284 140 OFFCURVE",
"314 140 CURVE SMOOTH",
"422 140 OFFCURVE",
"478 77 OFFCURVE",
"478 -24 CURVE SMOOTH",
"478 -132 OFFCURVE",
"405 -206 OFFCURVE",
"322 -206 CURVE SMOOTH",
"241 -206 OFFCURVE",
"193 -171 OFFCURVE",
"162 -137 CURVE",
"142 -159 LINE",
"175 -193 OFFCURVE",
"229 -234 OFFCURVE",
"320 -234 CURVE SMOOTH"
);
}
);
width = 526;
},
{
anchors = (
{
name = aboveUC;
position = "{245, 728}";
},
{
name = belowLC;
position = "{347, -207}";
}
);
layerId = master01;
paths = (
{
closed = 1;
nodes = (
"164 0 LINE",
"164 712 LINE",
"82 712 LINE",
"82 0 LINE"
);
},
{
closed = 1;
nodes = (
"453 -217 OFFCURVE",
"551 -138 OFFCURVE",
"551 2 CURVE SMOOTH",
"551 120 OFFCURVE",
"479 214 OFFCURVE",
"313 192 CURVE",
"341 177 LINE",
"530 442 LINE",
"530 486 LINE",
"150 486 LINE",
"150 419 LINE",
"429 419 LINE",
"245 161 LINE",
"278 116 LINE",
"301 126 OFFCURVE",
"313 132 OFFCURVE",
"341 132 CURVE SMOOTH",
"423 132 OFFCURVE",
"468 82 OFFCURVE",
"468 0 CURVE SMOOTH",
"468 -90 OFFCURVE",
"411 -149 OFFCURVE",
"341 -149 CURVE SMOOTH",
"277 -149 OFFCURVE",
"236 -118 OFFCURVE",
"206 -87 CURVE",
"166 -139 LINE",
"203 -177 OFFCURVE",
"259 -217 OFFCURVE",
"348 -217 CURVE SMOOTH"
);
}
);
width = 569.424;
}
);
leftKerningGroup = l;
rightKerningGroup = ezh;
unicode = 026E;
},
{
glyphname = lslash;
layers = (
{
anchors = (
{
name = aboveUC;
position = "{190, 722}";
},
{
name = belowLC;
position = "{210, -22}";
}
);
components = (
{
name = l;
transform = "{1, 0, 0, 1, 40, 0}";
}
);
layerId = "42B3044F-4D5A-45CA-9EB7-C1889731596B";
paths = (
{
closed = 1;
nodes = (
"106 282 LINE",
"252 350 LINE",
"398 412 LINE",
"342 518 LINE",
"252 480 LINE",
"106 412 LINE",
"-16 360 LINE",
"40 254 LINE"
);
}
);
width = 382;
},
{
anchors = (
{
name = aboveUC;
position = "{120, 732}";
},
{
name = belowLC;
position = "{140, -22}";
}
);
components = (
{
name = l;
transform = "{1, 0, 0, 1, 10, 0}";
}
);
layerId = "0CAB57D4-4FC4-49C3-B456-FB7666EAA712";
paths = (
{
closed = 1;
nodes = (
"116 406 LINE",
"128 410 LINE",
"236 466 LINE",
"224 490 LINE",
"128 440 LINE",
"116 436 LINE",
"0 376 LINE",
"12 352 LINE"
);
}
);
width = 250;
},
{
anchors = (
{
name = aboveUC;
position = "{146, 728}";
},
{
name = belowLC;
position = "{166, -22}";
}
);
components = (
{
alignment = -1;
name = l;
transform = "{1, 0, 0, 1, 21, 0}";
}
);
layerId = master01;
paths = (
{
closed = 1;
nodes = (
"112 360 LINE",
"174 388 LINE",
"296 446 LINE",
"267 500 LINE",
"174 455 LINE",
"112 427 LINE",
"-6 370 LINE",
"22 316 LINE"
);
}
);
width = 298.576;
}
);
leftKerningGroup = lslash;
rightKerningGroup = lslash;
unicode = 0142;
},
{
glyphname = m;
layers = (
{
anchors = (
{
name = aboveLC;
position = "{450, 522}";
},
{
name = belowLC;
position = "{440, -22}";
}
);
layerId = "42B3044F-4D5A-45CA-9EB7-C1889731596B";
paths = (
{
closed = 1;
nodes = (
"230 0 LINE",
"230 328 LINE",
"256 354 OFFCURVE",
"280 366 OFFCURVE",
"300 366 CURVE SMOOTH",
"334 366 OFFCURVE",
"350 350 OFFCURVE",
"350 286 CURVE SMOOTH",
"350 0 LINE",
"522 0 LINE",
"522 328 LINE",
"548 354 OFFCURVE",
"572 366 OFFCURVE",
"592 366 CURVE SMOOTH",
"626 366 OFFCURVE",
"642 350 OFFCURVE",
"642 286 CURVE SMOOTH",
"642 0 LINE",
"814 0 LINE",
"814 308 LINE SMOOTH",
"814 432 OFFCURVE",
"766 512 OFFCURVE",
"656 512 CURVE SMOOTH",
"588 512 OFFCURVE",
"543 474 OFFCURVE",
"502 432 CURVE",
"475 484 OFFCURVE",
"432 512 OFFCURVE",
"364 512 CURVE SMOOTH",
"296 512 OFFCURVE",
"254 478 OFFCURVE",
"214 439 CURVE",
"210 439 LINE",
"198 500 LINE",
"58 500 LINE",
"58 0 LINE"
);
}
);
width = 868;
},
{
anchors = (
{
name = aboveLC;
position = "{410, 502}";
},
{
name = belowLC;
position = "{410, -22}";
}
);
layerId = "0CAB57D4-4FC4-49C3-B456-FB7666EAA712";
paths = (
{
closed = 1;
nodes = (
"126 0 LINE",
"126 366 LINE",
"182 430 OFFCURVE",
"232 462 OFFCURVE",
"278 462 CURVE SMOOTH",
"356 462 OFFCURVE",
"392 410 OFFCURVE",
"392 304 CURVE SMOOTH",
"392 0 LINE",
"422 0 LINE",
"422 366 LINE",
"478 430 OFFCURVE",
"526 462 OFFCURVE",
"574 462 CURVE SMOOTH",
"652 462 OFFCURVE",
"688 410 OFFCURVE",
"688 304 CURVE SMOOTH",
"688 0 LINE",
"718 0 LINE",
"718 308 LINE SMOOTH",
"718 432 OFFCURVE",
"670 490 OFFCURVE",
"576 490 CURVE SMOOTH",
"522 490 OFFCURVE",
"468 452 OFFCURVE",
"412 390 CURVE",
"396 450 OFFCURVE",
"358 490 OFFCURVE",
"280 490 CURVE SMOOTH",
"228 490 OFFCURVE",
"172 452 OFFCURVE",
"128 402 CURVE",
"126 402 LINE",
"122 478 LINE",
"96 478 LINE",
"96 0 LINE"
);
}
);
width = 806;
},
{
anchors = (
{
name = aboveLC;
position = "{425, 509}";
},
{
name = belowLC;
position = "{421, -22}";
}
);
layerId = master01;
paths = (
{
closed = 1;
nodes = (
"164 0 LINE",
"164 352 LINE",
"209 402 OFFCURVE",
"250 427 OFFCURVE",
"286 427 CURVE SMOOTH",
"348 427 OFFCURVE",
"377 388 OFFCURVE",
"377 297 CURVE SMOOTH",
"377 0 LINE",
"459 0 LINE",
"459 352 LINE",
"504 402 OFFCURVE",
"543 427 OFFCURVE",
"581 427 CURVE SMOOTH",
"642 427 OFFCURVE",
"671 388 OFFCURVE",
"671 297 CURVE SMOOTH",
"671 0 LINE",
"753 0 LINE",
"753 308 LINE SMOOTH",
"753 432 OFFCURVE",
"705 498 OFFCURVE",
"605 498 CURVE SMOOTH",
"546 498 OFFCURVE",
"496 460 OFFCURVE",
"445 405 CURVE",
"425 463 OFFCURVE",
"385 498 OFFCURVE",
"311 498 CURVE SMOOTH",
"253 498 OFFCURVE",
"202 462 OFFCURVE",
"160 416 CURVE",
"157 416 LINE",
"150 486 LINE",
"82 486 LINE",
"82 0 LINE"
);
}
);
width = 828.816;
}
);
leftKerningGroup = n;
rightKerningGroup = n;
unicode = 006D;
},
{
glyphname = n;
layers = (
{
anchors = (
{
name = aboveLC;
position = "{320, 522}";
},
{
name = belowLC;
position = "{290, -22}";
}
);
layerId = "42B3044F-4D5A-45CA-9EB7-C1889731596B";
paths = (
{
closed = 1;
nodes = (
"230 0 LINE",
"230 328 LINE",
"256 352 OFFCURVE",
"274 366 OFFCURVE",
"306 366 CURVE SMOOTH",
"340 366 OFFCURVE",
"356 350 OFFCURVE",
"356 286 CURVE SMOOTH",
"356 0 LINE",
"528 0 LINE",
"528 308 LINE SMOOTH",
"528 432 OFFCURVE",
"482 512 OFFCURVE",
"372 512 CURVE SMOOTH",
"304 512 OFFCURVE",
"254 478 OFFCURVE",
"214 440 CURVE",
"210 440 LINE",
"198 500 LINE",
"58 500 LINE",
"58 0 LINE"
);
}
);
width = 582;
},
{
anchors = (
{
name = aboveLC;
position = "{280, 502}";
},
{
name = belowLC;
position = "{270, -22}";
}
);
layerId = "0CAB57D4-4FC4-49C3-B456-FB7666EAA712";
paths = (
{
closed = 1;
nodes = (
"126 0 LINE",
"126 366 LINE",
"188 430 OFFCURVE",
"232 462 OFFCURVE",
"292 462 CURVE SMOOTH",
"374 462 OFFCURVE",
"408 410 OFFCURVE",
"408 304 CURVE SMOOTH",
"408 0 LINE",
"438 0 LINE",
"438 308 LINE SMOOTH",
"438 432 OFFCURVE",
"392 490 OFFCURVE",
"294 490 CURVE SMOOTH",
"228 490 OFFCURVE",
"178 452 OFFCURVE",
"128 402 CURVE",
"126 402 LINE",
"122 478 LINE",
"96 478 LINE",
"96 0 LINE"
);
}
);
width = 526;
},
{
anchors = (
{
name = aboveLC;
position = "{295, 509}";
},
{
name = belowLC;
position = "{277, -22}";
}
);
layerId = master01;
paths = (
{
closed = 1;
nodes = (
"164 0 LINE",
"164 352 LINE",
"213 401 OFFCURVE",
"247 427 OFFCURVE",
"297 427 CURVE SMOOTH",
"361 427 OFFCURVE",
"389 388 OFFCURVE",
"389 297 CURVE SMOOTH",
"389 0 LINE",
"471 0 LINE",
"471 308 LINE SMOOTH",
"471 432 OFFCURVE",
"425 498 OFFCURVE",
"323 498 CURVE SMOOTH",
"256 498 OFFCURVE",
"206 462 OFFCURVE",
"160 416 CURVE",
"157 416 LINE",
"150 486 LINE",
"82 486 LINE",
"82 0 LINE"
);
}
);
width = 546.608;
}
);
leftKerningGroup = n;
rightKerningGroup = n;
unicode = 006E;
},
{
color = (0,128,255,255);
glyphname = napostrophe;
layers = (
{
components = (
{
name = n;
transform = "{1, 0, 0, 1, 300, 0}";
}
);
layerId = "42B3044F-4D5A-45CA-9EB7-C1889731596B";
paths = (
{
closed = 1;
nodes = (
"240 384 OFFCURVE",
"284 472 OFFCURVE",
"284 570 CURVE SMOOTH",
"284 654 OFFCURVE",
"230 708 OFFCURVE",
"148 708 CURVE SMOOTH",
"93 708 OFFCURVE",
"46 670 OFFCURVE",
"46 612 CURVE SMOOTH",
"46 560 OFFCURVE",
"90 530 OFFCURVE",
"134 530 CURVE SMOOTH",
"158 530 OFFCURVE",
"186 542 OFFCURVE",
"200 556 CURVE",
"174 556 LINE",
"174 550 OFFCURVE",
"174 546 OFFCURVE",
"174 540 CURVE SMOOTH",
"174 504 OFFCURVE",
"138 446 OFFCURVE",
"72 426 CURVE",
"112 344 LINE"
);
}
);
width = 882;
},
{
components = (
{
name = n;
transform = "{1, 0, 0, 1, 177, 0}";
}
);
layerId = "0CAB57D4-4FC4-49C3-B456-FB7666EAA712";
paths = (
{
closed = 1;
nodes = (
"146 524 OFFCURVE",
"172 580 OFFCURVE",
"172 642 CURVE SMOOTH",
"172 704 OFFCURVE",
"132 734 OFFCURVE",
"98 734 CURVE SMOOTH",
"72 734 OFFCURVE",
"54 718 OFFCURVE",
"54 696 CURVE SMOOTH",
"54 670 OFFCURVE",
"74 660 OFFCURVE",
"90 660 CURVE SMOOTH",
"106 660 OFFCURVE",
"118 666 OFFCURVE",
"124 682 CURVE",
"120 682 LINE",
"134 670 OFFCURVE",
"140 654 OFFCURVE",
"140 632 CURVE SMOOTH",
"140 586 OFFCURVE",
"126 548 OFFCURVE",
"58 508 CURVE",
"72 488 LINE"
);
}
);
width = 703;
},
{
components = (
{
alignment = -1;
name = n;
transform = "{1, 0, 0, 1, 222, 0}";
}
);
layerId = master01;
paths = (
{
closed = 1;
nodes = (
"181 472 OFFCURVE",
"213 540 OFFCURVE",
"213 616 CURVE SMOOTH",
"213 686 OFFCURVE",
"168 724 OFFCURVE",
"116 724 CURVE SMOOTH",
"80 724 OFFCURVE",
"51 700 OFFCURVE",
"51 665 CURVE SMOOTH",
"51 630 OFFCURVE",
"80 612 OFFCURVE",
"106 612 CURVE SMOOTH",
"125 612 OFFCURVE",
"143 620 OFFCURVE",
"152 636 CURVE",
"140 636 LINE",
"149 626 OFFCURVE",
"153 614 OFFCURVE",
"153 598 CURVE SMOOTH",
"153 556 OFFCURVE",
"130 510 OFFCURVE",
"63 478 CURVE",
"87 435 LINE"
);
}
);
width = 768.872;
}
);
leftKerningGroup = napostrophe;
rightKerningGroup = n;
unicode = 0149;
},
{
glyphname = eng;
layers = (
{
anchors = (
{
name = aboveLC;
position = "{320, 522}";
},
{
name = belowLC;
position = "{290, -182}";
}
);
layerId = "42B3044F-4D5A-45CA-9EB7-C1889731596B";
paths = (
{
closed = 1;
nodes = (
"484 -188 OFFCURVE",
"528 -86 OFFCURVE",
"528 26 CURVE SMOOTH",
"528 308 LINE SMOOTH",
"528 432 OFFCURVE",
"482 512 OFFCURVE",
"372 512 CURVE SMOOTH",
"304 512 OFFCURVE",
"254 478 OFFCURVE",
"214 440 CURVE",
"210 440 LINE",
"198 500 LINE",
"58 500 LINE",
"58 0 LINE",
"230 0 LINE",
"230 328 LINE",
"256 352 OFFCURVE",
"274 366 OFFCURVE",
"306 366 CURVE SMOOTH",
"340 366 OFFCURVE",
"356 350 OFFCURVE",
"356 286 CURVE SMOOTH",
"356 20 LINE SMOOTH",
"356 -34 OFFCURVE",
"342 -54 OFFCURVE",
"306 -54 CURVE SMOOTH",
"294 -54 OFFCURVE",
"284 -52 OFFCURVE",
"270 -48 CURVE",
"240 -174 LINE",
"262 -182 OFFCURVE",
"288 -188 OFFCURVE",
"334 -188 CURVE SMOOTH"
);
}
);
width = 582;
},
{
anchors = (
{
name = aboveLC;
position = "{280, 502}";
},
{
name = belowLC;
position = "{270, -222}";
}
);
layerId = "0CAB57D4-4FC4-49C3-B456-FB7666EAA712";
paths = (
{
closed = 1;
nodes = (
"406 -234 OFFCURVE",
"438 -194 OFFCURVE",
"438 -102 CURVE SMOOTH",
"438 308 LINE SMOOTH",
"438 432 OFFCURVE",
"392 490 OFFCURVE",
"294 490 CURVE SMOOTH",
"228 490 OFFCURVE",
"178 452 OFFCURVE",
"128 402 CURVE",
"126 402 LINE",
"122 478 LINE",
"96 478 LINE",
"96 0 LINE",
"126 0 LINE",
"126 366 LINE",
"188 430 OFFCURVE",
"232 462 OFFCURVE",
"292 462 CURVE SMOOTH",
"374 462 OFFCURVE",
"408 410 OFFCURVE",
"408 304 CURVE SMOOTH",
"408 -98 LINE SMOOTH",
"408 -160 OFFCURVE",
"398 -206 OFFCURVE",
"342 -206 CURVE SMOOTH",
"324 -206 OFFCURVE",
"302 -200 OFFCURVE",
"290 -196 CURVE",
"282 -220 LINE",
"296 -228 OFFCURVE",
"322 -234 OFFCURVE",
"340 -234 CURVE SMOOTH"
);
}
);
width = 526;
},
{
anchors = (
{
name = aboveLC;
position = "{295, 509}";
},
{
name = belowLC;
position = "{277, -207}";
}
);
layerId = master01;
paths = (
{
closed = 1;
nodes = (
"435 -217 OFFCURVE",
"471 -154 OFFCURVE",
"471 -55 CURVE SMOOTH",
"471 308 LINE SMOOTH",
"471 432 OFFCURVE",
"425 498 OFFCURVE",
"323 498 CURVE SMOOTH",
"256 498 OFFCURVE",
"206 462 OFFCURVE",
"160 416 CURVE",
"157 416 LINE",
"150 486 LINE",
"82 486 LINE",
"82 0 LINE",
"164 0 LINE",
"164 352 LINE",
"213 401 OFFCURVE",
"247 427 OFFCURVE",
"297 427 CURVE SMOOTH",
"361 427 OFFCURVE",
"389 388 OFFCURVE",
"389 297 CURVE SMOOTH",
"389 -55 LINE SMOOTH",
"389 -114 OFFCURVE",
"377 -150 OFFCURVE",
"329 -150 CURVE SMOOTH",
"313 -150 OFFCURVE",
"295 -146 OFFCURVE",
"283 -142 CURVE",
"267 -203 LINE",
"283 -211 OFFCURVE",
"309 -217 OFFCURVE",
"338 -217 CURVE SMOOTH"
);
}
);
width = 546.608;
}
);
leftKerningGroup = n;
rightKerningGroup = n;
unicode = 014B;
},
{
glyphname = o;
layers = (
{
anchors = (
{
name = aboveLC;
position = "{280, 522}";
},
{
name = aboverightLC;
position = "{570, 522}";
},
{
name = belowLC;
position = "{280, -22}";
},
{
name = hornLC;
position = "{374, 500}";
},
{
name = ogonekLC;
position = "{280, 0}";
}
);
layerId = "42B3044F-4D5A-45CA-9EB7-C1889731596B";
paths = (
{
closed = 1;
nodes = (
"408 -12 OFFCURVE",
"528 84 OFFCURVE",
"528 250 CURVE SMOOTH",
"528 416 OFFCURVE",
"408 512 OFFCURVE",
"280 512 CURVE SMOOTH",
"152 512 OFFCURVE",
"32 416 OFFCURVE",
"32 250 CURVE SMOOTH",
"32 84 OFFCURVE",
"152 -12 OFFCURVE",
"280 -12 CURVE SMOOTH"
);
},
{
closed = 1;
nodes = (
"228 126 OFFCURVE",
"208 174 OFFCURVE",
"208 250 CURVE SMOOTH",
"208 326 OFFCURVE",
"228 374 OFFCURVE",
"280 374 CURVE SMOOTH",
"332 374 OFFCURVE",
"352 326 OFFCURVE",
"352 250 CURVE SMOOTH",
"352 174 OFFCURVE",
"332 126 OFFCURVE",
"280 126 CURVE SMOOTH"
);
}
);
width = 560;
},
{
anchors = (
{
name = aboveLC;
position = "{266, 502}";
},
{
name = aboverightLC;
position = "{450, 502}";
},
{
name = belowLC;
position = "{266, -22}";
},
{
name = hornLC;
position = "{358, 482}";
},
{
name = ogonekLC;
position = "{266, 0}";
}
);
layerId = "0CAB57D4-4FC4-49C3-B456-FB7666EAA712";
paths = (
{
closed = 1;
nodes = (
"380 -12 OFFCURVE",
"478 80 OFFCURVE",
"478 238 CURVE SMOOTH",
"478 398 OFFCURVE",
"380 490 OFFCURVE",
"266 490 CURVE SMOOTH",
"152 490 OFFCURVE",
"54 398 OFFCURVE",
"54 238 CURVE SMOOTH",
"54 80 OFFCURVE",
"152 -12 OFFCURVE",
"266 -12 CURVE SMOOTH"
);
},
{
closed = 1;
nodes = (
"164 16 OFFCURVE",
"86 106 OFFCURVE",
"86 238 CURVE SMOOTH",
"86 370 OFFCURVE",
"164 462 OFFCURVE",
"266 462 CURVE SMOOTH",
"368 462 OFFCURVE",
"446 370 OFFCURVE",
"446 238 CURVE SMOOTH",
"446 106 OFFCURVE",
"368 16 OFFCURVE",
"266 16 CURVE SMOOTH"
);
}
);
width = 532;
},
{
anchors = (
{
name = aboveLC;
position = "{271, 509}";
},
{
name = aboverightLC;
position = "{494, 509}";
},
{
name = belowLC;
position = "{271, -22}";
},
{
name = hornLC;
position = "{364, 489}";
},
{
name = ogonekLC;
position = "{271, 0}";
}
);
layerId = master01;
paths = (
{
closed = 1;
nodes = (
"390 -12 OFFCURVE",
"496 81 OFFCURVE",
"496 242 CURVE SMOOTH",
"496 405 OFFCURVE",
"390 498 OFFCURVE",
"271 498 CURVE SMOOTH",
"152 498 OFFCURVE",
"46 405 OFFCURVE",
"46 242 CURVE SMOOTH",
"46 81 OFFCURVE",
"152 -12 OFFCURVE",
"271 -12 CURVE SMOOTH"
);
},
{
closed = 1;
nodes = (
"188 56 OFFCURVE",
"131 131 OFFCURVE",
"131 242 CURVE SMOOTH",
"131 354 OFFCURVE",
"188 430 OFFCURVE",
"271 430 CURVE SMOOTH",
"355 430 OFFCURVE",
"411 354 OFFCURVE",
"411 242 CURVE SMOOTH",
"411 131 OFFCURVE",
"355 56 OFFCURVE",
"271 56 CURVE SMOOTH"
);
}
);
width = 542.304;
}
);
leftKerningGroup = o;
rightKerningGroup = o;
unicode = 006F;
},
